<svg width="2352" height="1129" viewBox="0 0 2352 1129" fill="none" xmlns="http://www.w3.org/2000/svg">
<path fill-rule="evenodd" clip-rule="evenodd" d="M1563.98 246.985C1545.89 222.145 1516.58 206 1483.5 206C1428.55 206 1384 250.548 1384 305.5C1384 305.593 1384 305.685 1384 305.778C1379.91 305.264 1375.73 305 1371.5 305C1320.86 305 1279.06 342.824 1272.81 391.759C1243.45 396.407 1221 421.832 1221 452.5C1221 486.466 1248.53 514 1282.5 514C1300.49 514 1316.67 506.279 1327.91 493.971C1341.08 500.395 1355.87 504 1371.5 504C1402.96 504 1431.01 489.402 1449.24 466.61C1466.71 481.802 1489.53 491 1514.5 491C1515.01 491 1515.51 490.996 1516.02 490.989C1546.97 533.996 1597.47 562 1654.5 562C1694.44 562 1731.17 548.267 1760.23 525.265C1778.79 537.125 1800.84 544 1824.5 544C1890.5 544 1944 490.498 1944 424.5C1944 358.502 1890.5 305 1824.5 305C1817.03 305 1809.71 305.686 1802.62 306.998C1773.25 255.623 1717.92 221 1654.5 221C1621.25 221 1590.21 230.521 1563.98 246.985Z" fill="#84DAFF"/>
<path fill-rule="evenodd" clip-rule="evenodd" d="M732.425 98.0748C709.88 67.1193 673.353 47 632.127 47C563.645 47 508.13 102.515 508.13 170.997C508.13 171.112 508.13 171.227 508.13 171.343C503.028 170.703 497.829 170.373 492.553 170.373C429.45 170.373 377.358 217.51 369.563 278.493C332.974 284.285 305 315.969 305 354.187C305 396.515 339.313 430.828 381.641 430.828C404.055 430.828 424.222 421.207 438.236 405.868C454.639 413.874 473.071 418.367 492.553 418.367C531.755 418.367 566.708 400.174 589.43 371.771C611.201 390.704 639.641 402.166 670.759 402.166C671.391 402.166 672.023 402.161 672.653 402.152C711.226 455.748 774.151 490.646 845.226 490.646C894.999 490.646 940.775 473.532 976.99 444.867C1000.12 459.647 1027.6 468.214 1057.08 468.214C1139.33 468.214 1206 401.54 1206 319.294C1206 237.047 1139.33 170.373 1057.08 170.373C1047.77 170.373 1038.65 171.228 1029.81 172.864C993.21 108.841 924.257 65.6929 845.226 65.6929C803.784 65.6929 765.113 77.5574 732.425 98.0748Z" fill="#84DAFF"/>
<path fill-rule="evenodd" clip-rule="evenodd" d="M578.52 198.454C573.721 185.429 560.498 176.87 546.097 178.527C531.71 180.183 520.785 191.499 519.053 205.254C503.856 208.637 493.365 223.026 495.184 238.836C497.129 255.736 512.406 267.86 529.306 265.915C540.493 264.628 549.587 257.499 553.893 247.924C560.262 256.27 570.737 261.147 581.924 259.86C598.825 257.915 610.948 242.638 609.004 225.738C607.2 210.06 593.922 198.493 578.52 198.454Z" fill="#38B56A"/>
<ellipse cx="755.5" cy="562" rx="755.5" ry="334" fill="#B5E8C7"/>
<ellipse cx="1596.5" cy="704" rx="755.5" ry="334" fill="#C6ECD7"/>
<ellipse cx="1157.5" cy="793.5" rx="755.5" ry="335.5" fill="#E2F5DF"/>
<path fill-rule="evenodd" clip-rule="evenodd" d="M1680.51 63.0961H1690.01C1703.81 63.0961 1715 74.285 1715 88.0873C1715 101.89 1703.81 113.079 1690.01 113.079H1621.99C1608.19 113.079 1597 101.89 1597 88.0873C1597 74.285 1608.19 63.0961 1621.99 63.0961H1631.49C1633.76 51.6375 1643.87 43 1656 43C1668.13 43 1678.24 51.6375 1680.51 63.0961Z" fill="white" fill-opacity="0.6"/>
<path fill-rule="evenodd" clip-rule="evenodd" d="M795.956 12.262H801.751C810.173 12.262 817 19.0892 817 27.5109C817 35.9327 810.173 42.7598 801.751 42.7598H760.249C751.827 42.7598 745 35.9327 745 27.5109C745 19.0892 751.827 12.262 760.249 12.262H766.043C767.432 5.27037 773.601 0 781 0C788.399 0 794.568 5.27037 795.956 12.262Z" fill="white" fill-opacity="0.6"/>
<g style="mix-blend-mode:multiply">
<rect x="563" y="286" width="39" height="15" rx="7.5" fill="#B5E8C7"/>
</g>
<g style="mix-blend-mode:multiply">
<rect x="716" y="325" width="39" height="15" rx="7.5" fill="#B5E8C7"/>
</g>
<g style="mix-blend-mode:multiply">
<rect x="856" y="301" width="39" height="15" rx="7.5" fill="#B5E8C7"/>
</g>
<g style="mix-blend-mode:multiply">
<rect x="972" y="332" width="39" height="15" rx="7.5" fill="#B5E8C7"/>
</g>
<g style="mix-blend-mode:multiply">
<rect x="506" y="395" width="39" height="15" rx="7.5" fill="#B5E8C7"/>
</g>
</svg>
