<svg width="761" height="174" viewBox="0 0 761 174" fill="none" xmlns="http://www.w3.org/2000/svg">
<path d="M738.839 51.5915C741.558 47.6867 742.978 42.756 742.978 37.2883C742.978 31.3003 741.159 25.9892 737.165 22.1282C733.228 18.323 727.797 16.525 721.72 16.2392L721.672 16.237L721.624 16.2356C715.693 16.0703 709.525 15.9026 703.178 15.9026C682.388 15.9026 660.636 17.0703 641.393 18.735L641.332 18.7403L641.27 18.7472C638.972 19.0034 636.533 19.8715 634.752 21.9744C633.011 24.0292 632.536 26.5174 632.536 28.6817V40.9296C632.536 43.3203 633.122 45.9564 634.889 48.0251C636.807 50.2706 639.57 51.1965 642.379 50.8643C645.154 50.5817 648.181 50.3226 651.375 50.0862C648.361 50.9124 645.653 51.9378 643.251 53.1991C638.492 55.6992 634.86 59.1572 632.491 63.7692C630.166 68.296 629.238 73.582 629.238 79.4939C629.238 89.4783 631.486 97.8512 639.266 103.537C645.713 108.248 655.295 110.545 668.326 111.628V119.713C668.326 120.291 668.352 120.867 668.406 121.438C652.772 120.89 636.865 119.682 626.462 118.708C623.816 118.456 620.883 118.96 618.597 121.051C616.315 123.137 615.549 126.009 615.549 128.651V140.899C615.549 143.367 616.223 146.028 618.347 148.111C620.332 150.056 622.925 150.834 625.323 151.15C640.029 153.184 662.077 154.009 685.201 154.009C710.868 154.009 734.715 153.028 745.444 151.119C747.806 150.706 750.306 149.862 752.219 147.987C754.293 145.953 755.018 143.374 755.018 140.899V128.651C755.018 125.916 754.156 123.024 751.851 120.956C749.527 118.872 746.533 118.339 743.741 118.73C731.037 120.363 711.408 121.488 703.712 121.172L703.7 121.172L703.687 121.171C703.028 121.148 702.583 121.088 702.296 121.029C702.266 120.81 702.24 120.491 702.24 120.044V112.292C714.826 111.732 729.749 110.234 739.171 108.584L739.231 108.573L739.292 108.561C741.533 108.111 743.738 106.932 745.279 104.93C746.877 102.855 747.504 100.221 747.026 97.5C747.026 97.4988 747.026 97.4975 747.026 97.4963L744.892 85.3075C744.532 82.973 743.583 80.468 741.429 78.7283C740.514 77.989 739.527 77.5044 738.524 77.2172C738.798 76.9681 739.059 76.6991 739.306 76.4104C740.998 74.4297 741.658 71.9403 741.658 69.5631V58.6394C741.658 56.1442 740.838 53.6963 739.075 51.8321C738.998 51.7501 738.919 51.6699 738.839 51.5915ZM715.002 79.2794C715.54 79.2893 716.064 79.2992 716.577 79.309C708.83 79.948 700.528 80.2868 693.282 80.2868C679.186 80.2868 671.07 80.1229 666.38 79.6423C669.768 79.2462 675.275 79.032 684.211 79.032C699.271 79.032 708.27 79.1558 715.002 79.2794ZM662.492 80.4792C662.492 80.4791 662.494 80.4778 662.498 80.4751C662.494 80.4779 662.492 80.4792 662.492 80.4792Z" fill="#FFBE18" stroke="white" stroke-width="10"/>
<path d="M507.372 82.4248C507.372 68.89 508.348 60.3398 510.244 55.292C511.157 52.8618 512.147 51.6265 512.993 50.9772C513.772 50.3784 514.823 49.9712 516.539 49.9712C518.314 49.9712 519.403 50.3877 520.205 50.9958C521.067 51.6496 522.065 52.8842 522.984 55.3062C524.894 60.3457 525.871 68.8865 525.871 82.4248C525.871 96.0469 524.894 104.631 522.982 109.692C522.062 112.126 521.063 113.364 520.202 114.018C519.401 114.626 518.313 115.043 516.539 115.043C514.84 115.043 513.796 114.634 513.014 114.027C512.161 113.365 511.165 112.108 510.248 109.65C508.347 104.555 507.372 95.9565 507.372 82.4248ZM558.913 96.7503C560.092 97.1262 561.316 97.281 562.501 97.281H564.972C566.62 97.281 568.271 97.0981 569.856 96.7126V155.853C569.856 158.523 570.638 161.296 572.747 163.398C574.853 165.499 577.626 166.274 580.293 166.274H593.307C595.973 166.274 598.747 165.499 600.853 163.398C602.961 161.296 603.743 158.523 603.743 155.853V19.5094C603.743 16.8402 602.961 14.0672 600.853 11.9648C598.747 9.86432 595.973 9.0885 593.307 9.0885H580.293C577.626 9.0885 574.853 9.86432 572.747 11.9648C570.638 14.0672 569.856 16.8403 569.856 19.5094V60.5769C569.856 62.0119 569.392 62.8115 568.908 63.2691C568.398 63.7518 567.404 64.2832 565.631 64.2832H562.501C561.223 64.2832 559.9 64.4632 558.636 64.9063C557.369 52.2413 554.522 42.0279 549.653 34.3476C542.391 22.8918 531.129 17.7948 516.539 17.7948C502.019 17.7948 490.802 22.9009 483.565 34.354C476.647 45.3037 473.814 61.4038 473.814 82.4248C473.814 103.448 476.648 119.583 483.56 130.57C490.789 142.059 502.003 147.219 516.539 147.219C531.072 147.219 542.321 142.063 549.592 130.582C554.877 122.238 557.808 110.923 558.913 96.7503Z" fill="#5283FF" stroke="white" stroke-width="10"/>
<path d="M379.386 112.043C376.329 112.043 374.382 110.982 373.056 109.262C371.588 107.359 370.448 104.066 370.448 98.9559C370.448 93.8462 371.588 90.5527 373.056 88.6495C374.382 86.9299 376.329 85.8687 379.386 85.8687C382.443 85.8687 384.39 86.9299 385.716 88.6495C387.184 90.5527 388.324 93.8462 388.324 98.9559C388.324 104.066 387.184 107.359 385.716 109.262C384.39 110.982 382.443 112.043 379.386 112.043ZM421.772 98.9559C421.772 85.4954 418.079 74.1484 410.587 66.1301C404.973 60.1219 397.554 56.3332 388.81 54.7917H416.445C419.111 54.7917 421.881 54.0108 423.982 51.9042C426.081 49.7995 426.856 47.0287 426.856 44.3656V33.02C426.856 30.3569 426.081 27.5861 423.982 25.4814C421.881 23.3748 419.111 22.5939 416.445 22.5939H396.52V15.0973C396.52 12.665 395.946 9.86483 393.81 7.7231C391.672 5.57865 388.871 5 386.437 5H372.827C370.392 5 367.592 5.57865 365.453 7.7231C363.317 9.86483 362.743 12.6649 362.743 15.0973V22.5939H342.491C339.825 22.5939 337.054 23.3748 334.954 25.4814C332.855 27.5861 332.08 30.3569 332.08 33.02V44.3656C332.08 47.0287 332.855 49.7995 334.954 51.9042C337.054 54.0108 339.825 54.7917 342.491 54.7917H369.961C361.218 56.3332 353.798 60.1219 348.184 66.1301C340.692 74.1484 336.999 85.4954 336.999 98.9559C336.999 112.416 340.692 123.763 348.184 131.782C355.72 139.846 366.508 143.912 379.386 143.912C392.263 143.912 403.052 139.846 410.587 131.782C418.079 123.763 421.772 112.416 421.772 98.9559ZM395.494 22.5546C395.494 22.5544 395.499 22.5556 395.508 22.5587C395.498 22.5563 395.494 22.5547 395.494 22.5546ZM441.369 8.94629C438.703 8.94629 435.933 9.72721 433.832 11.8338C431.733 13.9385 430.958 16.7093 430.958 19.3724V155.848C430.958 158.511 431.733 161.282 433.832 163.387C435.933 165.493 438.703 166.274 441.369 166.274H454.323C456.989 166.274 459.76 165.493 461.861 163.387C463.959 161.282 464.735 158.511 464.735 155.848V19.3724C464.735 16.7093 463.959 13.9385 461.861 11.8338C459.76 9.72721 456.989 8.94629 454.323 8.94629H441.369Z" fill="#FF4848" stroke="white" stroke-width="10"/>
<path d="M214.052 73.3097C215.402 73.3249 216.801 73.3402 218.248 73.3534C212.197 74.906 205.45 75.7341 199.332 75.7341C190.944 75.7341 186.876 75.358 184.918 74.6993C184.806 74.6614 184.713 74.6264 184.636 74.5954C184.632 74.5188 184.63 74.4273 184.63 74.3193C184.745 74.2827 184.882 74.2426 185.045 74.2005C187.723 73.5094 193.117 73.2278 204.093 73.2278C206.828 73.2278 209.803 73.2615 213.083 73.2988C213.403 73.3024 213.726 73.3061 214.052 73.3097ZM184.338 74.448C184.338 74.4479 184.343 74.451 184.351 74.4574C184.342 74.4514 184.337 74.4481 184.338 74.448ZM184.673 74.9267C184.674 74.9292 184.675 74.9305 184.674 74.9305C184.674 74.9306 184.674 74.9293 184.673 74.9267ZM184.122 74.5225C184.121 74.5225 184.123 74.5213 184.127 74.5189C184.124 74.5214 184.122 74.5226 184.122 74.5225ZM233.226 70.364C234.871 68.4325 235.362 66.0515 235.362 63.9493V53.9113C235.362 51.696 234.816 49.171 232.951 47.1887C235.374 43.7976 236.676 39.7778 236.676 35.3164C236.676 27.9562 233.625 21.8815 227.072 17.9792C220.993 14.3594 212.336 12.8733 201.466 12.8733C186.045 12.8733 176.772 13.3737 164.656 15.0603L164.647 15.0616L164.637 15.063C162.422 15.3801 159.857 16.1466 157.988 18.2876C156.104 20.4448 155.749 23.0568 155.749 25.1138V36.4683C155.749 38.8066 156.322 41.7156 158.683 43.786C161.061 45.8717 164.039 46.0464 166.404 45.6932C169.698 45.2147 172.715 44.8225 175.546 44.5074C170.261 45.7187 165.753 47.5683 162.065 50.1811C154.071 55.8449 150.823 64.4062 150.823 74.8101C150.823 85.0702 154.048 93.5038 162.159 99.037C169.808 104.255 181.017 106.304 195.556 106.304C208.749 106.304 222.608 103.909 234.317 99.7683C236.496 99.0078 239.092 97.7616 240.594 95.1796C242.165 92.4806 241.799 89.6335 241.289 87.5873L241.284 87.569L241.279 87.5507L238.657 77.3656C238.228 75.6541 237.489 73.7526 236.034 72.2441C235.197 71.376 234.242 70.7594 233.226 70.364ZM198.363 119.505L198.367 119.479L198.371 119.452C198.818 116.317 197.928 113.266 195.614 111.092C193.45 109.059 190.607 108.316 188.003 108.316H175.033C172.291 108.316 169.59 109.144 167.556 111.328C165.699 113.323 164.982 115.843 164.67 118.002L164.661 118.06C164.141 121.363 163.629 124.607 163.629 133.063C163.629 144.333 167.742 153.615 175.832 159.938C183.738 166.117 194.837 169 208.033 169C237.052 169 257.266 167.844 273.904 166.01C276.062 165.791 278.617 165.129 280.626 163.255C282.83 161.2 283.599 158.436 283.462 155.688L283.46 155.642L283.457 155.596L282.639 143.624C282.516 141.321 281.851 138.673 279.934 136.611C277.838 134.357 274.961 133.561 272.075 133.846C254.802 135.479 232.966 136.785 210.989 136.785C205.068 136.785 201.623 135.851 199.772 134.64C198.345 133.705 197.436 132.344 197.436 129.443C197.436 125.539 197.694 123.859 198.299 119.925C198.32 119.788 198.341 119.648 198.363 119.505ZM255.647 9.0885C252.979 9.0885 250.207 9.86941 248.105 11.9763C246.005 14.0816 245.229 16.8537 245.229 19.5189V111.671C245.229 114.336 246.005 117.108 248.105 119.213C250.207 121.32 252.979 122.101 255.647 122.101H268.617C271.285 122.101 274.057 121.32 276.159 119.213C278.259 117.108 279.035 114.336 279.035 111.671V19.5189C279.035 16.8537 278.259 14.0816 276.159 11.9763C274.057 9.8694 271.285 9.0885 268.617 9.0885H255.647Z" fill="#11B35B" stroke="white" stroke-width="10"/>
<path d="M103.94 107.939L103.927 107.937C102.127 107.667 99.298 107.055 97.4028 104.716C95.3429 102.173 95.5582 99.1378 95.9714 97.0661C98.0253 86.6241 98.6795 73.9492 98.6795 64.3623C98.6795 58.8548 97.2237 55.3768 95.1614 53.2733C93.1146 51.1856 89.7494 49.7171 84.3828 49.7171C74.2887 49.7171 63.2935 50.4224 50.5712 51.2385C43.9621 51.6624 36.8869 52.1162 29.2298 52.5166L103.94 107.939ZM103.94 107.939L103.953 107.941M103.94 107.939L103.953 107.941M103.953 107.941L117.616 109.918C117.62 109.918 117.624 109.919 117.629 109.92C119.585 110.212 122.312 110.35 124.768 108.842C127.398 107.226 128.421 104.561 128.868 102.325C131.432 89.6607 132.429 74.7722 132.429 59.5748C132.429 46.5633 128.879 35.7801 121.301 28.2687C113.73 20.7644 102.885 17.2655 89.8255 17.2655C72.5751 17.2655 51.7808 17.7634 28.4688 20.0968C25.9502 20.3489 23.5088 21.2778 21.6369 23.0664C19.7159 24.9018 18.6891 27.3753 18.6891 30.0245V42.9012C18.6891 45.6508 19.7213 48.2959 21.8764 50.1655M103.953 107.941L21.8764 50.1655M21.8764 50.1655C23.9788 51.9893 26.6556 52.6518 29.2279 52.5167L21.8764 50.1655ZM74.652 122.92C51.6697 122.92 30.1536 121.933 16.1053 120.158C13.3269 119.771 10.3193 120.292 8.00919 122.45C5.75455 124.557 5 127.447 5 130.066V142.283C5 144.75 5.67654 147.41 7.80342 149.49C9.78802 151.43 12.3798 152.205 14.7748 152.52C29.4803 154.549 51.528 155.372 74.652 155.372C100.32 155.372 124.165 154.393 134.893 152.49C137.253 152.078 139.752 151.237 141.666 149.366C143.742 147.336 144.469 144.758 144.469 142.283V130.066C144.469 127.468 143.727 124.557 141.503 122.429C139.169 120.197 136.078 119.653 133.17 120.187C123.345 121.763 100.321 122.92 74.652 122.92Z" fill="#11B35B" stroke="white" stroke-width="10"/>
</svg>
