<svg width="60" height="60" viewBox="0 0 60 60" fill="none" xmlns="http://www.w3.org/2000/svg">
<circle cx="30" cy="30" r="29" fill="#F2F2F2" stroke="black" stroke-width="2"/>
<path d="M14 25.3066H46.1333L39.9801 43.7662H20.1532L14 25.3066Z" fill="#C0C0C0"/>
<path d="M30.4085 13L46.1333 25.3064H14L30.4085 13Z" fill="#C0C0C0"/>
<line x1="31" y1="14" x2="31" y2="1" stroke="black" stroke-width="2"/>
<line x1="30.6" y1="13.2" x2="46.6" y2="25.2" stroke="black" stroke-width="2"/>
<line x1="46.9536" y1="25.3011" x2="40.9536" y2="44.3011" stroke="black" stroke-width="2"/>
<line x1="20" y1="43" x2="41" y2="43" stroke="black" stroke-width="2"/>
<line x1="14.9536" y1="24.6989" x2="20.9536" y2="43.6989" stroke="black" stroke-width="2"/>
<line x1="14.4233" y1="25.183" x2="31.4233" y2="13.183" stroke="black" stroke-width="2"/>
<line x1="45.6838" y1="26.0513" x2="57.6838" y2="22.0513" stroke="black" stroke-width="2"/>
<line x1="40.7809" y1="42.3753" x2="48.7809" y2="52.3753" stroke="black" stroke-width="2"/>
<path d="M20.387 43.3164L12 53.4998" stroke="black" stroke-width="2"/>
<line x1="2.29409" y1="21.0442" x2="15.2941" y2="25.0442" stroke="black" stroke-width="2"/>
</svg>
