<svg width="86" height="385" viewBox="0 0 86 385" fill="none" xmlns="http://www.w3.org/2000/svg">
<path d="M0 25.6799C0 18.3692 7.58856 13.5296 14.2173 16.6127L17.2827 18.0385C19.9567 19.2822 23.0433 19.2822 25.7173 18.0385L28.7827 16.6127C35.4114 13.5296 43 18.3692 43 25.6799V368.622C43 372.512 40.7443 376.049 37.2173 377.69L25.7173 383.038C23.0433 384.282 19.9567 384.282 17.2827 383.038L5.7827 377.69C2.25568 376.049 0 372.512 0 368.622V25.6799Z" fill="#88E3B2"/>
<rect x="17" width="8" height="22" rx="4" fill="#C5AA75"/>
<path d="M43 25.6799C43 18.3692 50.5886 13.5296 57.2173 16.6127L60.2827 18.0385C62.9567 19.2822 66.0433 19.2822 68.7173 18.0385L71.7827 16.6127C78.4114 13.5296 86 18.3692 86 25.6799V368.622C86 372.512 83.7443 376.049 80.2173 377.69L68.7173 383.038C66.0433 384.282 62.9567 384.282 60.2827 383.038L48.7827 377.69C45.2557 376.049 43 372.512 43 368.622V25.6799Z" fill="#98E6BC"/>
<rect x="60" width="8" height="22" rx="4" fill="#C5AA75"/>
</svg>
