<svg width="145" height="157" viewBox="0 0 145 157" fill="none" xmlns="http://www.w3.org/2000/svg">
<g filter="url(#filter0_d_112_2)">
<rect width="9.67408" height="44.8386" rx="4.83704" transform="matrix(0.973508 0.228654 -0.203186 0.97914 65.5605 50.8579)" fill="#8F7561"/>
</g>
<g filter="url(#filter1_d_112_2)">
<rect width="9.7414" height="43.7444" rx="4.8707" transform="matrix(0.911153 -0.412067 0.371042 0.928616 84.2932 54.8721)" fill="#8F7561"/>
</g>
<rect width="9.70878" height="62.0997" rx="4.85439" transform="matrix(0.941717 -0.336407 0.300979 0.953631 43.4849 3.26611)" fill="#876D5B"/>
<rect width="9.70878" height="62.0997" rx="4.85439" transform="matrix(0.941717 -0.336407 0.300979 0.953631 24.8296 21.8726)" fill="#876D5B"/>
<g filter="url(#filter2_d_112_2)">
<rect width="9.80267" height="16.0985" rx="4.90134" transform="matrix(-0.575157 0.818398 -0.782419 -0.622271 48.9304 87.397)" fill="#8F7561"/>
<rect width="9.88828" height="15.952" rx="4.94414" transform="matrix(-0.441748 0.897412 -0.873425 -0.48642 57.1921 91.3042)" fill="#8F7561"/>
<rect width="9.98571" height="15.7827" rx="4.99285" transform="matrix(-0.215282 0.976687 -0.97021 -0.241657 65.7083 92.2832)" fill="#8F7561"/>
<rect width="10.0088" height="15.7427" rx="5.0044" transform="matrix(-0.112123 0.993766 -0.991928 -0.12617 75.0256 93.2324)" fill="#8F7561"/>
<rect width="10.0173" height="15.7286" rx="5.00863" transform="matrix(-0.0321589 0.999505 -0.999334 -0.035788 86.4631 93.8867)" fill="#8F7561"/>
<rect width="10.0015" height="15.7452" rx="5.00074" transform="matrix(0.106237 0.994278 -0.992776 0.120571 96.5042 91.9473)" fill="#8F7561"/>
<rect width="9.96927" height="15.8033" rx="4.98463" transform="matrix(0.249752 0.968159 -0.959978 0.280657 106.531 88.1729)" fill="#8F7561"/>
<rect width="9.89359" height="15.9365" rx="4.9468" transform="matrix(0.42612 0.904407 -0.882503 0.470845 114.743 83.168)" fill="#8F7561"/>
<rect width="9.80797" height="16.084" rx="4.90398" transform="matrix(0.56451 0.825081 -0.790826 0.612525 120.382 78.1763)" fill="#8F7561"/>
</g>
<g filter="url(#filter3_d_112_2)">
<rect width="9.68834" height="45.8841" rx="4.84417" transform="matrix(0.960527 0.278186 -0.247894 0.968787 49.5808 71.9453)" fill="#8F7561"/>
</g>
<g filter="url(#filter4_d_112_2)">
<rect width="9.68731" height="47.0519" rx="4.84365" transform="matrix(0.961473 -0.2749 0.244915 0.969545 77.2974 74.6084)" fill="#8F7561"/>
</g>
<g filter="url(#filter5_d_112_2)">
<rect width="9.77623" height="16.1246" rx="4.88811" transform="matrix(-0.60126 0.796887 -0.761569 -0.650837 37.6802 109.908)" fill="#8F7561"/>
<rect width="9.8609" height="15.978" rx="4.93045" transform="matrix(-0.470203 0.880902 -0.85677 -0.51873 45.8101 114.118)" fill="#8F7561"/>
<rect width="9.95543" height="15.8073" rx="4.97772" transform="matrix(-0.245833 0.968505 -0.961386 -0.278383 54.2896 115.414)" fill="#8F7561"/>
<rect width="9.97631" height="15.766" rx="4.98816" transform="matrix(-0.142942 0.989307 -0.986921 -0.164173 63.5706 116.708)" fill="#8F7561"/>
<rect width="9.98237" height="15.7504" rx="4.99118" transform="matrix(-0.0628935 0.997891 -0.99738 -0.0744852 74.98 117.785)" fill="#8F7561"/>
<rect width="10.0348" height="15.7246" rx="5.0174" transform="matrix(0.0755072 0.997522 -0.996211 0.0820913 85.0593 116.182)" fill="#8F7561"/>
<rect width="9.99901" height="15.7804" rx="4.9995" transform="matrix(0.219279 0.976558 -0.968807 0.243888 95.2041 112.778)" fill="#8F7561"/>
<rect width="9.92094" height="15.9117" rx="4.96047" transform="matrix(0.397113 0.919297 -0.897586 0.437405 103.574 108.078)" fill="#8F7561"/>
<rect width="9.83435" height="16.0585" rx="4.91718" transform="matrix(0.537655 0.84518 -0.81047 0.582755 109.372 103.296)" fill="#8F7561"/>
</g>
<path d="M59.4776 52.4585C60.4275 51.3502 61.8143 50.7124 63.2739 50.7124H110.923C115.278 50.7124 117.551 55.8938 114.602 59.0984L96.4058 78.8689C95.459 79.8976 94.1248 80.4829 92.7268 80.4829H46.3278C42.0561 80.4829 39.7515 75.4723 42.5316 72.229L59.4776 52.4585Z" fill="#876D5B"/>
<path d="M27.1616 26.6694L52.7512 3.10107L60.3299 26.6694L35.3233 52.7186L27.1616 26.6694Z" fill="#876D5B"/>
<g filter="url(#filter6_f_112_2)">
<ellipse cx="72.6337" cy="111.019" rx="41.9742" ry="15.5055" fill="#8F7561" fill-opacity="0.5"/>
<path d="M114.108 111.019C114.108 112.963 113.043 114.876 110.98 116.678C108.919 118.479 105.906 120.123 102.141 121.514C94.6134 124.295 84.1812 126.025 72.6337 126.025C61.0862 126.025 50.654 124.295 43.1267 121.514C39.3611 120.123 36.3487 118.479 34.2869 116.678C32.224 114.876 31.1594 112.963 31.1594 111.019C31.1594 109.076 32.224 107.162 34.2869 105.36C36.3487 103.56 39.3611 101.915 43.1267 100.524C50.654 97.7435 61.0862 96.0137 72.6337 96.0137C84.1812 96.0137 94.6134 97.7435 102.141 100.524C105.906 101.915 108.919 103.56 110.98 105.36C113.043 107.162 114.108 109.076 114.108 111.019Z" stroke="black"/>
</g>
<defs>
<filter id="filter0_d_112_2" x="53.3303" y="51.8354" width="24.7676" height="52.1602" filterUnits="userSpaceOnUse" color-interpolation-filters="sRGB">
<feFlood flood-opacity="0" result="BackgroundImageFix"/>
<feColorMatrix in="SourceAlpha" type="matrix" values="0 0 0 0 0 0 0 0 0 0 0 0 0 0 0 0 0 0 127 0" result="hardAlpha"/>
<feOffset dy="4"/>
<feGaussianBlur stdDeviation="2"/>
<feComposite in2="hardAlpha" operator="out"/>
<feColorMatrix type="matrix" values="0 0 0 0 0 0 0 0 0 0 0 0 0 0 0 0 0 0 0.25 0"/>
<feBlend mode="normal" in2="BackgroundImageFix" result="effect1_dropShadow_112_2"/>
<feBlend mode="normal" in="SourceGraphic" in2="effect1_dropShadow_112_2" result="shape"/>
</filter>
<filter id="filter1_d_112_2" x="81.7454" y="52.4385" width="30.2026" height="49.4751" filterUnits="userSpaceOnUse" color-interpolation-filters="sRGB">
<feFlood flood-opacity="0" result="BackgroundImageFix"/>
<feColorMatrix in="SourceAlpha" type="matrix" values="0 0 0 0 0 0 0 0 0 0 0 0 0 0 0 0 0 0 127 0" result="hardAlpha"/>
<feOffset dy="4"/>
<feGaussianBlur stdDeviation="2"/>
<feComposite in2="hardAlpha" operator="out"/>
<feColorMatrix type="matrix" values="0 0 0 0 0 0 0 0 0 0 0 0 0 0 0 0 0 0 0.25 0"/>
<feBlend mode="normal" in2="BackgroundImageFix" result="effect1_dropShadow_112_2"/>
<feBlend mode="normal" in="SourceGraphic" in2="effect1_dropShadow_112_2" result="shape"/>
</filter>
<filter id="filter2_d_112_2" x="28.5906" y="79.4014" width="99.4473" height="32.3218" filterUnits="userSpaceOnUse" color-interpolation-filters="sRGB">
<feFlood flood-opacity="0" result="BackgroundImageFix"/>
<feColorMatrix in="SourceAlpha" type="matrix" values="0 0 0 0 0 0 0 0 0 0 0 0 0 0 0 0 0 0 127 0" result="hardAlpha"/>
<feOffset dy="4"/>
<feGaussianBlur stdDeviation="2"/>
<feComposite in2="hardAlpha" operator="out"/>
<feColorMatrix type="matrix" values="0 0 0 0 0 0 0 0 0 0 0 0 0 0 0 0 0 0 0.25 0"/>
<feBlend mode="normal" in2="BackgroundImageFix" result="effect1_dropShadow_112_2"/>
<feBlend mode="normal" in="SourceGraphic" in2="effect1_dropShadow_112_2" result="shape"/>
</filter>
<filter id="filter3_d_112_2" x="35.2537" y="73.1021" width="26.5859" height="52.8335" filterUnits="userSpaceOnUse" color-interpolation-filters="sRGB">
<feFlood flood-opacity="0" result="BackgroundImageFix"/>
<feColorMatrix in="SourceAlpha" type="matrix" values="0 0 0 0 0 0 0 0 0 0 0 0 0 0 0 0 0 0 127 0" result="hardAlpha"/>
<feOffset dy="4"/>
<feGaussianBlur stdDeviation="2"/>
<feComposite in2="hardAlpha" operator="out"/>
<feColorMatrix type="matrix" values="0 0 0 0 0 0 0 0 0 0 0 0 0 0 0 0 0 0 0.25 0"/>
<feBlend mode="normal" in2="BackgroundImageFix" result="effect1_dropShadow_112_2"/>
<feBlend mode="normal" in="SourceGraphic" in2="effect1_dropShadow_112_2" result="shape"/>
</filter>
<filter id="filter4_d_112_2" x="74.3337" y="73.0903" width="26.7651" height="53.9917" filterUnits="userSpaceOnUse" color-interpolation-filters="sRGB">
<feFlood flood-opacity="0" result="BackgroundImageFix"/>
<feColorMatrix in="SourceAlpha" type="matrix" values="0 0 0 0 0 0 0 0 0 0 0 0 0 0 0 0 0 0 127 0" result="hardAlpha"/>
<feOffset dy="4"/>
<feGaussianBlur stdDeviation="2"/>
<feComposite in2="hardAlpha" operator="out"/>
<feColorMatrix type="matrix" values="0 0 0 0 0 0 0 0 0 0 0 0 0 0 0 0 0 0 0.25 0"/>
<feBlend mode="normal" in2="BackgroundImageFix" result="effect1_dropShadow_112_2"/>
<feBlend mode="normal" in="SourceGraphic" in2="effect1_dropShadow_112_2" result="shape"/>
</filter>
<filter id="filter5_d_112_2" x="17.4407" y="101.46" width="99.3726" height="33.9282" filterUnits="userSpaceOnUse" color-interpolation-filters="sRGB">
<feFlood flood-opacity="0" result="BackgroundImageFix"/>
<feColorMatrix in="SourceAlpha" type="matrix" values="0 0 0 0 0 0 0 0 0 0 0 0 0 0 0 0 0 0 127 0" result="hardAlpha"/>
<feOffset dy="4"/>
<feGaussianBlur stdDeviation="2"/>
<feComposite in2="hardAlpha" operator="out"/>
<feColorMatrix type="matrix" values="0 0 0 0 0 0 0 0 0 0 0 0 0 0 0 0 0 0 0.25 0"/>
<feBlend mode="normal" in2="BackgroundImageFix" result="effect1_dropShadow_112_2"/>
<feBlend mode="normal" in="SourceGraphic" in2="effect1_dropShadow_112_2" result="shape"/>
</filter>
<filter id="filter6_f_112_2" x="0.659424" y="65.5137" width="143.948" height="91.0107" filterUnits="userSpaceOnUse" color-interpolation-filters="sRGB">
<feFlood flood-opacity="0" result="BackgroundImageFix"/>
<feBlend mode="normal" in="SourceGraphic" in2="BackgroundImageFix" result="shape"/>
<feGaussianBlur stdDeviation="15" result="effect1_foregroundBlur_112_2"/>
</filter>
</defs>
</svg>
