<svg width="654" height="170" viewBox="0 0 654 170" fill="none" xmlns="http://www.w3.org/2000/svg">
<rect y="60" width="654" height="110" rx="20" fill="#8F7561"/>
<rect y="53" width="654" height="109" rx="20" fill="#F8E5BF"/>
<path fill-rule="evenodd" clip-rule="evenodd" d="M654 107V142C654 153.046 645.046 162 634 162H20C8.95432 162 0 153.046 0 142V107H654Z" fill="#E9D8B7"/>
<circle cx="528.5" cy="64.5" r="6.5" fill="white"/>
<circle cx="120.5" cy="64.5" r="6.5" fill="white"/>
<rect x="117" width="6" height="63" rx="3" fill="#8F7561"/>
<rect x="527" width="5" height="63" rx="2.5" fill="#8F7561"/>
<path d="M91.6611 130.032C92.0451 127.536 92.3331 125.328 92.4931 123.216C89.4211 123.344 86.4771 123.472 84.3971 123.632C83.7571 123.696 83.4051 123.28 83.4051 122.64V120.304C83.4051 119.664 83.7571 119.376 84.3971 119.312C86.3491 119.12 89.3891 118.96 92.7811 118.864C92.8131 118.032 92.8131 117.2 92.8131 116.368C92.8131 113.968 92.1731 113.104 90.3491 113.104C87.5331 113.104 86.1891 113.456 84.0771 113.68C83.4691 113.744 83.0851 113.36 83.0851 112.688V110.352C83.0851 109.744 83.3731 109.456 84.0771 109.36C87.3091 108.912 88.7811 108.784 91.0531 108.784C95.5971 108.784 97.4851 110.832 97.4851 115.824C97.4851 120.944 97.1651 125.36 96.3011 130.16C96.1731 130.864 95.8851 131.088 95.2131 131.088H92.6531C91.9491 131.088 91.5651 130.672 91.6611 130.032ZM101.421 107.824C101.421 107.152 101.805 106.768 102.477 106.768H105.005C105.677 106.768 106.061 107.152 106.061 107.824V134.384C106.061 135.056 105.677 135.44 105.005 135.44H102.477C101.805 135.44 101.421 135.056 101.421 134.384V121.104C101.069 121.68 100.365 122 99.5011 122H99.0211C98.3811 122 98.0291 121.648 98.0291 121.008V118.512C98.0291 117.872 98.3811 117.52 99.0211 117.52H99.6291C100.717 117.52 101.421 116.848 101.421 115.824V107.824ZM122.849 122.288C127.841 122.288 132.449 122.224 134.433 122.032C135.105 121.968 135.457 122.256 135.457 122.928V124.624C135.457 125.2 135.201 125.52 134.465 125.584C132.481 125.776 127.873 125.84 122.881 125.84C118.401 125.84 114.113 125.808 111.329 125.584C110.593 125.52 110.337 125.232 110.337 124.624V122.928C110.337 122.256 110.657 121.968 111.329 122.032C114.081 122.256 118.369 122.288 122.849 122.288ZM131.841 115.76C128.609 115.568 125.409 115.568 122.273 115.568C117.601 115.568 117.153 115.92 117.153 116.528C117.153 117.2 118.081 117.328 122.241 117.328C126.017 117.328 128.801 117.2 132.001 116.816C132.513 116.752 132.769 116.944 132.801 117.456L132.961 119.408C132.993 119.888 132.769 120.144 132.321 120.208C129.217 120.656 126.849 120.72 122.081 120.72C114.401 120.72 112.513 119.6 112.513 116.4C112.513 113.232 114.241 112.176 122.209 112.176C125.697 112.176 128.641 112.144 132.001 112.368C132.449 112.4 132.641 112.656 132.641 113.136V115.088C132.641 115.568 132.385 115.792 131.841 115.76ZM113.569 107.472H131.841C132.353 107.472 132.641 107.76 132.641 108.272V110.064C132.641 110.576 132.353 110.864 131.841 110.864H113.569C113.057 110.864 112.769 110.576 112.769 110.064V108.272C112.769 107.76 113.057 107.472 113.569 107.472ZM133.281 135.344C129.761 135.696 124.705 135.92 119.041 135.92C114.849 135.92 112.513 134.128 112.513 130.352C112.513 129.424 112.609 128.752 112.705 128.272C112.833 127.6 113.185 127.344 113.857 127.344H116.481C117.185 127.344 117.441 127.728 117.345 128.336C117.281 128.72 117.153 129.648 117.153 130.032C117.153 131.44 117.921 131.92 119.521 131.92C123.969 131.92 129.281 131.664 132.993 131.344C133.633 131.28 134.017 131.536 134.081 132.176L134.241 134.288C134.305 134.928 133.921 135.28 133.281 135.344ZM145.781 112.208C145.781 113.36 147.125 113.712 151.605 113.712C156.085 113.712 157.429 113.36 157.429 112.208C157.429 111.024 156.149 110.672 151.605 110.672C147.061 110.672 145.781 111.024 145.781 112.208ZM160.981 131.024C158.645 131.024 157.013 130.928 151.157 130.928C146.453 130.928 145.621 131.12 145.621 131.792C145.621 132.496 146.613 132.56 152.917 132.56C155.541 132.56 159.541 132.368 161.653 131.984C162.165 131.888 162.517 132.144 162.549 132.656L162.709 134.512C162.741 134.96 162.453 135.28 161.973 135.344C159.669 135.664 155.573 135.92 152.949 135.92C143.701 135.92 140.981 135.12 140.981 131.728C140.981 128.368 144.117 127.568 151.093 127.568C152.853 127.568 154.869 127.536 156.277 127.536C157.109 127.536 157.461 127.344 157.461 126.896C157.461 126.416 157.141 126.224 156.341 126.224C153.301 126.224 146.229 126.448 142.453 126.768C141.941 126.8 141.621 126.512 141.621 126V124.144C141.621 123.664 141.877 123.408 142.453 123.376C147.285 123.024 153.909 122.832 158.869 122.992C160.917 123.056 162.069 123.792 162.069 125.328C162.069 126.576 161.365 127.472 160.213 127.856H160.981C161.461 127.856 161.813 128.144 161.813 128.592V130.256C161.813 130.704 161.493 131.024 160.981 131.024ZM151.317 118.288C156.309 118.288 160.917 118.224 162.901 118.032C163.573 117.968 163.925 118.256 163.925 118.928V120.624C163.925 121.2 163.669 121.52 162.933 121.584C160.949 121.776 156.341 121.84 151.349 121.84C146.869 121.84 142.581 121.808 139.797 121.584C139.061 121.52 138.805 121.232 138.805 120.624V118.928C138.805 118.256 139.125 117.968 139.797 118.032C142.549 118.256 146.837 118.288 151.317 118.288ZM151.605 107.152C159.093 107.152 162.069 108.592 162.069 112.208C162.069 115.792 159.093 117.232 151.605 117.232C144.117 117.232 141.141 115.792 141.141 112.208C141.141 108.592 144.117 107.152 151.605 107.152ZM199.123 124.816V127.152C199.123 127.824 198.739 128.176 198.131 128.144C195.251 127.92 192.211 127.792 189.331 127.792C184.275 127.792 182.611 128.272 182.611 129.712C182.611 131.184 183.891 131.6 188.499 131.6C190.643 131.6 195.027 131.376 198.867 131.024C199.475 130.96 199.795 131.28 199.859 132.016L200.019 134.352C200.051 134.96 199.763 135.28 199.027 135.344C195.763 135.696 191.603 135.92 188.979 135.92C181.203 135.92 177.971 134.16 177.971 129.712C177.971 125.296 181.267 123.472 189.427 123.472C192.179 123.472 194.931 123.6 198.131 123.824C198.835 123.888 199.123 124.176 199.123 124.816ZM187.827 121.488H185.267C184.531 121.488 184.243 121.104 184.435 120.496C185.139 118.288 185.587 115.792 185.587 114.128C185.587 112.368 185.075 111.824 183.443 111.824C181.107 111.824 178.963 112.112 176.851 112.4C176.243 112.496 175.859 112.08 175.859 111.408V109.072C175.859 108.464 176.147 108.176 176.851 108.08C179.699 107.664 181.971 107.504 184.147 107.504C188.435 107.504 190.259 109.328 190.259 113.584C190.259 116.176 189.555 119.216 189.075 120.656C188.883 121.232 188.563 121.488 187.827 121.488ZM194.515 115.344C194.195 115.888 193.555 116.208 192.691 116.208H192.115C191.475 116.208 191.123 115.856 191.123 115.216V112.88C191.123 112.24 191.475 111.888 192.115 111.888H192.819C193.907 111.888 194.515 111.312 194.515 110.288V107.824C194.515 107.152 194.899 106.768 195.571 106.768H198.099C198.771 106.768 199.155 107.152 199.155 107.824V120.624C199.155 121.296 198.771 121.68 198.099 121.68H195.571C194.899 121.68 194.515 121.296 194.515 120.624V115.344ZM221.798 124.08C221.158 123.984 220.934 123.76 221.062 123.12C221.478 121.008 221.606 118.48 221.606 116.592C221.606 114.128 220.294 112.784 217.862 112.784C214.854 112.784 211.398 113.104 207.11 113.328C206.502 113.36 206.086 113.008 206.086 112.432V109.936C206.086 109.424 206.47 109.04 207.11 108.976C211.59 108.528 215.59 108.432 218.918 108.432C223.654 108.432 226.214 110.96 226.214 115.664C226.214 118.576 226.022 121.392 225.542 123.76C225.414 124.4 225.094 124.56 224.454 124.464L221.798 124.08ZM204.486 132.4C203.75 132.304 203.43 131.984 203.43 131.376V129.008C203.43 128.336 203.814 127.984 204.486 128.048C206.822 128.272 209.99 128.528 212.87 128.592C212.294 128.336 211.91 127.728 211.91 126.928V121.04C211.91 120.368 212.294 119.984 212.966 119.984H215.526C216.198 119.984 216.55 120.368 216.55 121.04V127.184C216.55 128.048 216.998 128.496 217.926 128.528C220.134 128.592 224.966 128.368 227.462 128.048C228.134 127.952 228.55 128.336 228.55 129.008V131.376C228.55 131.952 228.23 132.272 227.494 132.4C225.51 132.752 220.966 132.944 215.974 132.944C211.494 132.944 207.27 132.784 204.486 132.4ZM263.044 131.024C260.708 131.024 259.076 130.928 253.22 130.928C248.516 130.928 247.684 131.12 247.684 131.792C247.684 132.496 248.676 132.56 254.98 132.56C257.604 132.56 261.604 132.368 263.716 131.984C264.228 131.888 264.58 132.144 264.612 132.656L264.772 134.512C264.804 134.96 264.516 135.28 264.036 135.344C261.732 135.664 257.636 135.92 255.012 135.92C245.764 135.92 243.044 135.12 243.044 131.728C243.044 128.368 246.18 127.568 253.156 127.568C254.916 127.568 256.932 127.536 258.34 127.536C259.172 127.536 259.524 127.344 259.524 126.896C259.524 126.416 259.204 126.224 258.404 126.224C255.364 126.224 248.292 126.448 244.516 126.768C244.004 126.8 243.684 126.512 243.684 126V124.144C243.684 123.664 243.94 123.408 244.516 123.376C246.5 123.248 248.772 123.12 251.108 123.024V122.608C251.108 122.192 251.3 121.84 251.684 121.648C247.908 121.68 244.452 121.616 241.86 121.424C241.124 121.36 240.868 121.072 240.868 120.464V118.768C240.868 118.096 241.188 117.808 241.86 117.872C244.612 118.096 248.9 118.128 253.38 118.128C258.372 118.128 262.98 118.064 264.964 117.872C265.636 117.808 265.988 118.096 265.988 118.768V120.464C265.988 121.04 265.732 121.36 264.996 121.424C263.428 121.584 259.684 121.68 256.74 121.68C256.036 121.68 255.748 121.968 255.748 122.512V122.928C257.572 122.928 259.332 122.928 260.932 122.992C262.98 123.056 264.132 123.792 264.132 125.328C264.132 126.576 263.428 127.472 262.276 127.856H263.044C263.524 127.856 263.876 128.144 263.876 128.592V130.256C263.876 130.704 263.556 131.024 263.044 131.024ZM246.98 117.008C244.74 117.008 243.748 116.24 243.588 114.192L243.108 108.496C243.044 107.856 243.428 107.472 244.1 107.472H246.692C247.46 107.472 247.716 107.696 247.78 108.336L247.812 108.88H259.012L259.044 108.336C259.108 107.696 259.396 107.472 260.132 107.472H262.724C263.428 107.472 263.78 107.856 263.716 108.496L263.236 114.192C263.076 116.24 262.084 117.008 259.844 117.008H246.98ZM248.1 112.24L248.164 112.912C248.228 113.488 248.42 113.648 249.092 113.648H257.732C258.404 113.648 258.596 113.488 258.66 112.912L258.724 112.24H248.1ZM276.313 112.208C276.313 113.36 277.657 113.712 282.137 113.712C286.617 113.712 287.961 113.36 287.961 112.208C287.961 111.024 286.681 110.672 282.137 110.672C277.593 110.672 276.313 111.024 276.313 112.208ZM291.513 131.024C289.177 131.024 287.545 130.928 281.689 130.928C276.985 130.928 276.153 131.12 276.153 131.792C276.153 132.496 277.145 132.56 283.449 132.56C286.073 132.56 290.073 132.368 292.185 131.984C292.697 131.888 293.049 132.144 293.081 132.656L293.241 134.512C293.273 134.96 292.985 135.28 292.505 135.344C290.201 135.664 286.105 135.92 283.481 135.92C274.233 135.92 271.513 135.12 271.513 131.728C271.513 128.368 274.649 127.568 281.625 127.568C283.385 127.568 285.401 127.536 286.809 127.536C287.641 127.536 287.993 127.344 287.993 126.896C287.993 126.416 287.673 126.224 286.873 126.224C283.833 126.224 276.761 126.448 272.985 126.768C272.473 126.8 272.153 126.512 272.153 126V124.144C272.153 123.664 272.409 123.408 272.985 123.376C277.817 123.024 284.441 122.832 289.401 122.992C291.449 123.056 292.601 123.792 292.601 125.328C292.601 126.576 291.897 127.472 290.745 127.856H291.513C291.993 127.856 292.345 128.144 292.345 128.592V130.256C292.345 130.704 292.025 131.024 291.513 131.024ZM281.849 118.288C286.841 118.288 291.449 118.224 293.433 118.032C294.105 117.968 294.457 118.256 294.457 118.928V120.624C294.457 121.2 294.201 121.52 293.465 121.584C291.481 121.776 286.873 121.84 281.881 121.84C277.401 121.84 273.113 121.808 270.329 121.584C269.593 121.52 269.337 121.232 269.337 120.624V118.928C269.337 118.256 269.657 117.968 270.329 118.032C273.081 118.256 277.369 118.288 281.849 118.288ZM282.137 107.152C289.625 107.152 292.601 108.592 292.601 112.208C292.601 115.792 289.625 117.232 282.137 117.232C274.649 117.232 271.673 115.792 271.673 112.208C271.673 108.592 274.649 107.152 282.137 107.152ZM313.846 130.16C313.718 130.864 313.43 131.088 312.758 131.088H310.582C309.878 131.088 309.43 130.672 309.526 130.032C310.23 125.232 310.678 119.888 310.678 115.056C310.678 113.744 310.102 113.104 308.918 113.104C308.438 113.104 308.022 113.264 307.094 113.648C306.966 113.712 306.806 113.744 306.71 113.744C306.326 113.744 306.07 113.456 306.07 112.976V110.48C306.07 109.872 306.326 109.552 307.03 109.36C308.246 109.008 309.174 108.784 310.294 108.784C311.894 108.784 313.11 109.296 313.91 110.224C313.974 109.712 314.294 109.36 314.87 109.2C315.894 108.912 317.174 108.784 318.454 108.784C321.494 108.784 323.19 110.64 323.19 113.936C323.19 115.152 323.158 116.368 323.126 117.52H324.278C324.95 117.52 325.366 117.104 325.366 116.496V107.76C325.366 107.12 325.718 106.768 326.358 106.768H328.694C329.334 106.768 329.686 107.12 329.686 107.76V134.448C329.686 135.088 329.334 135.44 328.694 135.44H326.358C325.718 135.44 325.366 135.088 325.366 134.448V121.488C325.11 121.808 324.694 122 324.214 122H322.934C322.71 125.072 322.39 127.824 322.006 130.16C321.878 130.864 321.59 131.088 320.918 131.088H318.742C318.038 131.088 317.59 130.672 317.686 130.032C318.39 125.232 318.838 119.888 318.838 115.056C318.838 113.744 318.262 113.104 317.078 113.104C316.438 113.104 315.638 113.232 315.03 113.456C315.03 119.024 314.774 124.656 313.846 130.16ZM341.29 125.584C340.426 128.432 337.706 130.64 334.474 131.088C333.802 131.184 333.418 130.832 333.418 130.192V127.792C333.418 127.184 333.77 126.864 334.474 126.768C336.97 126.416 338.922 123.44 338.922 120.144V109.936C338.922 109.2 339.306 108.784 339.978 108.784H342.538C343.178 108.784 343.562 109.2 343.562 109.936V120.144C343.562 123.44 345.514 126.416 348.01 126.768C348.682 126.864 349.002 127.184 349.002 127.792V130.192C349.002 130.832 348.682 131.184 348.01 131.088C344.81 130.64 342.122 128.4 341.29 125.584ZM352.234 107.824C352.234 107.152 352.618 106.768 353.29 106.768H355.818C356.49 106.768 356.874 107.152 356.874 107.824V134.384C356.874 135.056 356.49 135.44 355.818 135.44H353.29C352.618 135.44 352.234 135.056 352.234 134.384V119.504C351.882 120.08 351.178 120.4 350.314 120.4H347.914C347.274 120.4 346.922 120.048 346.922 119.408V116.912C346.922 116.272 347.274 115.92 347.914 115.92H350.442C351.53 115.92 352.234 115.248 352.234 114.224V107.824ZM383.622 107.504C384.294 107.504 384.678 107.888 384.678 108.56V110.768C384.678 111.44 384.294 111.824 383.622 111.824H379.558V113.616C379.558 116.688 381.35 118.448 383.846 118.448C384.518 118.448 384.838 118.768 384.838 119.376V121.776C384.838 122.416 384.518 122.768 383.846 122.768C380.806 122.768 378.15 121.328 377.286 118.64C376.39 121.328 373.734 122.768 370.63 122.768C369.926 122.768 369.574 122.384 369.574 121.776V119.376C369.574 118.768 369.926 118.448 370.63 118.448C373.126 118.448 374.918 116.688 374.918 113.616V111.824H370.79C370.118 111.824 369.734 111.44 369.734 110.768V108.56C369.734 107.888 370.118 107.504 370.79 107.504H383.622ZM380.166 135.92C375.27 135.92 372.486 133.616 372.486 129.584C372.486 127.984 372.582 127.248 372.678 126.48C372.774 125.808 373.062 125.424 373.734 125.424H376.262C376.934 125.424 377.414 125.808 377.318 126.48C377.19 127.472 377.126 128.016 377.126 128.88C377.126 130.704 378.31 131.6 380.742 131.6C385.062 131.6 389.35 131.344 392.742 131.024C393.382 130.96 393.702 131.376 393.734 132.016L393.894 134.352C393.926 134.992 393.542 135.28 392.902 135.344C389.702 135.696 385.798 135.92 380.166 135.92ZM388.39 116.304C388.07 116.848 387.43 117.168 386.566 117.168H385.19C384.55 117.168 384.198 116.816 384.198 116.176V113.84C384.198 113.2 384.55 112.848 385.19 112.848H386.694C387.782 112.848 388.39 112.272 388.39 111.248V107.824C388.39 107.152 388.774 106.768 389.446 106.768H391.974C392.646 106.768 393.03 107.152 393.03 107.824V125.104C393.03 125.776 392.646 126.16 391.974 126.16H389.446C388.774 126.16 388.39 125.776 388.39 125.104V116.304ZM406.137 130.032C406.937 124.784 407.289 120.72 407.289 116.368C407.289 113.968 406.649 113.104 404.825 113.104C402.009 113.104 400.345 113.456 398.233 113.68C397.625 113.744 397.241 113.36 397.241 112.688V110.352C397.241 109.744 397.529 109.456 398.233 109.36C401.465 108.912 403.257 108.784 405.529 108.784C410.073 108.784 411.961 110.832 411.961 115.824C411.961 120.944 411.641 125.36 410.777 130.16C410.649 130.864 410.361 131.088 409.689 131.088H407.129C406.425 131.088 406.041 130.672 406.137 130.032ZM415.577 107.824C415.577 107.152 415.961 106.768 416.633 106.768H419.161C419.833 106.768 420.217 107.152 420.217 107.824V134.384C420.217 135.056 419.833 135.44 419.161 135.44H416.633C415.961 135.44 415.577 135.056 415.577 134.384V107.824ZM448.685 122.704C446.669 122.896 441.997 122.96 437.005 122.96C432.525 122.96 428.141 122.928 425.389 122.704C424.685 122.64 424.493 122.352 424.493 121.808V120.208C424.493 119.568 424.781 119.344 425.389 119.376C428.141 119.6 432.525 119.632 437.005 119.632C441.997 119.632 446.669 119.568 448.653 119.376C449.293 119.312 449.613 119.568 449.613 120.208V121.808C449.613 122.352 449.389 122.64 448.685 122.704ZM436.845 131.28C431.821 131.28 431.309 131.472 431.309 132.112C431.309 132.752 431.981 132.816 438.605 132.816C441.229 132.816 445.229 132.624 447.341 132.304C447.853 132.208 448.205 132.432 448.237 132.912L448.397 134.64C448.429 135.056 448.141 135.344 447.661 135.408C445.357 135.696 441.261 135.92 438.637 135.92C429.069 135.92 426.669 135.184 426.669 132.048C426.669 128.912 429.485 128.176 436.781 128.176C438.541 128.176 440.557 128.144 441.965 128.144C442.797 128.144 443.149 127.984 443.149 127.568C443.149 127.12 442.829 126.96 442.029 126.96C438.989 126.96 431.853 127.152 428.077 127.44C427.565 127.472 427.309 127.216 427.309 126.736V125.008C427.309 124.592 427.501 124.368 428.077 124.336C432.909 123.984 439.597 123.824 444.557 123.952C446.765 124.016 447.757 124.688 447.757 126.096C447.757 127.312 447.021 128.112 445.837 128.464H446.733C447.213 128.464 447.501 128.72 447.501 129.136V130.672C447.501 131.088 447.245 131.376 446.733 131.376C444.397 131.376 442.701 131.28 436.845 131.28ZM446.381 114.352C443.981 114.352 442.381 114.256 436.845 114.256C432.621 114.256 431.789 114.352 431.789 114.896C431.789 115.44 432.589 115.472 437.069 115.472C440.333 115.472 443.629 115.376 446.861 114.864C447.373 114.8 447.597 114.96 447.661 115.44L447.917 117.104C447.981 117.584 447.757 117.808 447.277 117.904C445.037 118.288 441.421 118.48 438.637 118.48C429.581 118.48 427.149 118 427.149 114.864C427.149 111.952 429.677 111.28 436.781 111.28C438.541 111.28 440.077 111.248 441.485 111.248C442.349 111.248 442.669 111.152 442.669 110.832C442.669 110.48 442.381 110.384 441.549 110.384C437.837 110.384 431.853 110.544 428.493 110.736C428.013 110.768 427.789 110.576 427.789 110.128V108.4C427.789 107.952 428.013 107.728 428.493 107.696C432.173 107.472 435.789 107.376 439.181 107.376C441.005 107.376 442.765 107.408 444.461 107.472C446.381 107.536 447.277 108.08 447.277 109.424C447.277 110.512 446.605 111.216 445.453 111.568H446.381C446.829 111.568 447.021 111.792 447.021 112.24V113.712C447.021 114.16 446.861 114.352 446.381 114.352ZM469.034 112.784C466.954 112.784 466.122 114.8 466.122 120.08C466.122 125.36 466.954 127.408 469.034 127.408C471.146 127.408 471.978 125.392 471.978 120.08C471.978 114.8 471.146 112.784 469.034 112.784ZM476.554 120.08C476.554 128.176 474.218 131.728 469.034 131.728C463.85 131.728 461.546 128.176 461.546 120.08C461.546 111.984 463.85 108.464 469.034 108.464C474.25 108.464 476.554 111.984 476.554 120.08ZM484.202 134.384C484.202 135.056 483.818 135.44 483.146 135.44H480.618C479.946 135.44 479.562 135.056 479.562 134.384V107.824C479.562 107.152 479.946 106.768 480.618 106.768H483.146C483.818 106.768 484.202 107.152 484.202 107.824V118.544C484.554 118 485.29 117.648 486.186 117.648H487.21C487.85 117.648 488.202 118 488.202 118.64V121.136C488.202 121.776 487.85 122.128 487.21 122.128H486.058C484.97 122.128 484.202 122.864 484.202 123.888V134.384ZM497.471 130.16C497.343 130.864 497.055 131.088 496.383 131.088H494.207C493.503 131.088 493.055 130.672 493.151 130.032C493.855 125.232 494.303 119.888 494.303 115.056C494.303 113.744 493.727 113.104 492.543 113.104C492.063 113.104 491.647 113.264 490.719 113.648C490.591 113.712 490.431 113.744 490.335 113.744C489.951 113.744 489.695 113.456 489.695 112.976V110.48C489.695 109.872 489.951 109.552 490.655 109.36C491.871 109.008 492.799 108.784 493.919 108.784C495.519 108.784 496.735 109.296 497.535 110.224C497.599 109.712 497.919 109.36 498.495 109.2C499.519 108.912 500.799 108.784 502.079 108.784C504.607 108.784 506.207 110.064 506.687 112.4H507.903C508.575 112.4 508.991 111.984 508.991 111.376V107.76C508.991 107.12 509.343 106.768 509.983 106.768H512.319C512.959 106.768 513.311 107.12 513.311 107.76V134.448C513.311 135.088 512.959 135.44 512.319 135.44H509.983C509.343 135.44 508.991 135.088 508.991 134.448V126.288C508.735 126.608 508.319 126.8 507.839 126.8H506.431C506.303 126.8 506.207 126.8 506.111 126.768C505.951 127.984 505.791 129.104 505.631 130.16C505.503 130.864 505.215 131.088 504.543 131.088H502.367C501.663 131.088 501.215 130.672 501.311 130.032C502.015 125.232 502.463 119.888 502.463 115.056C502.463 113.744 501.887 113.104 500.703 113.104C500.063 113.104 499.263 113.232 498.655 113.456C498.655 119.024 498.399 124.656 497.471 130.16ZM508.991 121.296V116.368C508.735 116.688 508.319 116.88 507.839 116.88H506.783C506.719 118.768 506.655 120.592 506.527 122.32H507.903C508.575 122.32 508.991 121.904 508.991 121.296ZM518.643 132.4C517.907 132.304 517.587 131.984 517.587 131.376V129.008C517.587 128.336 517.971 127.984 518.643 128.048C521.043 128.272 525.235 128.528 528.819 128.624C528.211 128.336 527.827 127.728 527.827 126.928V124.432H524.595C521.971 124.432 520.403 123.024 520.307 120.656L519.827 109.488C519.795 108.848 520.211 108.464 520.883 108.464H523.411C524.147 108.464 524.467 108.72 524.499 109.392L524.595 112.144H535.667L535.763 109.392C535.795 108.752 536.115 108.464 536.851 108.464H539.379C540.083 108.464 540.467 108.848 540.435 109.488L539.955 120.656C539.859 123.024 538.291 124.432 535.667 124.432H532.467V127.184C532.467 128.528 533.459 128.528 534.483 128.528C536.243 128.528 539.411 128.336 541.619 128.048C542.291 127.952 542.707 128.336 542.707 129.008V131.376C542.707 131.952 542.387 132.272 541.651 132.4C539.667 132.752 535.123 132.944 530.131 132.944C525.651 132.944 521.427 132.784 518.643 132.4ZM524.787 116.464L524.883 119.056C524.915 119.792 525.267 120.112 526.067 120.112H534.195C534.995 120.112 535.347 119.792 535.379 119.056L535.475 116.464H524.787ZM546.727 108.784H559.879C560.551 108.784 560.935 109.168 560.935 109.84V112.048C560.935 112.72 560.551 113.104 559.879 113.104H555.655V120.464C555.655 123.76 557.607 126.416 560.103 126.768C560.775 126.864 561.095 127.184 561.095 127.792V130.192C561.095 130.832 560.775 131.184 560.103 131.088C556.903 130.64 554.215 128.656 553.383 125.872C552.519 128.656 549.799 130.64 546.567 131.088C545.895 131.184 545.511 130.832 545.511 130.192V127.792C545.511 127.184 545.863 126.864 546.567 126.768C549.063 126.416 551.015 123.76 551.015 120.464V113.104H546.727C546.055 113.104 545.671 112.72 545.671 112.048V109.84C545.671 109.168 546.055 108.784 546.727 108.784ZM568.327 134.384C568.327 135.056 567.943 135.44 567.271 135.44H564.743C564.071 135.44 563.687 135.056 563.687 134.384V107.824C563.687 107.152 564.071 106.768 564.743 106.768H567.271C567.943 106.768 568.327 107.152 568.327 107.824V118.544C568.679 118 569.415 117.648 570.311 117.648H571.335C571.975 117.648 572.327 118 572.327 118.64V121.136C572.327 121.776 571.975 122.128 571.335 122.128H570.183C569.095 122.128 568.327 122.864 568.327 123.888V134.384ZM575.388 132.368C575.388 131.696 575.772 131.312 576.444 131.312H578.972C579.644 131.312 580.028 131.696 580.028 132.368V135.024C580.028 135.696 579.644 136.08 578.972 136.08H576.444C575.772 136.08 575.388 135.696 575.388 135.024V132.368ZM575.388 107.504C575.388 106.832 575.772 106.448 576.444 106.448H578.972C579.644 106.448 580.028 106.832 580.028 107.504V128.656C580.028 129.328 579.644 129.712 578.972 129.712H576.444C575.772 129.712 575.388 129.328 575.388 128.656V107.504Z" fill="#422205"/>
<path d="M240.55 79.588C240.227 79.588 240.075 79.436 240.075 79.113V77.973C240.075 77.65 240.227 77.498 240.55 77.498H248.34C248.663 77.498 248.815 77.65 248.815 77.973V79.113C248.815 79.436 248.663 79.588 248.34 79.588H245.528V84.11C245.528 86.295 246.858 88.271 248.454 88.461C248.777 88.499 248.891 88.651 248.891 88.974V90.114C248.891 90.437 248.739 90.589 248.416 90.551C246.592 90.323 244.92 88.879 244.445 87.112C243.951 88.879 242.279 90.323 240.455 90.551C240.132 90.589 239.98 90.437 239.98 90.114V88.974C239.98 88.651 240.094 88.499 240.417 88.461C242.013 88.271 243.343 86.295 243.343 84.11V79.588H240.55ZM251.152 76.814C251.152 76.491 251.342 76.301 251.646 76.301H252.843C253.147 76.301 253.337 76.491 253.337 76.814V92.622C253.337 92.945 253.147 93.135 252.843 93.135H251.646C251.342 93.135 251.152 92.945 251.152 92.622V76.814ZM267.912 91.235H269.109C269.432 91.235 269.584 91.387 269.584 91.71V92.755C269.584 93.078 269.432 93.23 269.109 93.23H259.286C258.07 93.23 257.367 92.641 257.367 91.596V87.264C257.367 86.694 257.633 86.409 258.203 86.409H267.19C268.52 86.409 269.318 87.226 269.318 88.556C269.318 89.715 268.748 90.741 267.912 91.235ZM256.588 82.704C258.336 82.799 260.996 82.894 263.219 82.894C264.416 82.894 265.461 82.894 266.392 82.875C266.677 82.134 266.848 81.203 266.848 80.576C266.848 79.265 266.24 78.714 264.815 78.714C262.383 78.714 260.483 78.809 258.127 79.056C257.823 79.094 257.652 78.942 257.652 78.6V77.536C257.652 77.232 257.785 77.08 258.127 77.042C260.179 76.833 262.611 76.719 265.043 76.719C267.722 76.719 269.033 77.802 269.033 80.025C269.033 81.013 268.9 82.039 268.691 82.818C269.147 82.799 269.546 82.761 269.907 82.723C270.23 82.685 270.42 82.856 270.42 83.179V84.205C270.42 84.528 270.287 84.68 269.945 84.718C268.577 84.87 265.879 84.908 263.219 84.889C259.742 84.87 257.69 84.832 256.55 84.699C256.227 84.661 256.075 84.509 256.075 84.186V83.16C256.075 82.837 256.265 82.685 256.588 82.704ZM265.689 91.273C266.525 91.273 267.133 90.532 267.133 89.544C267.133 88.803 266.753 88.366 266.107 88.366H259.989C259.704 88.366 259.552 88.499 259.552 88.803V90.703C259.552 91.083 259.799 91.273 260.255 91.273H265.689ZM280.079 80.766L280.155 82.647C280.174 83.065 280.364 83.236 280.801 83.236H283.176C283.613 83.236 283.803 83.065 283.822 82.647L283.898 80.766H280.079ZM280.193 85.231C278.844 85.231 278.065 84.528 278.008 83.331L277.723 77.251C277.704 76.947 277.894 76.738 278.217 76.738H279.395C279.737 76.738 279.908 76.89 279.927 77.194L279.984 78.771H283.993L284.05 77.194C284.069 76.89 284.24 76.738 284.582 76.738H285.76C286.083 76.738 286.273 76.947 286.254 77.251L285.969 83.331C285.912 84.528 285.133 85.231 283.784 85.231H280.193ZM290.586 84.832C290.586 85.155 290.396 85.345 290.092 85.345H288.895C288.591 85.345 288.401 85.155 288.401 84.832V76.814C288.401 76.491 288.591 76.301 288.895 76.301H290.092C290.396 76.301 290.586 76.491 290.586 76.814V79.911C290.719 79.664 290.985 79.531 291.365 79.531H292.486C292.809 79.531 292.961 79.683 292.961 80.006V81.051C292.961 81.374 292.809 81.526 292.486 81.526H291.251C290.795 81.526 290.586 81.716 290.586 82.134V84.832ZM282.112 92.717C282.188 91.976 282.226 90.76 282.226 89.734C282.226 89.126 281.922 88.765 281.238 88.765C280.763 88.765 280.174 88.879 279.433 89.031C279.129 89.088 278.939 88.936 278.939 88.613V87.549C278.939 87.264 279.072 87.112 279.376 87.036C279.946 86.903 280.649 86.789 281.542 86.789C283.499 86.789 284.392 87.682 284.392 89.487C284.392 90.627 284.335 91.995 284.278 92.736C284.259 93.059 284.05 93.23 283.727 93.23H282.606C282.283 93.23 282.074 93.021 282.112 92.717ZM288.629 92.717C288.705 91.976 288.743 90.665 288.743 89.639C288.743 89.031 288.344 88.67 287.66 88.67C287.128 88.67 286.501 88.784 285.76 88.936C285.456 88.993 285.266 88.841 285.266 88.518V87.454C285.266 87.169 285.399 87.017 285.703 86.941C286.273 86.808 287.109 86.694 288.059 86.694C290.016 86.694 290.909 87.587 290.909 89.392C290.909 90.532 290.852 91.995 290.795 92.736C290.776 93.059 290.567 93.23 290.244 93.23H289.123C288.8 93.23 288.591 93.021 288.629 92.717ZM302.767 84.11C302.767 88.803 301.437 90.931 298.492 90.931C295.566 90.931 294.236 88.803 294.236 84.11C294.236 79.398 295.547 77.308 298.492 77.308C301.456 77.308 302.767 79.398 302.767 84.11ZM298.492 79.398C297.048 79.398 296.421 80.766 296.421 84.11C296.421 87.454 297.048 88.841 298.492 88.841C299.955 88.841 300.582 87.473 300.582 84.11C300.582 80.766 299.955 79.398 298.492 79.398ZM305.313 76.814C305.313 76.491 305.503 76.301 305.807 76.301H307.004C307.308 76.301 307.498 76.491 307.498 76.814V92.622C307.498 92.945 307.308 93.135 307.004 93.135H305.807C305.503 93.135 305.313 92.945 305.313 92.622V76.814ZM317.708 80.291L317.784 81.83C317.803 82.229 317.974 82.381 318.392 82.381H320.843C321.261 82.381 321.432 82.229 321.451 81.83L321.527 80.291H317.708ZM323.579 92.926C322.439 93.23 321.033 93.42 319.855 93.42C317.347 93.42 316.302 92.66 316.302 90.817C316.302 89.164 317.29 88.366 319.342 88.366C319.931 88.366 320.197 88.176 320.197 87.758C320.197 87.321 319.95 87.131 319.361 87.131C318.734 87.131 318.088 87.207 317.119 87.397C316.834 87.454 316.682 87.321 316.682 87.017V86.01C316.682 85.725 316.777 85.611 317.1 85.573C318.069 85.44 319.171 85.364 320.045 85.364C321.147 85.364 322.268 85.516 322.268 86.884C322.268 87.663 321.812 88.29 321.071 88.556H321.698C321.983 88.556 322.116 88.689 322.116 88.974V89.848C322.116 90.133 321.983 90.266 321.698 90.266C321.071 90.266 319.969 90.209 319.304 90.209C318.696 90.209 318.392 90.437 318.392 90.893C318.392 91.425 318.734 91.615 319.703 91.615C320.938 91.615 322.116 91.463 323.104 91.178C323.389 91.102 323.56 91.197 323.636 91.482L323.883 92.413C323.959 92.698 323.864 92.85 323.579 92.926ZM326.353 88.442C326.353 87.72 326.163 87.359 325.289 87.359C324.947 87.359 324.32 87.473 323.579 87.606C323.275 87.663 323.104 87.511 323.104 87.169V86.124C323.104 85.82 323.237 85.687 323.579 85.611C324.339 85.44 324.985 85.364 325.612 85.364C327.455 85.364 328.538 86.2 328.538 88.043C328.538 89.753 328.481 91.52 328.348 92.755C328.31 93.078 328.139 93.23 327.835 93.23H326.676C326.353 93.23 326.125 93.04 326.163 92.736C326.277 91.672 326.353 89.715 326.353 88.442ZM317.746 84.281C316.435 84.281 315.694 83.616 315.637 82.457L315.352 77.251C315.333 76.947 315.523 76.738 315.846 76.738H317.024C317.366 76.738 317.537 76.89 317.556 77.194L317.613 78.391H321.622L321.679 77.194C321.698 76.89 321.869 76.738 322.211 76.738H323.389C323.712 76.738 323.902 76.947 323.883 77.251L323.598 82.457C323.541 83.616 322.8 84.281 321.489 84.281H317.746ZM328.215 83.882C328.215 84.205 328.025 84.395 327.721 84.395H326.524C326.22 84.395 326.03 84.205 326.03 83.882V76.814C326.03 76.491 326.22 76.301 326.524 76.301H327.721C328.025 76.301 328.215 76.491 328.215 76.814V79.436C328.348 79.189 328.614 79.056 328.994 79.056H330.115C330.438 79.056 330.59 79.208 330.59 79.531V80.576C330.59 80.899 330.438 81.051 330.115 81.051H328.88C328.424 81.051 328.215 81.241 328.215 81.659V83.882ZM333.518 88.537C333.575 88.214 333.765 88.043 334.088 88.043H335.247C335.57 88.043 335.76 88.252 335.703 88.556C335.627 88.955 335.57 89.411 335.57 89.886C335.57 90.931 336.14 91.425 337.375 91.425C340.738 91.425 342.904 91.311 345.146 91.102C345.45 91.064 345.621 91.216 345.64 91.558L345.716 92.603C345.735 92.888 345.583 93.04 345.26 93.078C343.379 93.268 340.567 93.42 337.432 93.42C334.848 93.42 333.385 92.166 333.385 89.981C333.385 89.411 333.442 88.917 333.518 88.537ZM332.606 84.794C334.354 84.889 337.014 84.984 339.237 84.984C342.334 84.984 344.519 84.965 345.925 84.813C346.248 84.775 346.438 84.946 346.438 85.269V86.295C346.438 86.618 346.305 86.77 345.963 86.808C344.595 86.96 341.897 86.998 339.237 86.979C335.76 86.96 333.708 86.922 332.568 86.789C332.245 86.751 332.093 86.599 332.093 86.276V85.25C332.093 84.927 332.283 84.775 332.606 84.794ZM333.48 80.158C333.48 77.669 335.285 76.529 339.408 76.529C343.531 76.529 345.336 77.669 345.336 80.158C345.336 82.647 343.531 83.787 339.408 83.787C335.266 83.787 333.48 82.666 333.48 80.158ZM339.408 81.83C342.163 81.83 343.151 81.336 343.151 80.158C343.151 78.961 342.182 78.486 339.408 78.486C336.634 78.486 335.665 78.961 335.665 80.158C335.665 81.336 336.653 81.83 339.408 81.83ZM358.967 84.718C359.347 83.445 359.689 81.298 359.689 80.31C359.689 79.265 359.195 78.847 358.226 78.847C356.174 78.847 355.471 79.018 354.217 79.189C353.913 79.227 353.723 79.018 353.723 78.695V77.593C353.723 77.289 353.875 77.118 354.198 77.08C355.661 76.871 356.82 76.738 358.321 76.738C360.867 76.738 361.893 77.821 361.893 80.348C361.893 81.393 361.513 83.483 361.19 84.775C361.114 85.098 360.981 85.231 360.658 85.231H359.442C359.1 85.231 358.872 85.003 358.967 84.718ZM364.8 76.814C364.8 76.491 364.99 76.301 365.294 76.301H366.491C366.795 76.301 366.985 76.491 366.985 76.814V86.162C366.985 86.485 366.795 86.675 366.491 86.675H365.294C364.99 86.675 364.8 86.485 364.8 86.162V81.336C364.667 81.583 364.401 81.716 364.021 81.716H363.166C362.843 81.716 362.691 81.564 362.691 81.241V80.196C362.691 79.873 362.843 79.721 363.166 79.721H364.135C364.591 79.721 364.8 79.531 364.8 79.113V76.814ZM355.452 93.249C355.11 93.23 354.977 93.097 354.977 92.774V91.691C354.977 91.387 355.11 91.254 355.452 91.254C357.96 91.254 360.05 89.753 360.05 87.929V87.207C360.05 86.884 360.24 86.694 360.544 86.694H361.741C362.045 86.694 362.235 86.884 362.235 87.207V87.929C362.235 89.753 364.287 91.254 366.795 91.254C367.137 91.254 367.27 91.387 367.27 91.691V92.774C367.27 93.097 367.137 93.23 366.795 93.249C364.572 93.363 362.026 92.223 361.114 90.418C360.202 92.242 357.675 93.382 355.452 93.249ZM380.443 83.768C380.823 82.59 381.165 81.013 381.165 80.12C381.165 79.17 380.766 78.847 379.892 78.847C377.745 78.847 376.757 79.018 375.503 79.189C375.199 79.227 375.009 79.018 375.009 78.695V77.593C375.009 77.289 375.161 77.118 375.484 77.08C376.947 76.871 378.391 76.738 379.987 76.738C382.438 76.738 383.369 77.669 383.369 80.101C383.369 81.355 382.913 82.951 382.666 83.825C382.571 84.148 382.457 84.281 382.134 84.281H380.918C380.576 84.281 380.348 84.053 380.443 83.768ZM376.852 85.478H387.397C387.701 85.478 387.834 85.611 387.834 85.915V86.846C387.834 87.15 387.701 87.283 387.397 87.283H376.852C376.548 87.283 376.415 87.15 376.415 86.846V85.915C376.415 85.611 376.548 85.478 376.852 85.478ZM387.701 83.882C387.701 84.205 387.511 84.395 387.207 84.395H386.01C385.706 84.395 385.516 84.205 385.516 83.882V76.814C385.516 76.491 385.706 76.301 386.01 76.301H387.207C387.511 76.301 387.701 76.491 387.701 76.814V79.436C387.834 79.189 388.1 79.056 388.48 79.056H389.601C389.924 79.056 390.076 79.208 390.076 79.531V80.576C390.076 80.899 389.924 81.051 389.601 81.051H388.366C387.91 81.051 387.701 81.241 387.701 81.659V83.882ZM387.454 88.328C387.739 88.347 387.834 88.461 387.834 88.746V89.696C387.834 89.981 387.701 90.114 387.416 90.095C385.421 89.962 383.502 89.981 382.058 89.981C379.246 89.981 378.448 90.152 378.448 90.76C378.448 91.387 379.246 91.615 382.21 91.615C384.699 91.615 386.371 91.539 387.682 91.368C387.967 91.33 388.138 91.463 388.157 91.748L388.214 92.717C388.233 93.002 388.1 93.135 387.796 93.173C386.428 93.306 384.87 93.42 382.153 93.42C377.669 93.42 376.263 92.793 376.263 90.76C376.263 88.879 377.821 88.214 382.21 88.214C384.357 88.214 386.2 88.252 387.454 88.328ZM395.608 79.398C394.164 79.398 393.537 80.766 393.537 84.11C393.537 87.454 394.164 88.841 395.608 88.841C397.071 88.841 397.698 87.473 397.698 84.11C397.698 80.766 397.071 79.398 395.608 79.398ZM399.883 84.11C399.883 88.803 398.553 90.931 395.608 90.931C392.682 90.931 391.352 88.803 391.352 84.11C391.352 79.398 392.663 77.308 395.608 77.308C398.572 77.308 399.883 79.398 399.883 84.11ZM404.234 92.622C404.234 92.945 404.044 93.135 403.74 93.135H402.543C402.239 93.135 402.049 92.945 402.049 92.622V76.814C402.049 76.491 402.239 76.301 402.543 76.301H403.74C404.044 76.301 404.234 76.491 404.234 76.814V83.331C404.367 83.084 404.633 82.951 405.013 82.951H406.134C406.457 82.951 406.609 83.103 406.609 83.426V84.566C406.609 84.889 406.457 85.041 406.134 85.041H404.899C404.443 85.041 404.234 85.231 404.234 85.649V92.622ZM408.53 91.292C408.53 90.969 408.72 90.779 409.024 90.779H410.221C410.525 90.779 410.715 90.969 410.715 91.292V93.002C410.715 93.325 410.525 93.515 410.221 93.515H409.024C408.72 93.515 408.53 93.325 408.53 93.002V91.292ZM408.53 76.624C408.53 76.301 408.72 76.111 409.024 76.111H410.221C410.525 76.111 410.715 76.301 410.715 76.624V89.316C410.715 89.639 410.525 89.829 410.221 89.829H409.024C408.72 89.829 408.53 89.639 408.53 89.316V76.624Z" fill="#422205"/>
</svg>
