<svg width="720" height="315" viewBox="0 0 720 315" fill="none" xmlns="http://www.w3.org/2000/svg">
<rect x="5" y="5" width="710" height="305" rx="25" fill="#CDF0FF" stroke="#DEDEDE" stroke-width="10"/>
<path fill-rule="evenodd" clip-rule="evenodd" d="M339.092 85.5702C326.481 68.2543 306.049 57 282.988 57C244.681 57 213.627 88.054 213.627 126.361L213.627 126.555C210.772 126.197 207.864 126.012 204.913 126.012C169.615 126.012 140.475 152.379 136.115 186.492C115.648 189.732 100 207.456 100 228.834C100 252.511 119.194 271.705 142.871 271.705C155.409 271.705 166.69 266.323 174.53 257.743C183.705 262.221 194.015 264.734 204.913 264.734C226.842 264.734 246.394 254.558 259.104 238.67C271.283 249.261 287.191 255.672 304.598 255.672C304.951 255.672 305.305 255.67 305.657 255.664C327.234 285.645 362.433 305.166 402.191 305.166C430.033 305.166 455.639 295.593 475.897 279.558C488.833 287.826 504.206 292.618 520.697 292.618C566.704 292.618 604 255.322 604 209.315C604 163.308 566.704 126.012 520.697 126.012C515.488 126.012 510.39 126.491 505.445 127.406C484.97 91.5923 446.399 67.4564 402.191 67.4564C379.009 67.4564 357.377 74.0931 339.092 85.5702Z" fill="white" fill-opacity="0.6"/>
<mask id="mask0_293_31" style="mask-type:alpha" maskUnits="userSpaceOnUse" x="10" y="10" width="700" height="295">
<rect x="10" y="10" width="700" height="295" rx="20" fill="#CDF0FF"/>
</mask>
<g mask="url(#mask0_293_31)">
<path fill-rule="evenodd" clip-rule="evenodd" d="M939 427.667V539C939 561.091 921.091 579 899 579H-189C-211.091 579 -229 561.091 -229 539V428.734C-90.4463 280.548 119.937 186 355.5 186C590.497 186 800.435 280.095 939 427.667Z" fill="#E2F5DF"/>
</g>
<rect x="355" y="10" width="10" height="295" fill="#DEDEDE"/>
<rect x="178" y="10" width="3" height="295" fill="#DEDEDE"/>
<rect x="539" y="10" width="3" height="295" fill="#DEDEDE"/>
<rect x="710" y="156" width="3.00003" height="700" transform="rotate(90 710 156)" fill="#DEDEDE"/>
</svg>
