<svg width="470" height="108" viewBox="0 0 470 108" fill="none" xmlns="http://www.w3.org/2000/svg">
<g filter="url(#filter0_d_286_52)">
<rect x="4" width="462" height="100" rx="20" fill="#11B25B"/>
<path d="M88.9598 32.49C89.9678 32.658 90.2618 32.994 90.2618 33.834V36.942C90.2618 37.866 89.7998 38.328 88.9598 38.202C87.4898 37.992 85.6418 37.824 83.3738 37.824C78.7958 37.824 77.0738 40.218 77.0738 47.022C77.0738 53.826 78.7958 56.178 83.3738 56.178C84.8018 56.178 87.2798 55.59 89.4218 54.75C89.5898 54.666 89.7578 54.624 89.9258 54.624C90.3878 54.624 90.6818 55.002 90.8918 55.716L91.7318 58.656C91.9418 59.454 91.6898 59.916 90.6818 60.294C88.2878 61.218 85.1798 61.848 83.2058 61.848C74.7638 61.848 70.9838 57.774 70.9838 47.022C70.9838 36.27 74.7638 32.154 83.2058 32.154C85.9358 32.154 87.6998 32.28 88.9598 32.49ZM100.51 65.754C100.51 66.636 100.006 67.14 99.1238 67.14H95.8058C94.9238 67.14 94.4198 66.636 94.4198 65.754V30.894C94.4198 30.012 94.9238 29.508 95.8058 29.508H99.1238C100.006 29.508 100.51 30.012 100.51 30.894V44.964C100.972 44.25 101.938 43.788 103.114 43.788H104.458C105.298 43.788 105.76 44.25 105.76 45.09V48.366C105.76 49.206 105.298 49.668 104.458 49.668H102.946C101.518 49.668 100.51 50.634 100.51 51.978V65.754ZM138.757 67.014C134.137 67.476 127.501 67.77 120.067 67.77C114.565 67.77 111.499 65.418 111.499 60.462C111.499 59.244 111.625 58.362 111.751 57.732C111.919 56.85 112.381 56.514 113.263 56.514H116.707C117.631 56.514 117.967 57.018 117.841 57.816C117.757 58.32 117.589 59.538 117.589 60.042C117.589 61.89 118.597 62.52 120.697 62.52C126.535 62.52 133.507 62.184 138.379 61.764C139.219 61.68 139.723 62.016 139.807 62.856L140.017 65.628C140.101 66.468 139.597 66.93 138.757 67.014ZM125.065 49.878C131.617 49.878 137.665 49.794 140.269 49.542C141.151 49.458 141.613 49.836 141.613 50.718V52.944C141.613 53.7 141.277 54.12 140.311 54.204C137.707 54.456 131.659 54.54 125.107 54.54C119.227 54.54 113.599 54.498 109.945 54.204C108.979 54.12 108.643 53.742 108.643 52.944V50.718C108.643 49.836 109.063 49.458 109.945 49.542C113.557 49.836 119.185 49.878 125.065 49.878ZM137.245 41.226C134.179 41.226 132.121 41.1 124.855 41.1C119.311 41.1 118.219 41.352 118.219 42.234C118.219 43.2 119.521 43.284 127.165 43.284C131.113 43.284 135.481 42.906 137.959 42.528C138.757 42.402 139.093 42.654 139.177 43.41L139.387 45.888C139.429 46.602 139.135 46.938 138.421 47.064C135.565 47.568 130.861 47.82 127.207 47.82C115.321 47.82 112.129 46.476 112.129 42.192C112.129 38.202 115.447 36.606 124.771 36.606C127.081 36.606 129.097 36.564 130.945 36.564C132.079 36.564 132.499 36.312 132.499 35.724C132.499 35.094 132.121 34.842 131.029 34.842C126.157 34.842 118.345 35.052 114.019 35.304C113.305 35.346 112.969 35.052 112.969 34.296V31.818C112.969 31.104 113.305 30.768 114.019 30.726C118.765 30.474 123.469 30.348 127.753 30.348C130.105 30.348 132.289 30.39 134.347 30.432C137.161 30.516 138.547 31.734 138.547 33.666C138.547 35.262 137.665 36.48 136.111 36.984H137.245C137.917 36.984 138.211 37.32 138.211 37.992V40.26C138.211 40.932 137.959 41.226 137.245 41.226ZM163.702 54.204C163.702 55.212 164.374 55.758 165.592 55.758H166.558C169.33 55.758 171.01 52.314 171.01 46.686C171.01 40.302 169.834 37.824 166.768 37.824H165.004C164.164 37.824 163.702 38.286 163.702 39.126V54.204ZM163.156 61.428C159.628 61.428 157.696 59.748 157.696 56.724V34.59C157.696 32.994 158.494 32.154 160.09 32.154H168.616C174.622 32.154 176.974 35.136 176.974 42.822C176.974 48.702 175.168 53.952 172.354 56.178H175.42C176.26 56.178 176.722 56.64 176.722 57.48V60.126C176.722 60.966 176.26 61.428 175.42 61.428H163.156ZM181.762 30.894C181.762 30.012 182.266 29.508 183.148 29.508H186.466C187.348 29.508 187.852 30.012 187.852 30.894V65.754C187.852 66.636 187.348 67.14 186.466 67.14H183.148C182.266 67.14 181.762 66.636 181.762 65.754V30.894ZM217.445 31.734V30.894C217.445 30.012 217.949 29.508 218.831 29.508H222.149C223.031 29.508 223.535 30.012 223.535 30.894V54.414C223.535 55.296 223.031 55.8 222.149 55.8H218.831C217.949 55.8 217.445 55.296 217.445 54.414V45.972C217.025 46.602 216.311 46.938 215.219 46.938H213.203V49.206C213.203 50.046 212.783 50.508 211.901 50.508C207.785 50.508 204.215 47.82 203.081 44.544C201.905 47.862 198.335 50.508 194.135 50.508C193.211 50.508 192.749 50.004 192.749 49.206V46.056C192.749 45.258 193.211 44.838 194.135 44.838C197.537 44.838 199.973 41.688 199.973 37.866V31.986C199.973 31.02 200.477 30.474 201.359 30.474H204.719C205.559 30.474 206.063 31.02 206.063 31.986V37.866C206.063 41.688 208.499 44.838 211.943 44.838V42.78C211.943 41.94 212.405 41.478 213.245 41.478H215.807C216.983 41.478 217.445 41.016 217.445 39.798V37.908C217.025 38.538 216.311 38.874 215.219 38.874H213.245C212.405 38.874 211.943 38.412 211.943 37.572V34.716C211.943 33.876 212.405 33.414 213.245 33.414H215.807C217.109 33.414 217.445 33.036 217.445 31.734ZM206.651 67.77C200.225 67.77 196.571 64.746 196.571 59.454C196.571 57.354 196.697 56.388 196.823 55.38C196.949 54.498 197.327 53.994 198.209 53.994H201.527C202.409 53.994 203.039 54.498 202.913 55.38C202.745 56.682 202.661 57.396 202.661 58.53C202.661 60.924 204.215 62.1 207.407 62.1C213.077 62.1 218.705 61.764 223.157 61.344C223.997 61.26 224.417 61.806 224.459 62.646L224.669 65.712C224.711 66.552 224.207 66.93 223.367 67.014C219.167 67.476 214.043 67.77 206.651 67.77ZM260.448 59.286V64.284C260.448 65.166 259.986 65.67 259.104 65.67H255.744C254.862 65.67 254.358 65.166 254.358 64.284V59.58C254.358 58.698 254.862 57.9 255.618 57.564C250.41 57.522 245.58 57.312 242.304 56.85C241.338 56.724 240.918 56.304 240.918 55.506V52.398C240.918 51.516 241.422 51.012 242.304 51.138C245.916 51.6 251.46 51.852 257.34 51.852C263.892 51.852 269.856 51.558 272.46 51.138C273.342 50.97 273.888 51.516 273.888 52.398V55.506C273.888 56.262 273.468 56.682 272.502 56.85C270.486 57.186 266.538 57.522 262.254 57.522C261.036 57.522 260.448 58.152 260.448 59.286ZM257.592 41.814C255.954 45.594 251.712 48.408 246.084 48.408C245.118 48.408 243.984 48.408 243.984 47.106V43.956C243.984 43.158 244.446 42.738 245.37 42.738C251.334 42.738 254.568 39.378 254.568 34.716V31.818C254.568 30.936 255.072 30.432 255.954 30.432H259.272C260.154 30.432 260.658 30.936 260.658 31.818V34.716C260.658 39.378 263.85 42.738 269.772 42.738C270.696 42.738 271.158 43.158 271.158 43.956V47.106C271.158 48.408 270.024 48.408 269.058 48.408C263.43 48.408 259.188 45.594 257.592 41.814ZM297.436 52.272C307.222 52.272 312.43 54.54 312.43 60.042C312.43 65.544 307.222 67.812 297.436 67.812C287.65 67.812 282.442 65.544 282.442 60.042C282.442 54.54 287.65 52.272 297.436 52.272ZM305.92 30.81C305.92 29.928 306.34 29.508 307.222 29.508H310.288C311.17 29.508 311.59 29.928 311.59 30.81V49.458C311.59 50.34 311.17 50.76 310.288 50.76H307.222C306.34 50.76 305.92 50.34 305.92 49.458V42.36H304.408C303.484 42.36 302.77 43.032 302.77 43.956V48.618C302.77 49.5 302.35 49.92 301.468 49.92H298.402C297.52 49.92 297.1 49.5 297.1 48.618V31.23C297.1 30.348 297.52 29.928 298.402 29.928H301.468C302.35 29.928 302.77 30.348 302.77 31.23V37.446C303.106 36.984 303.694 36.69 304.408 36.69H305.92V30.81ZM277.78 43.788C277.78 39.546 280.426 37.53 285.802 37.53C291.178 37.53 293.824 39.546 293.824 43.788C293.824 48.03 291.178 50.046 285.802 50.046C280.426 50.046 277.78 48.03 277.78 43.788ZM288.574 28.962V29.97C288.574 30.516 288.952 30.894 289.708 30.894H293.824C294.706 30.894 295.126 31.314 295.126 32.196V34.716C295.126 35.598 294.706 36.018 293.824 36.018H277.822C276.94 36.018 276.52 35.598 276.52 34.716V32.196C276.52 31.314 276.94 30.894 277.822 30.894H283.744C283.324 30.642 283.114 30.264 283.114 29.676V28.962C283.114 28.08 283.534 27.66 284.416 27.66H287.272C288.154 27.66 288.574 28.08 288.574 28.962ZM288.532 60.042C288.532 61.848 290.842 62.562 297.436 62.562C304.03 62.562 306.34 61.848 306.34 60.042C306.34 58.236 304.03 57.522 297.436 57.522C290.842 57.522 288.532 58.236 288.532 60.042ZM283.324 43.788C283.324 44.796 284.122 45.3 285.802 45.3C287.482 45.3 288.28 44.796 288.28 43.788C288.28 42.78 287.482 42.276 285.802 42.276C284.122 42.276 283.324 42.78 283.324 43.788ZM326.617 55.842C328.885 55.842 330.187 54.162 330.187 51.222C330.187 48.282 328.885 46.602 326.617 46.602C324.349 46.602 323.047 48.282 323.047 51.222C323.047 54.162 324.349 55.842 326.617 55.842ZM326.617 41.016C332.665 41.016 336.193 44.796 336.193 51.222C336.193 57.648 332.665 61.428 326.617 61.428C320.569 61.428 317.041 57.648 317.041 51.222C317.041 44.796 320.569 41.016 326.617 41.016ZM346.357 65.754C346.357 66.636 345.853 67.14 344.971 67.14H341.653C340.771 67.14 340.267 66.636 340.267 65.754V30.894C340.267 30.012 340.771 29.508 341.653 29.508H344.971C345.853 29.508 346.357 30.012 346.357 30.894V44.964C346.819 44.25 347.785 43.788 348.961 43.788H350.305C351.145 43.788 351.607 44.25 351.607 45.09V48.366C351.607 49.206 351.145 49.668 350.305 49.668H348.793C347.365 49.668 346.357 50.634 346.357 51.978V65.754ZM329.725 32.07C329.725 32.616 330.103 32.994 330.859 32.994H336.109C336.991 32.994 337.495 33.498 337.495 34.38V37.278C337.495 38.16 336.991 38.664 336.109 38.664H317.167C316.285 38.664 315.781 38.16 315.781 37.278V34.38C315.781 33.498 316.285 32.994 317.167 32.994H324.265C323.845 32.742 323.635 32.364 323.635 31.776V29.802C323.635 28.92 324.055 28.5 324.937 28.5H328.423C329.305 28.5 329.725 28.92 329.725 29.802V32.07ZM366.083 60.042C367.133 53.154 367.595 47.82 367.595 42.108C367.595 38.958 366.755 37.824 364.361 37.824C360.665 37.824 358.481 38.286 355.709 38.58C354.911 38.664 354.407 38.16 354.407 37.278V34.212C354.407 33.414 354.785 33.036 355.709 32.91C359.951 32.322 362.303 32.154 365.285 32.154C371.249 32.154 373.727 34.842 373.727 41.394C373.727 48.114 373.307 53.91 372.173 60.21C372.005 61.134 371.627 61.428 370.745 61.428H367.385C366.461 61.428 365.957 60.882 366.083 60.042ZM378.473 30.894C378.473 30.012 378.977 29.508 379.859 29.508H383.177C384.059 29.508 384.563 30.012 384.563 30.894V65.754C384.563 66.636 384.059 67.14 383.177 67.14H379.859C378.977 67.14 378.473 66.636 378.473 65.754V30.894Z" fill="white"/>
</g>
<defs>
<filter id="filter0_d_286_52" x="0" y="0" width="470" height="108" filterUnits="userSpaceOnUse" color-interpolation-filters="sRGB">
<feFlood flood-opacity="0" result="BackgroundImageFix"/>
<feColorMatrix in="SourceAlpha" type="matrix" values="0 0 0 0 0 0 0 0 0 0 0 0 0 0 0 0 0 0 127 0" result="hardAlpha"/>
<feOffset dy="4"/>
<feGaussianBlur stdDeviation="2"/>
<feComposite in2="hardAlpha" operator="out"/>
<feColorMatrix type="matrix" values="0 0 0 0 0 0 0 0 0 0 0 0 0 0 0 0 0 0 0.25 0"/>
<feBlend mode="normal" in2="BackgroundImageFix" result="effect1_dropShadow_286_52"/>
<feBlend mode="normal" in="SourceGraphic" in2="effect1_dropShadow_286_52" result="shape"/>
</filter>
</defs>
</svg>
