<svg width="153" height="177" viewBox="0 0 153 177" fill="none" xmlns="http://www.w3.org/2000/svg">
<path d="M75.8965 95.5646L147.043 61.6143V137.503L75.8965 171.454V95.5646Z" fill="#FFD18D"/>
<path d="M75.9661 31.4088L147.292 61.6146L76.146 95.8147L4.99995 61.6141L75.9661 31.4088Z" fill="#FFE9C0"/>
<path d="M100.361 41.8928L118.334 49.3819L48.9357 82.3335L28.3959 72.5969L100.361 41.8928Z" fill="white" fill-opacity="0.4"/>
<path d="M76.146 95.5646L4.99998 61.6143V137.503L76.146 171.454V95.5646Z" fill="#FFDFA1"/>
<path d="M48.6861 82.3338L28.7153 72.8477V105.55L48.6861 115.036V82.3338Z" fill="#FFF2D9"/>
<mask id="path-6-outside-1_357_99" maskUnits="userSpaceOnUse" x="0" y="26.4541" width="153" height="151" fill="black">
<rect fill="white" y="26.4541" width="153" height="151"/>
<path fill-rule="evenodd" clip-rule="evenodd" d="M75.9661 31.4541L147.292 61.6599L147.042 61.7799V137.548L76.146 171.38V171.499L76.0212 171.439L75.8964 171.499V171.38L5 137.548L5.00001 61.6593L75.9661 31.4541Z"/>
</mask>
<path d="M147.292 61.6599L149.458 66.1663C151.229 65.315 152.337 63.5055 152.291 61.5412C152.244 59.5769 151.051 57.822 149.242 57.0558L147.292 61.6599ZM75.9661 31.4541L77.916 26.8499C76.6668 26.3209 75.2562 26.3222 74.008 26.8535L75.9661 31.4541ZM147.042 61.7799L144.876 57.2735C143.144 58.1062 142.042 59.858 142.042 61.7799H147.042ZM147.042 137.548L149.196 142.061C150.935 141.231 152.042 139.475 152.042 137.548H147.042ZM76.146 171.38L73.9927 166.867C72.2535 167.697 71.146 169.453 71.146 171.38H76.146ZM76.146 171.499L73.9929 176.011C75.542 176.751 77.3621 176.643 78.8138 175.728C80.2655 174.812 81.146 173.215 81.146 171.499H76.146ZM76.0212 171.439L78.1744 166.927C76.8125 166.277 75.2299 166.277 73.868 166.927L76.0212 171.439ZM75.8964 171.499H70.8964C70.8964 173.215 71.7769 174.812 73.2286 175.728C74.6803 176.643 76.5004 176.751 78.0495 176.011L75.8964 171.499ZM75.8964 171.38H80.8964C80.8964 169.453 79.7889 167.697 78.0497 166.867L75.8964 171.38ZM5 137.548H0C-4.76837e-07 139.475 1.10745 141.231 2.84665 142.061L5 137.548ZM5.00001 61.6593L3.04186 57.0587C1.19733 57.8438 1.33514e-05 59.6547 1.28746e-05 61.6593H5.00001ZM149.242 57.0558L77.916 26.8499L74.0163 36.0583L145.342 66.2641L149.242 57.0558ZM149.209 66.2863L149.458 66.1663L145.126 57.1535L144.876 57.2735L149.209 66.2863ZM152.042 137.548V61.7799H142.042V137.548H152.042ZM78.2994 175.892L149.196 142.061L144.889 133.036L73.9927 166.867L78.2994 175.892ZM81.146 171.499V171.38H71.146V171.499H81.146ZM73.868 175.952L73.9929 176.011L78.2992 166.986L78.1744 166.927L73.868 175.952ZM78.0495 176.011L78.1744 175.952L73.868 166.927L73.7432 166.986L78.0495 176.011ZM70.8964 171.38V171.499H80.8964V171.38H70.8964ZM2.84665 142.061L73.743 175.892L78.0497 166.867L7.15335 133.036L2.84665 142.061ZM1.28746e-05 61.6593L0 137.548H10L10 61.6593L1.28746e-05 61.6593ZM74.008 26.8535L3.04186 57.0587L6.95817 66.2599L77.9243 36.0547L74.008 26.8535Z" fill="white" mask="url(#path-6-outside-1_357_99)"/>
</svg>
