<svg width="92" height="164" viewBox="0 0 92 164" fill="none" xmlns="http://www.w3.org/2000/svg">
<path d="M9.27237 26.0564C10.9813 24.3475 11.612 19.6479 11.7137 17.5117H79.1561C78.5457 19.1393 78.0575 23.1268 80.9871 26.0564C83.9167 28.9861 85.6663 37.4494 86.1749 41.3149C85.4629 68.8818 83.9777 126.64 83.7336 137.138C83.4895 147.636 77.7319 152.295 74.8837 153.312C70.2044 155.041 58.0384 158.5 46.8082 158.5C32.7704 158.5 29.1084 156.669 17.8171 153.312C8.7841 150.626 6.52584 141.41 6.52584 137.138C6.01723 107.638 5 47.1741 5 41.3149C5 33.9908 7.13618 28.1926 9.27237 26.0564Z" fill="#FF4C4C"/>
<ellipse cx="45.2822" cy="16.9016" rx="34.1789" ry="11.9016" fill="#D9D9D9"/>
<ellipse cx="45.8926" cy="16.9016" rx="30.5169" ry="10.0706" fill="#BFBFBF"/>
<path d="M82.5128 53.522C63.5923 70.3063 27.3789 84.9544 10.4929 91.0578V132.561C26.1176 134.27 64.1009 113.844 80.3766 102.349C80.0714 96.5508 80.3766 87.0906 82.5128 53.522Z" fill="white" fill-opacity="0.4"/>
<mask id="path-5-outside-1_357_112" maskUnits="userSpaceOnUse" x="0" y="0" width="92" height="164" fill="black">
<rect fill="white" width="92" height="164"/>
<path fill-rule="evenodd" clip-rule="evenodd" d="M78.7472 19.3333C79.2153 18.5483 79.4612 17.735 79.4612 16.9016C79.4612 10.3285 64.1588 5 45.2823 5C26.4058 5 11.1034 10.3285 11.1034 16.9016C11.1034 17.5938 11.2731 18.2722 11.5988 18.932C11.3405 21.2907 10.6639 24.6651 9.27237 26.0567C7.13618 28.1928 5 33.9911 5 41.3151C5 47.1744 6.01723 107.639 6.52584 137.138C6.52584 141.411 8.7841 150.627 17.8171 153.312C19.4023 153.783 20.8371 154.225 22.1713 154.635C30.3411 157.147 34.7411 158.5 46.8082 158.5C58.0384 158.5 70.2044 155.041 74.8837 153.312C77.7319 152.295 83.4895 147.636 83.7336 137.138C83.9777 126.64 85.4629 68.882 86.1749 41.3151C85.6663 37.4496 83.9167 28.9863 80.9871 26.0567C78.8683 23.9379 78.5373 21.2659 78.7472 19.3333Z"/>
</mask>
<path d="M78.7472 19.3333L74.4526 16.7728L73.8942 17.7094L73.7765 18.7934L78.7472 19.3333ZM11.5988 18.932L16.5691 19.4762L16.7278 18.0265L16.0823 16.7188L11.5988 18.932ZM9.27237 26.0567L5.73683 22.5211L5.73683 22.5211L9.27237 26.0567ZM6.52584 137.138H11.5258V137.095L11.5251 137.052L6.52584 137.138ZM17.8171 153.312L19.242 148.519H19.2419L17.8171 153.312ZM22.1713 154.635L20.7017 159.414H20.7018L22.1713 154.635ZM74.8837 153.312L73.202 148.603L73.1762 148.613L73.1504 148.622L74.8837 153.312ZM83.7336 137.138L78.7349 137.022V137.022L83.7336 137.138ZM86.1749 41.3151L91.1733 41.4442L91.1834 41.0519L91.1322 40.6628L86.1749 41.3151ZM80.9871 26.0567L77.4515 29.5922L77.4515 29.5922L80.9871 26.0567ZM74.4612 16.9016C74.4612 16.8631 74.4641 16.8261 74.4691 16.7924C74.4741 16.7589 74.4803 16.7334 74.4851 16.7172C74.495 16.684 74.4947 16.7022 74.4526 16.7728L83.0418 21.8939C83.9027 20.45 84.4612 18.7621 84.4612 16.9016H74.4612ZM45.2823 10C54.3139 10 62.2772 11.2825 67.8062 13.2078C70.5941 14.1786 72.4934 15.2202 73.5973 16.1291C74.7354 17.0661 74.4612 17.3537 74.4612 16.9016H84.4612C84.4612 13.1629 82.2742 10.3196 79.9532 8.40881C77.5981 6.46991 74.4919 4.94695 71.0947 3.76398C64.2534 1.38174 55.1272 0 45.2823 0V10ZM16.1034 16.9016C16.1034 17.3537 15.8292 17.0661 16.9673 16.1291C18.0712 15.2202 19.9705 14.1786 22.7584 13.2078C28.2874 11.2825 36.2507 10 45.2823 10V0C35.4374 0 26.3112 1.38174 19.4699 3.76398C16.0727 4.94695 12.9665 6.46991 10.6114 8.40881C8.29039 10.3196 6.10338 13.1629 6.10338 16.9016H16.1034ZM16.0823 16.7188C16.0684 16.6907 16.0751 16.6974 16.0847 16.7367C16.0948 16.7776 16.1034 16.8351 16.1034 16.9016H6.10338C6.10338 18.4382 6.48551 19.8694 7.11524 21.1451L16.0823 16.7188ZM12.8079 29.5922C14.4495 27.9506 15.2459 25.707 15.6678 24.232C16.1451 22.5631 16.4205 20.8328 16.5691 19.4762L6.62847 18.3878C6.51875 19.3899 6.32672 20.5262 6.05332 21.482C5.91764 21.9564 5.78555 22.3021 5.67798 22.5265C5.55756 22.7777 5.54711 22.7108 5.73683 22.5211L12.8079 29.5922ZM10 41.3151C10 38.1237 10.4675 35.3352 11.1185 33.1962C11.8126 30.9157 12.5729 29.8272 12.8079 29.5922L5.73683 22.5211C3.83563 24.4223 2.45981 27.301 1.55174 30.2846C0.600582 33.4099 0 37.1825 0 41.3151H10ZM11.5251 137.052C11.0157 107.507 10 47.1173 10 41.3151H0C0 47.2315 1.01875 107.77 1.52659 137.224L11.5251 137.052ZM19.2419 148.519C16.2611 147.633 14.3965 145.717 13.1953 143.466C11.9355 141.105 11.5258 138.56 11.5258 137.138H1.52585C1.52585 139.989 2.24535 144.187 4.37292 148.174C6.55906 152.271 10.3401 156.306 16.3922 158.105L19.2419 148.519ZM23.6409 149.856C22.3083 149.446 20.8525 148.998 19.242 148.519L16.3922 158.105C17.952 158.569 19.3658 159.003 20.7017 159.414L23.6409 149.856ZM46.8082 153.5C35.4139 153.5 31.5367 152.284 23.6409 149.856L20.7018 159.414C29.1454 162.01 34.0683 163.5 46.8082 163.5V153.5ZM73.1504 148.622C68.7847 150.236 57.235 153.5 46.8082 153.5V163.5C58.8418 163.5 71.6242 159.847 76.617 158.002L73.1504 148.622ZM78.7349 137.022C78.5363 145.564 73.9948 148.32 73.202 148.603L76.5654 158.021C81.4691 156.27 88.4426 149.708 88.7322 137.254L78.7349 137.022ZM81.1766 41.186C80.4647 68.7477 78.9793 126.516 78.7349 137.022L88.7322 137.254C88.9762 126.765 90.4611 69.0164 91.1733 41.4442L81.1766 41.186ZM77.4515 29.5922C77.5826 29.7232 77.9456 30.195 78.4219 31.2276C78.87 32.1989 79.2994 33.4031 79.6899 34.7384C80.4727 37.415 80.9905 40.2405 81.2177 41.9674L91.1322 40.6628C90.8508 38.5243 90.2395 35.1853 89.2879 31.9315C88.8112 30.3016 88.2221 28.599 87.5023 27.0386C86.8107 25.5396 85.8564 23.8549 84.5226 22.5211L77.4515 29.5922ZM73.7765 18.7934C73.4642 21.6675 73.9163 26.0569 77.4515 29.5922L84.5226 22.5211C83.8204 21.8189 83.6103 20.8643 83.718 19.8733L73.7765 18.7934Z" fill="white" mask="url(#path-5-outside-1_357_112)"/>
</svg>
