<svg width="152" height="147" viewBox="0 0 152 147" fill="none" xmlns="http://www.w3.org/2000/svg">
<path d="M47.6282 96.7108L147 58.5024V96.7108L47.6282 140.936V96.7108Z" fill="#93C32C"/>
<path d="M105.783 23.7789L147 58.7848L47.7109 98.4856L5.00003 63.3015L105.783 23.7789Z" fill="#A4D140"/>
<path d="M47.7107 98.3442L4.99997 63.3018V101.75L47.7107 141.192V98.3442Z" fill="#A4CC41"/>
<path fill-rule="evenodd" clip-rule="evenodd" d="M112.559 26.8843H91.668V38.7411H91.6777C91.9155 42.1961 96.4967 44.9518 102.113 44.9518C107.73 44.9518 112.311 42.1961 112.549 38.7411H112.559V38.4656C112.559 38.4633 112.559 38.461 112.559 38.4587C112.559 38.4564 112.559 38.4541 112.559 38.4518V26.8843Z" fill="#93C32C"/>
<ellipse cx="102.113" cy="26.6019" rx="10.4453" ry="6.49304" fill="#A4D140"/>
<path fill-rule="evenodd" clip-rule="evenodd" d="M87.7156 33.6597H66.825V45.2343V45.5165H66.8346C67.0724 48.9716 71.6536 51.7273 77.2703 51.7273C82.8869 51.7273 87.4682 48.9716 87.7059 45.5165H87.7156V45.2383C87.7156 45.2369 87.7156 45.2356 87.7156 45.2343C87.7156 45.233 87.7156 45.2316 87.7156 45.2303V33.6597Z" fill="#93C32C"/>
<ellipse cx="77.2703" cy="33.3773" rx="10.4453" ry="6.49304" fill="#A4D140"/>
<path fill-rule="evenodd" clip-rule="evenodd" d="M62.8728 42.6934H41.9822V54.2594C41.9822 54.2621 41.9822 54.2649 41.9822 54.2677C41.9822 54.2705 41.9822 54.2733 41.9822 54.2761V54.5502H41.9919C42.2298 58.0052 46.811 60.7608 52.4275 60.7608C58.044 60.7608 62.6252 58.0052 62.8631 54.5502H62.8728V42.6934Z" fill="#93C32C"/>
<ellipse cx="52.4275" cy="42.411" rx="10.4453" ry="6.49304" fill="#A4D140"/>
<path fill-rule="evenodd" clip-rule="evenodd" d="M38.0298 55.6792H17.1392V67.241C17.1392 67.2452 17.1392 67.2495 17.1392 67.2537C17.1392 67.2579 17.1392 67.2621 17.1392 67.2664V67.5361H17.1489C17.3867 70.9911 21.9679 73.7467 27.5845 73.7467C33.2011 73.7467 37.7823 70.9911 38.0201 67.5361H38.0298V55.6792Z" fill="#93C32C"/>
<ellipse cx="27.5845" cy="55.3973" rx="10.4453" ry="6.49304" fill="#A4D140"/>
<path fill-rule="evenodd" clip-rule="evenodd" d="M86.0218 62.4546H65.1311V74.0171C65.1311 74.0212 65.1311 74.0252 65.1311 74.0293C65.1311 74.0333 65.1311 74.0374 65.1311 74.0414V74.3114H65.1408C65.3785 77.7665 69.9597 80.5223 75.5764 80.5223C81.1931 80.5223 85.7744 77.7665 86.0121 74.3114H86.0218V62.4546Z" fill="#93C32C"/>
<ellipse cx="75.5764" cy="62.1722" rx="10.4453" ry="6.49304" fill="#A4D140"/>
<path fill-rule="evenodd" clip-rule="evenodd" d="M110.865 53.4209H89.9741V64.9954V65.2778H89.9838C90.2216 68.7328 94.8028 71.4885 100.419 71.4885C106.036 71.4885 110.617 68.7328 110.855 65.2778H110.865L110.865 64.9954L110.865 53.4209Z" fill="#93C32C"/>
<ellipse cx="100.419" cy="53.139" rx="10.4453" ry="6.49304" fill="#A4D140"/>
<path fill-rule="evenodd" clip-rule="evenodd" d="M135.708 42.6934H114.817V54.2589C114.817 54.2618 114.817 54.2648 114.817 54.2677C114.817 54.2707 114.817 54.2736 114.817 54.2766V54.5502H114.827C115.065 58.0052 119.646 60.7608 125.262 60.7608C130.879 60.7608 135.46 58.0052 135.698 54.5502H135.708V42.6934Z" fill="#93C32C"/>
<ellipse cx="125.262" cy="42.411" rx="10.4453" ry="6.49304" fill="#A4D140"/>
<path fill-rule="evenodd" clip-rule="evenodd" d="M58.9204 74.312H38.0298V86.1689H38.0395C38.2777 89.6237 42.8587 92.3792 48.4751 92.3792C54.0915 92.3792 58.6726 89.6237 58.9107 86.1689H58.9204V85.9004C58.9205 85.8956 58.9205 85.8909 58.9205 85.8861C58.9205 85.8813 58.9205 85.8766 58.9204 85.8718V74.312Z" fill="#93C32C"/>
<ellipse cx="48.4751" cy="74.0292" rx="10.4453" ry="6.49304" fill="#A4D140"/>
<mask id="path-20-outside-1_357_127" maskUnits="userSpaceOnUse" x="0" y="15.1089" width="152" height="132" fill="black">
<rect fill="white" y="15.1089" width="152" height="132"/>
<path fill-rule="evenodd" clip-rule="evenodd" d="M112.549 26.8845C112.555 26.7908 112.559 26.6966 112.559 26.6019C112.559 23.0159 107.882 20.1089 102.113 20.1089C96.3445 20.1089 91.668 23.0159 91.668 26.6019C91.668 26.6966 91.6712 26.7908 91.6777 26.8845H91.668V29.3145L87.0665 31.119C85.5906 28.6464 81.7615 26.8845 77.2704 26.8845C71.5016 26.8845 66.825 29.7915 66.825 33.3775C66.825 33.472 66.8283 33.5661 66.8347 33.6596H66.825V39.0567L62.5249 40.7431C61.3406 37.9652 57.2687 35.9179 52.4274 35.9179C46.6586 35.9179 41.9821 38.8249 41.9821 42.4109C41.9821 42.5056 41.9854 42.5998 41.9918 42.6935H41.9821V48.799L35.6596 51.2784C33.7439 49.8289 30.8379 48.9043 27.5845 48.9043C21.8157 48.9043 17.1392 51.8113 17.1392 55.3973C17.1392 55.4918 17.1424 55.5859 17.1488 55.6794H17.1392V58.5413L5.00002 63.3017L5.07298 63.3618L5 63.3019V101.75L47.7107 141.192V140.899L147 96.7108V58.7849V58.5025L146.771 58.5905L135.708 49.1943V42.6935H135.698C135.704 42.5998 135.708 42.5056 135.708 42.4109C135.708 38.8249 131.031 35.9179 125.262 35.9179C123.668 35.9179 122.157 36.14 120.805 36.5371L112.559 29.5333V26.8845H112.549Z"/>
</mask>
<path d="M112.549 26.8845L107.561 26.5408C107.466 27.9233 107.948 29.2833 108.894 30.2963C109.84 31.3093 111.163 31.8845 112.549 31.8845V26.8845ZM91.6777 26.8845V31.8845C93.0635 31.8845 94.3871 31.3093 95.3327 30.2963C96.2784 29.2833 96.7611 27.9233 96.6659 26.5408L91.6777 26.8845ZM91.668 26.8845V21.8845C88.9066 21.8845 86.668 24.123 86.668 26.8845H91.668ZM91.668 29.3145L93.4934 33.9693C95.4083 33.2184 96.668 31.3714 96.668 29.3145H91.668ZM87.0665 31.119L82.7731 33.6816C84.0265 35.7816 86.6151 36.6667 88.8919 35.7739L87.0665 31.119ZM66.8347 33.6596V38.6596C68.2204 38.6596 69.5439 38.0846 70.4895 37.0718C71.4351 36.0589 71.918 34.6991 71.8229 33.3167L66.8347 33.6596ZM66.825 33.6596V28.6596C64.0636 28.6596 61.825 30.8982 61.825 33.6596H66.825ZM66.825 39.0567L68.6505 43.7116C70.5654 42.9607 71.825 41.1136 71.825 39.0567H66.825ZM62.5249 40.7431L57.9255 42.704C58.9862 45.1917 61.8326 46.3853 64.3504 45.3979L62.5249 40.7431ZM41.9918 42.6935V47.6935C43.3776 47.6935 44.7012 47.1184 45.6468 46.1054C46.5924 45.0924 47.0752 43.7324 46.98 42.35L41.9918 42.6935ZM41.9821 42.6935V37.6935C39.2207 37.6935 36.9821 39.932 36.9821 42.6935H41.9821ZM41.9821 48.799L43.8075 53.4539C45.7225 52.7029 46.9821 50.8559 46.9821 48.799H41.9821ZM35.6596 51.2784L32.6426 55.2656C34.0305 56.3158 35.8647 56.5687 37.485 55.9333L35.6596 51.2784ZM17.1488 55.6794V60.6794C18.5345 60.6794 19.8581 60.1044 20.8037 59.0915C21.7493 58.0786 22.2321 56.7188 22.1371 55.3364L17.1488 55.6794ZM17.1392 55.6794V50.6794C14.3778 50.6794 12.1392 52.918 12.1392 55.6794H17.1392ZM17.1392 58.5413L18.9646 63.1962C20.8795 62.4452 22.1392 60.5982 22.1392 58.5413H17.1392ZM5.00002 63.3017L3.17459 58.6469C1.52453 59.2939 0.340343 60.7662 0.0620389 62.5166C-0.216265 64.267 0.452908 66.034 1.82091 67.1609L5.00002 63.3017ZM5.07298 63.3618L1.90151 67.2273C4.03486 68.9776 7.18287 68.6687 8.9353 66.5371C10.6877 64.4055 10.382 61.2572 8.25208 59.5026L5.07298 63.3618ZM5 63.3019L8.17146 59.4365C6.67694 58.2103 4.60945 57.9555 2.86193 58.7821C1.11441 59.6088 0 61.3688 0 63.3019H5ZM5 101.75H0C0 103.146 0.582885 104.477 1.60783 105.424L5 101.75ZM47.7107 141.192L44.3186 144.866C45.7777 146.213 47.8961 146.569 49.7156 145.773C51.5351 144.976 52.7107 143.178 52.7107 141.192H47.7107ZM47.7107 140.899L45.6777 136.331C43.8733 137.134 42.7107 138.924 42.7107 140.899H47.7107ZM147 96.7108L149.033 101.279C150.837 100.476 152 98.6859 152 96.7108H147ZM147 58.5025H152C152 56.8552 151.189 55.3137 149.831 54.3811C148.473 53.4484 146.743 53.2444 145.206 53.8355L147 58.5025ZM146.771 58.5905L143.534 62.4015C144.929 63.5856 146.858 63.9139 148.565 63.2574L146.771 58.5905ZM135.708 49.1943H130.708C130.708 50.6618 131.352 52.0552 132.471 53.0052L135.708 49.1943ZM135.708 42.6935H140.708C140.708 39.932 138.469 37.6935 135.708 37.6935V42.6935ZM135.698 42.6935L130.71 42.3498C130.615 43.7323 131.097 45.0923 132.043 46.1053C132.989 47.1183 134.312 47.6935 135.698 47.6935V42.6935ZM120.805 36.5371L117.568 40.3481C118.852 41.4383 120.598 41.8091 122.214 41.3344L120.805 36.5371ZM112.559 29.5333H107.559C107.559 31.0009 108.203 32.3943 109.322 33.3443L112.559 29.5333ZM112.559 26.8845H117.559C117.559 24.123 115.32 21.8845 112.559 21.8845V26.8845ZM107.559 26.6019C107.559 26.5818 107.559 26.5614 107.561 26.5408L117.537 27.2282C117.551 27.0202 117.559 26.8114 117.559 26.6019H107.559ZM102.113 25.1089C104.216 25.1089 105.881 25.6486 106.86 26.2571C107.913 26.9116 107.559 27.1681 107.559 26.6019H117.559C117.559 22.4497 114.866 19.4597 112.139 17.7642C109.337 16.0227 105.78 15.1089 102.113 15.1089V25.1089ZM96.668 26.6019C96.668 27.1681 96.3141 26.9116 97.367 26.2571C98.3459 25.6486 100.011 25.1089 102.113 25.1089V15.1089C98.4467 15.1089 94.8892 16.0227 92.0877 17.7642C89.3602 19.4597 86.668 22.4497 86.668 26.6019H96.668ZM96.6659 26.5408C96.6673 26.5614 96.668 26.5818 96.668 26.6019H86.668C86.668 26.8114 86.6752 27.0202 86.6895 27.2282L96.6659 26.5408ZM91.668 31.8845H91.6777V21.8845H91.668V31.8845ZM96.668 29.3145V26.8845H86.668V29.3145H96.668ZM88.8919 35.7739L93.4934 33.9693L89.8426 24.6596L85.241 26.4641L88.8919 35.7739ZM77.2704 31.8845C78.8841 31.8845 80.2707 32.2045 81.2851 32.6509C82.35 33.1196 82.719 33.5909 82.7731 33.6816L91.3598 28.5564C88.6185 23.9635 82.6734 21.8845 77.2704 21.8845V31.8845ZM71.825 33.3775C71.825 33.9437 71.4711 33.6872 72.5241 33.0327C73.503 32.4241 75.1682 31.8845 77.2704 31.8845V21.8845C73.6038 21.8845 70.0463 22.7983 67.2447 24.5398C64.5172 26.2353 61.825 29.2253 61.825 33.3775H71.825ZM71.8229 33.3167C71.8243 33.337 71.825 33.3573 71.825 33.3775H61.825C61.825 33.5867 61.8322 33.7952 61.8465 34.0026L71.8229 33.3167ZM66.825 38.6596H66.8347V28.6596H66.825V38.6596ZM71.825 39.0567V33.6596H61.825V39.0567H71.825ZM64.3504 45.3979L68.6505 43.7116L64.9996 34.4019L60.6995 36.0882L64.3504 45.3979ZM52.4274 40.9179C54.1724 40.9179 55.6431 41.2917 56.6655 41.7875C57.7553 42.3161 57.9572 42.7782 57.9255 42.704L67.1244 38.7821C65.9084 35.93 63.4821 33.9796 61.0295 32.79C58.5096 31.5678 55.5237 30.9179 52.4274 30.9179V40.9179ZM46.9821 42.4109C46.9821 42.9771 46.6282 42.7206 47.6811 42.0661C48.66 41.4576 50.3252 40.9179 52.4274 40.9179V30.9179C48.7608 30.9179 45.2034 31.8317 42.4018 33.5732C39.6743 35.2687 36.9821 38.2587 36.9821 42.4109H46.9821ZM46.98 42.35C46.9814 42.3703 46.9821 42.3907 46.9821 42.4109H36.9821C36.9821 42.6205 36.9893 42.8293 37.0036 43.0369L46.98 42.35ZM41.9821 47.6935H41.9918V37.6935H41.9821V47.6935ZM46.9821 48.799V42.6935H36.9821V48.799H46.9821ZM37.485 55.9333L43.8075 53.4539L40.1567 44.1441L33.8342 46.6236L37.485 55.9333ZM27.5845 53.9043C29.9849 53.9043 31.7665 54.6027 32.6426 55.2656L38.6766 47.2913C35.7213 45.055 31.6909 43.9043 27.5845 43.9043V53.9043ZM22.1392 55.3973C22.1392 55.9635 21.7853 55.707 22.8382 55.0525C23.8171 54.444 25.4823 53.9043 27.5845 53.9043V43.9043C23.9179 43.9043 20.3604 44.8181 17.5589 46.5596C14.8313 48.2551 12.1392 51.2451 12.1392 55.3973H22.1392ZM22.1371 55.3364C22.1385 55.3568 22.1392 55.3772 22.1392 55.3973H12.1392C12.1392 55.6065 12.1464 55.815 12.1606 56.0225L22.1371 55.3364ZM17.1392 60.6794H17.1488V50.6794H17.1392V60.6794ZM22.1392 58.5413V55.6794H12.1392V58.5413H22.1392ZM6.82544 67.9566L18.9646 63.1962L15.3138 53.8864L3.17459 58.6469L6.82544 67.9566ZM8.25208 59.5026L8.17912 59.4425L1.82091 67.1609L1.89388 67.221L8.25208 59.5026ZM1.82854 67.1674L1.90151 67.2273L8.24444 59.4964L8.17146 59.4365L1.82854 67.1674ZM10 101.75V63.3019H0V101.75H10ZM51.1029 137.519L8.39217 98.0771L1.60783 105.424L44.3186 144.866L51.1029 137.519ZM42.7107 140.899V141.192H52.7107V140.899H42.7107ZM144.967 92.1428L45.6777 136.331L49.7437 145.467L149.033 101.279L144.967 92.1428ZM142 58.7849V96.7108H152V58.7849H142ZM142 58.5025V58.7849H152V58.5025H142ZM148.565 63.2574L148.794 63.1694L145.206 53.8355L144.977 53.9236L148.565 63.2574ZM132.471 53.0052L143.534 62.4015L150.008 54.7795L138.944 45.3833L132.471 53.0052ZM130.708 42.6935V49.1943H140.708V42.6935H130.708ZM135.698 47.6935H135.708V37.6935H135.698V47.6935ZM130.708 42.4109C130.708 42.3911 130.708 42.3706 130.71 42.3498L140.686 43.0371C140.701 42.8289 140.708 42.6201 140.708 42.4109H130.708ZM125.262 40.9179C127.365 40.9179 129.03 41.4576 130.009 42.0661C131.062 42.7206 130.708 42.9771 130.708 42.4109H140.708C140.708 38.2587 138.016 35.2687 135.288 33.5732C132.486 31.8317 128.929 30.9179 125.262 30.9179V40.9179ZM122.214 41.3344C123.09 41.077 124.126 40.9179 125.262 40.9179V30.9179C123.21 30.9179 121.223 31.2029 119.396 31.7398L122.214 41.3344ZM109.322 33.3443L117.568 40.3481L124.042 32.7261L115.795 25.7224L109.322 33.3443ZM107.559 26.8845V29.5333H117.559V26.8845H107.559ZM112.549 31.8845H112.559V21.8845H112.549V31.8845Z" fill="white" mask="url(#path-20-outside-1_357_127)"/>
</svg>
