<svg width="654" height="164" viewBox="0 0 654 164" fill="none" xmlns="http://www.w3.org/2000/svg">
<rect y="54" width="654" height="110" rx="20" fill="#8F7561"/>
<circle cx="528.5" cy="66.5" r="6.5" fill="white"/>
<rect y="47" width="654" height="109" rx="20" fill="#F8E5BF"/>
<path fill-rule="evenodd" clip-rule="evenodd" d="M654 101V136C654 147.046 645.046 156 634 156H20C8.95432 156 0 147.046 0 136V101H654Z" fill="#E9D8B7"/>
<circle cx="528.5" cy="66.5" r="6.5" fill="white"/>
<circle cx="120.5" cy="66.5" r="6.5" fill="white"/>
<rect x="117" width="6" height="63" rx="3" fill="#8F7561"/>
<rect x="526" width="5" height="63" rx="2.5" fill="#8F7561"/>
<path d="M98.496 101.152C105.984 101.152 108.96 102.592 108.96 106.208C108.96 109.44 106.528 110.912 100.576 111.2V111.584C100.576 112.16 100.832 112.416 101.504 112.448C103.296 112.544 107.296 112.384 109.792 112.192C110.464 112.128 110.816 112.416 110.816 113.088V114.784C110.816 115.36 110.56 115.68 109.824 115.744C107.84 115.936 103.232 116 98.24 116C93.76 116 89.472 115.968 86.688 115.744C85.952 115.68 85.696 115.392 85.696 114.784V113.088C85.696 112.416 86.016 112.128 86.688 112.192C89.12 112.384 93.024 112.48 96.448 112.48C96.128 112.288 95.936 111.936 95.936 111.488V111.168C90.336 110.848 88.032 109.344 88.032 106.208C88.032 102.592 91.008 101.152 98.496 101.152ZM107.872 125.024C105.536 125.024 103.904 124.928 98.048 124.928C93.344 124.928 92.512 125.12 92.512 125.792C92.512 126.496 93.504 126.56 99.808 126.56C102.432 126.56 106.432 126.368 108.544 125.984C109.056 125.888 109.408 126.144 109.44 126.656L109.6 128.512C109.632 128.96 109.344 129.28 108.864 129.344C106.56 129.664 102.464 129.92 99.84 129.92C90.592 129.92 87.872 129.12 87.872 125.728C87.872 122.368 91.008 121.568 97.984 121.568C99.744 121.568 101.76 121.536 103.168 121.536C104 121.536 104.352 121.344 104.352 120.896C104.352 120.416 104.032 120.224 103.232 120.224C100.192 120.224 93.12 120.448 89.344 120.768C88.832 120.8 88.512 120.512 88.512 120V118.144C88.512 117.664 88.768 117.408 89.344 117.376C94.176 117.024 100.8 116.832 105.76 116.992C107.808 117.056 108.96 117.792 108.96 119.328C108.96 120.576 108.256 121.472 107.104 121.856H107.872C108.352 121.856 108.704 122.144 108.704 122.592V124.256C108.704 124.704 108.384 125.024 107.872 125.024ZM98.496 107.712C102.976 107.712 104.32 107.36 104.32 106.208C104.32 105.024 103.04 104.672 98.496 104.672C93.952 104.672 92.672 105.024 92.672 106.208C92.672 107.36 94.016 107.712 98.496 107.712ZM118.741 113.824L118.869 119.648C118.901 120.448 119.253 120.768 120.053 120.768H122.581C123.381 120.768 123.733 120.448 123.765 119.648L123.893 113.824H118.741ZM124.245 125.088H118.389C115.861 125.088 114.357 123.712 114.293 121.44L113.813 103.808C113.781 103.168 114.197 102.784 114.869 102.784H117.397C118.133 102.784 118.453 103.04 118.485 103.712L118.613 109.504H124.021L124.149 103.712C124.149 103.072 124.501 102.784 125.237 102.784H127.765C128.469 102.784 128.853 103.168 128.821 103.808L128.341 121.44C128.277 123.712 126.773 125.088 124.245 125.088ZM136.437 128.384C136.437 129.056 136.053 129.44 135.381 129.44H132.853C132.181 129.44 131.797 129.056 131.797 128.384V101.824C131.797 101.152 132.181 100.768 132.853 100.768H135.381C136.053 100.768 136.437 101.152 136.437 101.824V112.544C136.789 112 137.525 111.648 138.421 111.648H139.445C140.085 111.648 140.437 112 140.437 112.64V115.136C140.437 115.776 140.085 116.128 139.445 116.128H138.293C137.205 116.128 136.437 116.864 136.437 117.888V128.384ZM154.986 112.448C150.282 112.448 149.93 112.736 149.93 113.6C149.93 114.464 150.442 114.624 156.746 114.624C159.37 114.624 162.73 114.4 164.842 113.984C165.354 113.888 165.706 114.144 165.802 114.784L166.218 117.152C166.314 117.696 165.962 118.08 165.482 118.176C163.274 118.56 159.402 118.912 156.778 118.912C147.53 118.912 145.29 117.76 145.29 113.504C145.29 109.312 147.946 108.192 154.922 108.192H159.626C160.458 108.192 160.81 107.872 160.81 107.296C160.81 106.688 160.49 106.464 159.69 106.464C156.65 106.464 150.538 106.624 146.762 107.008C146.25 107.072 145.93 106.688 145.93 106.048V103.68C145.93 103.104 146.186 102.784 146.762 102.72C150.474 102.4 154.666 102.176 158.666 102.176C159.882 102.176 161.066 102.208 162.218 102.24C164.266 102.336 165.418 103.424 165.418 105.344C165.418 106.912 164.714 108.064 163.53 108.576H164.33C164.81 108.576 165.162 108.928 165.162 109.472V111.584C165.162 112.16 164.842 112.544 164.33 112.544C161.994 112.544 160.842 112.448 154.986 112.448ZM155.178 122.912C160.17 122.912 164.714 122.688 166.698 122.368C167.37 122.24 167.754 122.656 167.754 123.328V125.696C167.754 126.272 167.434 126.592 166.698 126.72C164.714 127.072 160.17 127.264 155.178 127.264C150.698 127.264 146.474 127.104 143.69 126.72C142.954 126.624 142.634 126.304 142.634 125.696V123.328C142.634 122.656 143.018 122.272 143.69 122.368C146.474 122.72 150.698 122.912 155.178 122.912ZM178.846 109.728C178.846 107.648 178.206 107.104 176.702 107.104C175.166 107.104 173.182 107.424 171.39 107.68C170.782 107.776 170.398 107.36 170.398 106.688V104.352C170.398 103.744 170.686 103.52 171.39 103.36C173.182 102.944 175.134 102.784 177.086 102.784C181.31 102.784 183.198 104.512 183.198 109.184C183.198 109.952 183.198 110.752 183.166 111.52H185.406C186.046 111.52 186.398 111.2 186.398 110.592V102.08C186.398 101.408 186.718 101.088 187.39 101.088H189.726C190.398 101.088 190.718 101.408 190.718 102.08V128.448C190.718 129.12 190.398 129.44 189.726 129.44H187.39C186.718 129.44 186.398 129.12 186.398 128.448V115.52C186.174 115.808 185.79 116 185.342 116H182.942C182.75 118.752 182.43 121.504 182.014 124.16C181.918 124.832 181.63 125.088 180.958 125.088H178.622C177.95 125.088 177.598 124.768 177.694 124.096C178.398 118.848 178.846 114.08 178.846 109.728ZM192.478 101.76C192.478 101.088 192.798 100.768 193.47 100.768H195.806C196.478 100.768 196.798 101.088 196.798 101.76V128.448C196.798 129.12 196.478 129.44 195.806 129.44H193.47C192.798 129.44 192.478 129.12 192.478 128.448V101.76ZM224.857 110.464V103.488C224.857 102.816 225.241 102.432 225.913 102.432H228.441C229.113 102.432 229.497 102.816 229.497 103.488V109.856C229.497 112.64 230.521 114.048 232.569 114.048C233.273 114.048 233.625 114.368 233.625 114.976V117.376C233.625 118.016 233.241 118.368 232.569 118.368C229.913 118.368 228.153 117.216 227.257 114.752C226.585 116.928 224.825 118.368 222.649 118.368C220.473 118.368 218.713 116.928 218.041 114.752C217.145 117.216 215.385 118.368 212.729 118.368C212.057 118.368 211.673 118.016 211.673 117.376V114.976C211.673 114.368 212.025 114.048 212.729 114.048C214.777 114.048 215.801 112.672 215.801 109.856V103.488C215.801 102.816 216.185 102.432 216.857 102.432H219.385C220.057 102.432 220.441 102.816 220.441 103.488V110.464C220.441 112.736 221.241 114.048 222.649 114.048C224.057 114.048 224.857 112.736 224.857 110.464ZM222.521 122.912C227.513 122.912 232.057 122.688 234.041 122.368C234.713 122.24 235.097 122.656 235.097 123.328V125.696C235.097 126.272 234.777 126.592 234.041 126.72C232.057 127.072 227.513 127.264 222.521 127.264C218.041 127.264 213.817 127.104 211.033 126.72C210.297 126.624 209.977 126.304 209.977 125.696V123.328C209.977 122.656 210.361 122.272 211.033 122.368C213.817 122.72 218.041 122.912 222.521 122.912ZM244.174 102.784C248.334 102.784 250.542 104.384 250.542 107.616C250.542 109.472 249.966 110.976 248.814 111.968H249.198C249.838 111.968 250.126 112.256 250.126 112.896V115.04C250.126 115.68 249.838 115.968 249.198 115.968C247.502 115.968 246.67 115.936 245.806 115.936C242.99 115.936 241.998 116.608 241.998 118.528C241.998 120.192 243.182 121.088 245.358 121.088C246.51 121.088 248.078 120.768 249.646 120.16C249.774 120.096 249.902 120.064 250.03 120.064C250.382 120.064 250.606 120.352 250.766 120.896L251.406 123.136C251.598 123.776 251.342 124.096 250.606 124.384C248.814 125.088 246.798 125.408 245.038 125.408C240.366 125.408 237.678 122.976 237.678 118.528C237.678 114.016 239.822 111.616 243.854 111.616C245.39 111.616 246.222 110.912 246.222 109.408C246.222 107.84 245.294 107.104 243.662 107.104C242.638 107.104 241.582 107.296 239.63 107.584C238.99 107.68 238.638 107.392 238.638 106.752V104.192C238.638 103.584 238.894 103.328 239.566 103.2C241.006 102.912 242.67 102.784 244.174 102.784ZM253.742 115.52C253.518 115.808 253.134 116 252.686 116H251.822C251.182 116 250.894 115.712 250.894 115.072V112.448C250.894 111.808 251.182 111.52 251.822 111.52H252.75C253.39 111.52 253.742 111.2 253.742 110.592V102.08C253.742 101.408 254.062 101.088 254.734 101.088H257.07C257.742 101.088 258.062 101.408 258.062 102.08V128.448C258.062 129.12 257.742 129.44 257.07 129.44H254.734C254.062 129.44 253.742 129.12 253.742 128.448V115.52ZM259.822 101.76C259.822 101.088 260.142 100.768 260.814 100.768H263.15C263.822 100.768 264.142 101.088 264.142 101.76V128.448C264.142 129.12 263.822 129.44 263.15 129.44H260.814C260.142 129.44 259.822 129.12 259.822 128.448V101.76ZM277.184 124.032C277.984 118.784 278.336 114.72 278.336 110.368C278.336 107.968 277.696 107.104 275.872 107.104C273.056 107.104 271.392 107.456 269.28 107.68C268.672 107.744 268.288 107.36 268.288 106.688V104.352C268.288 103.744 268.576 103.456 269.28 103.36C272.512 102.912 274.304 102.784 276.576 102.784C281.12 102.784 283.008 104.832 283.008 109.824C283.008 114.944 282.688 119.36 281.824 124.16C281.696 124.864 281.408 125.088 280.736 125.088H278.176C277.472 125.088 277.088 124.672 277.184 124.032ZM286.624 101.824C286.624 101.152 287.008 100.768 287.68 100.768H290.208C290.88 100.768 291.264 101.152 291.264 101.824V128.384C291.264 129.056 290.88 129.44 290.208 129.44H287.68C287.008 129.44 286.624 129.056 286.624 128.384V101.824ZM319.732 116.704C317.716 116.896 313.044 116.96 308.052 116.96C303.572 116.96 299.188 116.928 296.436 116.704C295.732 116.64 295.54 116.352 295.54 115.808V114.208C295.54 113.568 295.828 113.344 296.436 113.376C299.188 113.6 303.572 113.632 308.052 113.632C313.044 113.632 317.716 113.568 319.7 113.376C320.34 113.312 320.66 113.568 320.66 114.208V115.808C320.66 116.352 320.436 116.64 319.732 116.704ZM307.892 125.28C302.868 125.28 302.356 125.472 302.356 126.112C302.356 126.752 303.028 126.816 309.652 126.816C312.276 126.816 316.276 126.624 318.388 126.304C318.9 126.208 319.252 126.432 319.284 126.912L319.444 128.64C319.476 129.056 319.188 129.344 318.708 129.408C316.404 129.696 312.308 129.92 309.684 129.92C300.116 129.92 297.716 129.184 297.716 126.048C297.716 122.912 300.532 122.176 307.828 122.176C309.588 122.176 311.604 122.144 313.012 122.144C313.844 122.144 314.196 121.984 314.196 121.568C314.196 121.12 313.876 120.96 313.076 120.96C310.036 120.96 302.9 121.152 299.124 121.44C298.612 121.472 298.356 121.216 298.356 120.736V119.008C298.356 118.592 298.548 118.368 299.124 118.336C303.956 117.984 310.644 117.824 315.604 117.952C317.812 118.016 318.804 118.688 318.804 120.096C318.804 121.312 318.068 122.112 316.884 122.464H317.78C318.26 122.464 318.548 122.72 318.548 123.136V124.672C318.548 125.088 318.292 125.376 317.78 125.376C315.444 125.376 313.748 125.28 307.892 125.28ZM317.428 108.352C315.028 108.352 313.428 108.256 307.892 108.256C303.668 108.256 302.836 108.352 302.836 108.896C302.836 109.44 303.636 109.472 308.116 109.472C311.38 109.472 314.676 109.376 317.908 108.864C318.42 108.8 318.644 108.96 318.708 109.44L318.964 111.104C319.028 111.584 318.804 111.808 318.324 111.904C316.084 112.288 312.468 112.48 309.684 112.48C300.628 112.48 298.196 112 298.196 108.864C298.196 105.952 300.724 105.28 307.828 105.28C309.588 105.28 311.124 105.248 312.532 105.248C313.396 105.248 313.716 105.152 313.716 104.832C313.716 104.48 313.428 104.384 312.596 104.384C308.884 104.384 302.9 104.544 299.54 104.736C299.06 104.768 298.836 104.576 298.836 104.128V102.4C298.836 101.952 299.06 101.728 299.54 101.696C303.22 101.472 306.836 101.376 310.228 101.376C312.052 101.376 313.812 101.408 315.508 101.472C317.428 101.536 318.324 102.08 318.324 103.424C318.324 104.512 317.652 105.216 316.5 105.568H317.428C317.876 105.568 318.068 105.792 318.068 106.24V107.712C318.068 108.16 317.908 108.352 317.428 108.352ZM340.177 107.392L340.273 108.8C340.305 109.376 340.561 109.6 341.265 109.6H349.777C350.481 109.6 350.737 109.376 350.769 108.8L350.865 107.392H340.177ZM344.529 118.848C340.913 118.912 336.593 118.816 334.033 118.624C333.297 118.56 332.977 118.208 332.977 117.6V115.712C332.977 115.04 333.361 114.688 334.033 114.752C336.785 114.976 341.009 115.008 345.489 115.008C350.481 115.008 355.025 114.944 357.009 114.752C357.681 114.688 358.097 115.04 358.097 115.712V117.6C358.097 118.176 357.777 118.56 357.041 118.624C355.473 118.784 352.273 118.88 349.649 118.88C348.881 118.88 348.497 119.264 348.497 119.872V122.688C348.497 123.36 348.145 123.744 347.473 123.744H344.913C344.241 123.744 343.857 123.36 343.857 122.688V119.968C343.857 119.456 344.113 119.072 344.529 118.848ZM351.697 113.28H339.345C337.009 113.28 335.825 112.288 335.697 110.144L335.217 102.496C335.185 101.888 335.569 101.472 336.273 101.472H338.801C339.537 101.472 339.857 101.728 339.889 102.4L339.953 103.712H351.089L351.153 102.4C351.185 101.728 351.537 101.472 352.241 101.472H354.769C355.473 101.472 355.857 101.856 355.825 102.496L355.345 110.144C355.217 112.288 354.033 113.28 351.697 113.28ZM355.921 129.344C351.889 129.728 346.705 129.92 341.681 129.92C337.489 129.92 335.153 127.808 335.153 124.032C335.153 122.944 335.249 122.368 335.345 121.76C335.473 121.024 335.793 120.704 336.401 120.704H338.929C339.665 120.704 340.081 121.12 339.985 121.76C339.921 122.208 339.793 122.912 339.793 123.456C339.793 124.896 340.657 125.6 342.225 125.6C347.057 125.6 352.209 125.376 355.633 125.024C356.241 124.96 356.689 125.344 356.721 126.016L356.881 128.288C356.913 128.896 356.593 129.28 355.921 129.344ZM370.214 102.784C374.054 102.784 376.102 104.48 376.102 107.616C376.102 109.472 375.398 110.976 374.118 111.968H374.918C375.558 111.968 375.846 112.256 375.846 112.896V115.04C375.846 115.68 375.558 115.968 374.918 115.968C373.222 115.968 371.91 115.936 370.726 115.936C367.078 115.936 365.958 116.544 365.958 118.528C365.958 120.352 367.046 121.088 369.798 121.088C371.462 121.088 373.478 120.704 375.27 120C375.398 119.936 375.526 119.904 375.654 119.904C376.006 119.904 376.23 120.192 376.39 120.736L377.03 122.976C377.222 123.616 376.966 123.968 376.23 124.224C373.958 125.024 371.43 125.408 369.062 125.408C363.974 125.408 361.318 123.04 361.318 118.528C361.318 114.016 363.942 111.616 368.934 111.616C370.694 111.616 371.462 110.944 371.462 109.408C371.462 107.808 370.662 107.136 368.742 107.136C367.046 107.136 365.478 107.264 363.27 107.584C362.63 107.68 362.278 107.392 362.278 106.752V104.192C362.278 103.584 362.534 103.296 363.206 103.2C365.382 102.88 367.078 102.784 370.214 102.784ZM379.718 101.824C379.718 101.152 380.102 100.768 380.774 100.768H383.302C383.974 100.768 384.358 101.152 384.358 101.824V128.384C384.358 129.056 383.974 129.44 383.302 129.44H380.774C380.102 129.44 379.718 129.056 379.718 128.384V101.824ZM403.514 123.456V127.264C403.514 127.936 403.162 128.32 402.49 128.32H399.93C399.258 128.32 398.874 127.936 398.874 127.264V123.68C398.874 123.008 399.258 122.4 399.834 122.144C395.866 122.112 392.186 121.952 389.69 121.6C388.954 121.504 388.634 121.184 388.634 120.576V118.208C388.634 117.536 389.018 117.152 389.69 117.248C392.442 117.6 396.666 117.792 401.146 117.792C406.138 117.792 410.682 117.568 412.666 117.248C413.338 117.12 413.754 117.536 413.754 118.208V120.576C413.754 121.152 413.434 121.472 412.698 121.6C411.162 121.856 408.154 122.112 404.89 122.112C403.962 122.112 403.514 122.592 403.514 123.456ZM401.338 110.144C400.09 113.024 396.858 115.168 392.57 115.168C391.834 115.168 390.97 115.168 390.97 114.176V111.776C390.97 111.168 391.322 110.848 392.026 110.848C396.57 110.848 399.034 108.288 399.034 104.736V102.528C399.034 101.856 399.418 101.472 400.09 101.472H402.618C403.29 101.472 403.674 101.856 403.674 102.528V104.736C403.674 108.288 406.106 110.848 410.618 110.848C411.322 110.848 411.674 111.168 411.674 111.776V114.176C411.674 115.168 410.81 115.168 410.074 115.168C405.786 115.168 402.554 113.024 401.338 110.144ZM426.446 110.368C426.446 107.968 425.806 107.104 423.982 107.104C421.166 107.104 419.822 107.456 417.71 107.68C417.102 107.744 416.718 107.36 416.718 106.688V104.352C416.718 103.744 417.006 103.456 417.71 103.36C420.942 102.912 422.414 102.784 424.686 102.784C429.23 102.784 431.118 104.832 431.118 109.824C431.118 114.944 430.798 119.36 429.934 124.16C429.806 124.864 429.518 125.088 428.846 125.088H426.286C425.582 125.088 425.198 124.672 425.294 124.032C426.094 118.784 426.446 114.72 426.446 110.368ZM435.374 101.824C435.374 101.152 435.758 100.768 436.43 100.768H438.958C439.63 100.768 440.014 101.152 440.014 101.824V128.384C440.014 129.056 439.63 129.44 438.958 129.44H436.43C435.758 129.44 435.374 129.056 435.374 128.384V115.104C435.022 115.68 434.318 116 433.454 116H432.974C432.334 116 431.982 115.648 431.982 115.008V112.512C431.982 111.872 432.334 111.52 432.974 111.52H433.582C434.67 111.52 435.374 110.848 435.374 109.824V101.824ZM474.635 101.76C474.635 101.088 474.955 100.768 475.627 100.768H477.963C478.635 100.768 478.955 101.088 478.955 101.76V128.448C478.955 129.12 478.635 129.44 477.963 129.44H475.627C474.955 129.44 474.635 129.12 474.635 128.448V116.128H473.323C472.619 116.128 472.075 116.64 472.075 117.344V128.448C472.075 129.12 471.755 129.44 471.083 129.44H468.747C468.075 129.44 467.755 129.12 467.755 128.448V102.08C467.755 101.408 468.075 101.088 468.747 101.088H471.083C471.755 101.088 472.075 101.408 472.075 102.08V112.256C472.363 111.872 472.875 111.648 473.419 111.648H474.635V101.76ZM459.051 109.536C463.403 109.536 465.227 112.416 465.227 117.312C465.227 122.208 463.403 125.088 459.051 125.088C454.699 125.088 452.875 122.208 452.875 117.312C452.875 112.416 454.699 109.536 459.051 109.536ZM461.163 102.72C461.163 103.136 461.451 103.424 462.027 103.424H465.163C465.835 103.424 466.219 103.808 466.219 104.48V106.688C466.219 107.36 465.835 107.744 465.163 107.744H452.971C452.299 107.744 451.915 107.36 451.915 106.688V104.48C451.915 103.808 452.299 103.424 452.971 103.424H457.483C457.163 103.232 457.003 102.944 457.003 102.496V100.992C457.003 100.32 457.323 100 457.995 100H460.171C460.843 100 461.163 100.32 461.163 100.992V102.72ZM459.051 120.832C460.459 120.832 460.97 119.552 460.97 117.312C460.97 115.072 460.459 113.792 459.051 113.792C457.643 113.792 457.131 115.072 457.131 117.312C457.131 119.552 457.643 120.832 459.051 120.832ZM487.037 101.504H504.669C505.341 101.504 505.725 101.888 505.725 102.56V104.768C505.725 105.44 505.341 105.824 504.669 105.824H498.205V106.368C498.205 109.088 500.637 110.848 505.149 110.848C505.853 110.848 506.205 111.168 506.205 111.776V114.176C506.205 115.04 505.597 115.168 504.893 115.168C500.477 115.168 497.117 113.504 495.837 110.944C494.589 113.504 491.229 115.168 486.813 115.168C486.109 115.168 485.501 115.04 485.501 114.176V111.776C485.501 111.168 485.853 110.848 486.557 110.848C491.101 110.848 493.565 109.088 493.565 106.368V105.824H487.037C486.365 105.824 485.981 105.44 485.981 104.768V102.56C485.981 101.888 486.365 101.504 487.037 101.504ZM499.421 122.112C498.493 122.112 498.045 122.592 498.045 123.456V127.264C498.045 127.936 497.693 128.32 497.021 128.32H494.461C493.789 128.32 493.405 127.936 493.405 127.264V123.68C493.405 123.008 493.789 122.4 494.365 122.144C490.397 122.112 486.717 121.952 484.221 121.6C483.485 121.504 483.165 121.184 483.165 120.576V118.208C483.165 117.536 483.549 117.152 484.221 117.248C486.973 117.6 491.197 117.792 495.677 117.792C500.669 117.792 505.213 117.568 507.197 117.248C507.869 117.12 508.285 117.536 508.285 118.208V120.576C508.285 121.152 507.965 121.472 507.229 121.6C505.693 121.856 502.685 122.112 499.421 122.112ZM517.874 120.384C517.138 123.008 514.802 124.768 511.826 125.088C511.154 125.152 510.77 124.832 510.77 124.192V121.792C510.77 121.184 511.122 120.864 511.826 120.768C514.13 120.448 515.666 118.368 515.666 115.36V103.776C515.666 103.104 515.986 102.784 516.658 102.784H519.026C519.73 102.784 520.018 103.136 520.018 103.936V115.36C520.018 118.496 521.394 120.448 523.57 120.768C524.242 120.864 524.562 121.184 524.562 121.792V124.192C524.562 124.832 524.242 125.152 523.57 125.088C520.754 124.768 518.546 123.008 517.874 120.384ZM526.93 113.92C526.706 114.208 526.322 114.4 525.874 114.4H523.25C522.61 114.4 522.258 114.048 522.258 113.408V110.912C522.258 110.272 522.61 109.92 523.25 109.92H525.938C526.578 109.92 526.93 109.6 526.93 108.992V102.08C526.93 101.408 527.25 101.088 527.922 101.088H530.258C530.93 101.088 531.25 101.408 531.25 102.08V128.448C531.25 129.12 530.93 129.44 530.258 129.44H527.922C527.25 129.44 526.93 129.12 526.93 128.448V113.92ZM533.01 101.76C533.01 101.088 533.33 100.768 534.002 100.768H536.338C537.01 100.768 537.33 101.088 537.33 101.76V128.448C537.33 129.12 537.01 129.44 536.338 129.44H534.002C533.33 129.44 533.01 129.12 533.01 128.448V101.76ZM563.565 122.336C564.557 122.336 565.581 122.176 566.541 122.048C567.213 121.952 567.629 122.336 567.629 123.008V125.376C567.629 125.952 567.309 126.272 566.573 126.4C564.589 126.752 560.045 126.944 555.053 126.944C550.573 126.944 546.349 126.784 543.565 126.4C542.829 126.304 542.509 125.984 542.509 125.376V123.008C542.509 122.336 542.893 121.984 543.565 122.048C544.973 122.176 546.541 122.304 548.589 122.4C548.109 122.112 547.789 121.504 547.789 120.8V117.28C547.789 117.152 547.789 117.024 547.821 116.928C545.837 115.52 544.845 113.344 544.845 110.432C544.845 104.96 548.397 102.144 555.309 102.144C562.221 102.144 565.773 104.96 565.773 110.432C565.773 113.536 564.621 115.84 562.349 117.216V120.992C562.349 121.856 562.797 122.336 563.565 122.336ZM555.309 118.784C554.285 118.784 553.325 118.72 552.429 118.592V121.248C552.429 122.112 552.877 122.56 553.805 122.592C554.893 122.624 557.101 122.592 558.797 122.56C558.157 122.304 557.708 121.664 557.708 120.832V118.656C556.972 118.752 556.173 118.784 555.309 118.784ZM555.309 106.464C551.117 106.464 549.485 107.68 549.485 110.464C549.485 113.248 551.117 114.464 555.309 114.464C559.501 114.464 561.133 113.248 561.133 110.464C561.133 107.68 559.501 106.464 555.309 106.464ZM571.841 126.368C571.841 125.696 572.225 125.312 572.897 125.312H575.425C576.097 125.312 576.481 125.696 576.481 126.368V129.024C576.481 129.696 576.097 130.08 575.425 130.08H572.897C572.225 130.08 571.841 129.696 571.841 129.024V126.368ZM571.841 101.504C571.841 100.832 572.225 100.448 572.897 100.448H575.425C576.097 100.448 576.481 100.832 576.481 101.504V122.656C576.481 123.328 576.097 123.712 575.425 123.712H572.897C572.225 123.712 571.841 123.328 571.841 122.656V101.504Z" fill="#422205"/>
<path d="M242.382 78.129C242.382 81.188 243.408 82.651 245.479 82.651C246.296 82.651 247.246 82.423 248.367 81.948C248.424 81.929 248.5 81.91 248.538 81.91C248.709 81.91 248.804 82.043 248.899 82.309L249.222 83.392C249.317 83.677 249.203 83.848 248.823 84C247.626 84.475 246.448 84.741 245.346 84.741C241.926 84.741 240.197 82.423 240.197 78.129C240.197 73.55 241.964 71.498 245.517 71.498C246.619 71.498 247.341 71.536 248.044 71.65C248.424 71.707 248.538 71.821 248.538 72.144V73.284C248.538 73.626 248.367 73.797 248.044 73.759C247.284 73.664 246.638 73.588 245.669 73.588C243.275 73.588 242.382 74.785 242.382 78.129ZM252.984 86.622C252.984 86.945 252.794 87.135 252.49 87.135H251.293C250.989 87.135 250.799 86.945 250.799 86.622V70.814C250.799 70.491 250.989 70.301 251.293 70.301H252.49C252.794 70.301 252.984 70.491 252.984 70.814V77.331C253.117 77.084 253.383 76.951 253.763 76.951H254.884C255.207 76.951 255.359 77.103 255.359 77.426V78.566C255.359 78.889 255.207 79.041 254.884 79.041H253.649C253.193 79.041 252.984 79.231 252.984 79.649V86.622ZM260.073 83.829C260.073 84.817 261.004 85.444 263.911 85.444C266.818 85.444 267.749 84.817 267.749 83.829C267.749 82.841 266.818 82.214 263.911 82.214C261.004 82.214 260.073 82.841 260.073 83.829ZM262.98 74.785C262.98 73.417 262.163 72.543 260.89 72.543C259.617 72.543 258.819 73.417 258.819 74.785C258.819 76.153 259.636 77.046 260.89 77.046C262.163 77.046 262.98 76.153 262.98 74.785ZM257.888 83.829C257.888 81.435 259.864 80.219 263.911 80.219C267.958 80.219 269.934 81.435 269.934 83.829C269.934 86.223 267.958 87.439 263.911 87.439C259.864 87.439 257.888 86.223 257.888 83.829ZM265.165 74.785C265.165 77.35 263.493 79.041 260.89 79.041C258.306 79.041 256.634 77.35 256.634 74.785C256.634 72.22 258.287 70.548 260.89 70.548C263.493 70.548 265.165 72.22 265.165 74.785ZM269.516 75.716C269.649 75.469 269.915 75.336 270.295 75.336H271.416C271.739 75.336 271.891 75.488 271.891 75.811V76.856C271.891 77.179 271.739 77.331 271.416 77.331H270.181C269.725 77.331 269.516 77.521 269.516 77.939V78.832C269.516 79.155 269.326 79.345 269.022 79.345H267.825C267.521 79.345 267.331 79.155 267.331 78.832V70.814C267.331 70.491 267.521 70.301 267.825 70.301H269.022C269.326 70.301 269.516 70.491 269.516 70.814V71.783C269.649 71.536 269.915 71.403 270.295 71.403H271.416C271.739 71.403 271.891 71.555 271.891 71.878V72.923C271.891 73.246 271.739 73.398 271.416 73.398H270.181C269.725 73.398 269.516 73.588 269.516 74.006V75.716ZM277.498 78.262C278.885 78.262 279.455 77.863 279.455 77.065C279.455 76.267 278.885 75.868 277.498 75.868C276.111 75.868 275.541 76.267 275.541 77.065C275.541 77.863 276.111 78.262 277.498 78.262ZM273.356 77.065C273.356 74.994 274.743 73.93 277.498 73.93C280.253 73.93 281.64 74.994 281.64 77.065C281.64 79.136 280.253 80.2 277.498 80.2C274.743 80.2 273.356 79.136 273.356 77.065ZM286.048 81.492C286.048 81.815 285.858 82.005 285.554 82.005H284.357C284.053 82.005 283.863 81.815 283.863 81.492V70.814C283.863 70.491 284.053 70.301 284.357 70.301H285.554C285.858 70.301 286.048 70.491 286.048 70.814V75.241C286.181 74.994 286.447 74.861 286.827 74.861H287.948C288.271 74.861 288.423 75.013 288.423 75.336V76.381C288.423 76.704 288.271 76.856 287.948 76.856H286.713C286.257 76.856 286.048 77.046 286.048 77.464V81.492ZM279.056 70.928H281.754C282.077 70.928 282.229 71.08 282.229 71.403V72.448C282.229 72.771 282.077 72.923 281.754 72.923H273.261C272.938 72.923 272.786 72.771 272.786 72.448V71.403C272.786 71.08 272.938 70.928 273.261 70.928H276.757C276.586 70.833 276.472 70.662 276.472 70.415V69.94C276.472 69.617 276.624 69.465 276.947 69.465H278.182C278.505 69.465 278.657 69.617 278.657 69.94V70.586C278.657 70.833 278.771 70.928 279.056 70.928ZM274.914 82.157C274.971 81.834 275.142 81.663 275.465 81.663H276.605C276.928 81.663 277.137 81.872 277.099 82.176C277.042 82.632 276.985 83.05 276.985 83.677C276.985 84.817 277.726 85.425 278.885 85.425C282.058 85.425 283.749 85.311 285.991 85.102C286.295 85.064 286.466 85.216 286.485 85.558L286.561 86.603C286.58 86.888 286.428 87.04 286.105 87.078C284.224 87.268 281.925 87.42 278.98 87.42C276.339 87.42 274.8 86.09 274.8 83.886C274.8 83.202 274.838 82.632 274.914 82.157ZM302.491 80.561C301.18 80.561 300.23 79.839 299.831 78.585C299.318 79.801 298.216 80.561 296.924 80.561C296.563 80.561 296.259 80.542 296.259 80.086V78.908C296.259 78.623 296.43 78.471 296.791 78.471C298.064 78.471 298.805 77.426 298.805 75.64V71.802C298.805 71.479 298.995 71.289 299.299 71.289H300.496C300.8 71.289 300.99 71.479 300.99 71.802V76.02C300.99 77.673 301.484 78.471 302.491 78.471C303.498 78.471 303.992 77.673 303.992 76.02V71.802C303.992 71.479 304.182 71.289 304.486 71.289H305.683C305.987 71.289 306.177 71.479 306.177 71.802V75.64C306.177 77.426 306.918 78.471 308.191 78.471C308.552 78.471 308.723 78.623 308.723 78.908V80.086C308.723 80.542 308.419 80.561 308.058 80.561C306.766 80.561 305.664 79.801 305.151 78.585C304.752 79.839 303.802 80.561 302.491 80.561ZM295.765 83.297C297.57 83.506 299.755 83.62 302.396 83.62C305.113 83.62 307.602 83.506 309.084 83.316C309.407 83.278 309.597 83.449 309.597 83.772V84.817C309.597 85.14 309.464 85.273 309.122 85.33C307.83 85.539 305.303 85.653 302.396 85.653C299.375 85.653 297.152 85.539 295.727 85.311C295.385 85.254 295.252 85.102 295.252 84.798V83.753C295.252 83.43 295.442 83.259 295.765 83.297ZM315.698 82.689C316.439 82.689 317.313 82.48 318.187 82.1C318.263 82.062 318.339 82.043 318.396 82.043C318.548 82.043 318.662 82.157 318.738 82.366L319.08 83.506C319.175 83.791 319.08 83.962 318.738 84.095C317.712 84.494 316.572 84.741 315.546 84.741C312.734 84.741 311.328 83.354 311.328 80.751C311.328 78.11 312.335 76.932 314.805 76.932C315.964 76.932 316.401 76.4 316.401 75.26C316.401 73.968 315.926 73.55 314.653 73.55C313.988 73.55 313.475 73.626 312.373 73.835C312.069 73.892 311.898 73.74 311.898 73.436V72.22C311.898 71.935 312.012 71.802 312.335 71.745C313.19 71.593 314.178 71.498 315.071 71.498C317.56 71.498 318.776 72.448 318.776 74.272C318.776 75.45 318.187 76.457 317.389 77.065H318.168C318.472 77.065 318.529 77.198 318.529 77.502V78.528C318.529 78.832 318.472 78.965 318.168 78.965C317.522 78.965 316.857 78.946 315.66 78.946C314.216 78.946 313.418 79.497 313.418 80.827C313.418 82.119 314.064 82.689 315.698 82.689ZM319.65 76.875H320.486C320.923 76.875 321.056 76.742 321.056 76.362V70.966C321.056 70.643 321.208 70.491 321.531 70.491H322.671C322.994 70.491 323.146 70.643 323.146 70.966V86.66C323.146 86.983 322.994 87.135 322.671 87.135H321.531C321.208 87.135 321.056 86.983 321.056 86.66V78.623C320.942 78.832 320.676 78.965 320.41 78.965H319.65C319.327 78.965 319.175 78.813 319.175 78.49V77.35C319.175 77.027 319.327 76.875 319.65 76.875ZM326.471 70.776V86.66C326.471 86.983 326.319 87.135 325.996 87.135H324.856C324.533 87.135 324.381 86.983 324.381 86.66V70.776C324.381 70.453 324.533 70.301 324.856 70.301H325.996C326.319 70.301 326.471 70.453 326.471 70.776ZM336.789 84.095C336.732 84.418 336.58 84.551 336.257 84.551H335.041C334.699 84.551 334.509 84.342 334.566 84.038C335.06 81.283 335.288 78.566 335.288 75.792C335.288 74.177 334.775 73.607 333.35 73.607C331.963 73.607 330.88 73.778 329.626 73.949C329.322 73.987 329.132 73.778 329.132 73.455V72.353C329.132 72.049 329.284 71.878 329.607 71.84C331.07 71.631 332.4 71.498 333.768 71.498C336.428 71.498 337.492 72.657 337.492 75.583C337.492 78.585 337.264 81.302 336.789 84.095ZM340.019 70.814C340.019 70.491 340.209 70.301 340.513 70.301H341.71C342.014 70.301 342.204 70.491 342.204 70.814V86.622C342.204 86.945 342.014 87.135 341.71 87.135H340.513C340.209 87.135 340.019 86.945 340.019 86.622V70.814ZM352.56 84.095C352.503 84.418 352.351 84.551 352.028 84.551H350.812C350.47 84.551 350.28 84.342 350.337 84.038C350.831 81.283 351.059 78.566 351.059 75.792C351.059 74.177 350.546 73.607 349.121 73.607C347.734 73.607 346.651 73.778 345.397 73.949C345.093 73.987 344.903 73.778 344.903 73.455V72.353C344.903 72.049 345.055 71.878 345.378 71.84C346.841 71.631 348.171 71.498 349.539 71.498C352.199 71.498 353.263 72.657 353.263 75.583C353.263 78.585 353.035 81.302 352.56 84.095ZM357.595 86.622C357.595 86.945 357.405 87.135 357.101 87.135H355.904C355.6 87.135 355.41 86.945 355.41 86.622V70.814C355.41 70.491 355.6 70.301 355.904 70.301H357.101C357.405 70.301 357.595 70.491 357.595 70.814V77.331C357.728 77.084 357.994 76.951 358.374 76.951H359.495C359.818 76.951 359.97 77.103 359.97 77.426V78.566C359.97 78.889 359.818 79.041 359.495 79.041H358.26C357.804 79.041 357.595 79.231 357.595 79.649V86.622ZM372.917 74.88C372.917 73.436 372.1 72.543 370.827 72.543C369.554 72.543 368.756 73.436 368.756 74.88C368.756 76.324 369.573 77.236 370.827 77.236C372.1 77.236 372.917 76.324 372.917 74.88ZM373.981 87.249C372.67 87.249 371.568 86.413 371.112 85.254C370.58 86.394 369.326 87.249 367.901 87.249C367.54 87.249 367.255 87.23 367.255 86.774V85.691C367.255 85.387 367.388 85.254 367.73 85.254C369.117 85.254 370.048 84.171 370.048 82.803V81.017C370.048 80.694 370.238 80.504 370.542 80.504H371.739C372.043 80.504 372.233 80.694 372.233 81.017V83.221C372.233 84.418 372.86 85.254 373.981 85.254C375.102 85.254 375.729 84.418 375.729 83.221V81.017C375.729 80.694 375.919 80.504 376.223 80.504H377.42C377.724 80.504 377.914 80.694 377.914 81.017V82.803C377.914 84.171 378.845 85.254 380.232 85.254C380.574 85.254 380.707 85.387 380.707 85.691V86.774C380.707 87.23 380.422 87.249 380.061 87.249C378.636 87.249 377.382 86.394 376.85 85.254C376.394 86.413 375.292 87.249 373.981 87.249ZM375.102 74.88C375.102 77.521 373.43 79.231 370.827 79.231C368.243 79.231 366.571 77.521 366.571 74.88C366.571 72.239 368.224 70.548 370.827 70.548C373.43 70.548 375.102 72.239 375.102 74.88ZM377.648 70.814C377.648 70.491 377.838 70.301 378.142 70.301H379.339C379.643 70.301 379.833 70.491 379.833 70.814V78.642C379.833 78.965 379.643 79.155 379.339 79.155H378.142C377.838 79.155 377.648 78.965 377.648 78.642V70.814ZM386.503 73.398C385.097 73.398 384.527 74.766 384.527 78.11C384.527 81.454 385.097 82.841 386.503 82.841C387.909 82.841 388.498 81.473 388.498 78.11C388.498 74.766 387.909 73.398 386.503 73.398ZM390.683 78.11C390.683 82.803 389.391 84.931 386.503 84.931C383.615 84.931 382.342 82.803 382.342 78.11C382.342 73.398 383.596 71.308 386.503 71.308C389.41 71.308 390.683 73.398 390.683 78.11ZM393.419 70.814C393.419 70.491 393.609 70.301 393.913 70.301H395.11C395.414 70.301 395.604 70.491 395.604 70.814V86.622C395.604 86.945 395.414 87.135 395.11 87.135H393.913C393.609 87.135 393.419 86.945 393.419 86.622V78.585C393.286 78.832 393.02 78.965 392.64 78.965H391.785C391.462 78.965 391.31 78.813 391.31 78.49V77.35C391.31 77.027 391.462 76.875 391.785 76.875H392.754C393.21 76.875 393.419 76.685 393.419 76.267V70.814ZM407.462 80.637C406.911 80.732 406.303 80.789 405.657 80.789C404.897 80.789 404.194 80.713 403.567 80.58V83.012C403.567 83.43 403.776 83.601 404.232 83.601C405.163 83.62 406.835 83.601 407.975 83.582C407.671 83.468 407.462 83.145 407.462 82.746V80.637ZM405.657 78.756C408.089 78.756 409.4 77.73 409.4 75.944C409.4 74.12 408.146 73.132 405.657 73.132C403.168 73.132 401.914 74.12 401.914 75.944C401.914 77.73 403.225 78.756 405.657 78.756ZM399.729 75.944C399.729 72.866 401.895 71.099 405.657 71.099C409.419 71.099 411.585 72.866 411.585 75.944C411.585 77.673 410.901 78.984 409.647 79.82V82.898C409.647 83.316 409.856 83.487 410.312 83.487C410.863 83.487 411.832 83.373 412.174 83.316C412.497 83.278 412.687 83.449 412.687 83.772V84.817C412.687 85.14 412.554 85.273 412.212 85.33C410.92 85.539 408.393 85.653 405.486 85.653C402.465 85.653 400.242 85.539 398.817 85.311C398.475 85.254 398.342 85.102 398.342 84.798V83.753C398.342 83.43 398.532 83.259 398.855 83.297C399.9 83.449 400.85 83.582 401.819 83.639C401.553 83.487 401.382 83.202 401.382 82.841V79.82C401.382 79.744 401.382 79.687 401.401 79.63C400.318 78.813 399.729 77.559 399.729 75.944Z" fill="#422205"/>
</svg>
