<svg width="133" height="179" viewBox="0 0 133 179" fill="none" xmlns="http://www.w3.org/2000/svg">
<rect x="2.5" y="2.5" width="127.487" height="173.389" rx="12.5" fill="#EBEBEB" stroke="white" stroke-width="5"/>
<rect x="13.8369" y="16.0459" width="104.077" height="31.4195" fill="#BEBEBE"/>
<rect x="13.8369" y="55.5659" width="38.2925" height="48.8475" fill="#BEBEBE"/>
<rect x="79.6213" y="108.096" width="38.2925" height="48.8475" fill="#BEBEBE"/>
<rect x="58.5112" y="55.5659" width="59.4025" height="5.40022" fill="#BEBEBE"/>
<rect x="58.5112" y="63.9116" width="59.4025" height="5.40022" fill="#BEBEBE"/>
<rect x="58.5112" y="72.2573" width="59.4025" height="5.40022" fill="#BEBEBE"/>
<rect x="58.5112" y="80.603" width="59.4025" height="5.40022" fill="#BEBEBE"/>
<rect x="58.5112" y="88.9492" width="59.4025" height="5.40022" fill="#BEBEBE"/>
<rect x="58.5112" y="97.2949" width="59.4025" height="5.40022" fill="#BEBEBE"/>
<rect x="13.8369" y="112.514" width="59.4025" height="2.45465" fill="#BEBEBE"/>
<rect x="13.8369" y="117.914" width="59.4025" height="2.45465" fill="#BEBEBE"/>
<rect x="13.8369" y="123.314" width="59.4025" height="2.45465" fill="#BEBEBE"/>
<rect x="13.8369" y="134.114" width="59.4025" height="2.45465" fill="#BEBEBE"/>
<rect x="13.8369" y="139.515" width="59.4025" height="2.45465" fill="#BEBEBE"/>
<rect x="13.8369" y="144.915" width="59.4025" height="2.45465" fill="#BEBEBE"/>
<rect x="13.8369" y="150.315" width="59.4025" height="2.45465" fill="#BEBEBE"/>
<rect x="13.8369" y="128.714" width="59.4025" height="2.45465" fill="#BEBEBE"/>
</svg>
