<svg width="73" height="193" viewBox="0 0 73 193" fill="none" xmlns="http://www.w3.org/2000/svg">
<path d="M50.2663 5V2.5H47.7663H26.6066H24.1066V5V12.9423C23.9641 14.0426 23.9547 15.1071 23.9469 15.9993C23.945 16.217 23.9431 16.4245 23.9395 16.6198C23.9189 17.7177 23.8505 18.6886 23.5469 19.7719C22.944 21.9233 21.2745 24.9889 16.0582 29.9993C4.66738 40.9405 2.81839 56.5014 3.30023 63.1161C3.35921 70.648 3.4392 86.4261 3.30098 90.4343C3.14949 94.8276 4.10378 100.668 4.58481 103.013L4.65804 103.37L4.83012 103.692C5.12963 104.251 5.54955 105.361 5.66932 106.611C5.78781 107.848 5.59613 108.998 4.96825 109.919C3.51944 112.044 2.94552 115.235 2.69347 117.898C2.43306 120.649 2.47337 123.405 2.59418 125.169V171.633C2.59418 176.339 5.11575 180.416 7.87432 183.446C10.6622 186.508 13.9812 188.824 16.2446 190.052L16.8025 190.355H17.4373H55.8775C58.2975 190.355 60.3067 189.109 61.8516 187.598C63.4039 186.079 64.7178 184.077 65.8072 182.013C67.9914 177.876 69.5349 172.987 70.3012 169.738L70.368 169.455V169.164V125.081C70.368 118.81 68.5415 112.824 67.5604 110.438C67.2354 109.496 66.8515 108.001 66.7411 106.596C66.6849 105.88 66.7079 105.283 66.7952 104.838C66.88 104.405 66.9923 104.278 66.992 104.278C66.992 104.278 66.9919 104.278 66.9918 104.278C67.87 103.399 68.4059 102.168 68.761 101.121C69.1416 99.999 69.4304 98.725 69.6511 97.4749C70.0931 94.9707 70.3045 92.3128 70.3663 90.6114L70.368 90.5659V90.5205V63.0129C70.368 54.2388 68.8106 47.8061 66.2289 42.5948C63.66 37.4095 60.1555 33.6028 56.5873 30.0345C54.1363 27.5836 52.5406 24.3961 51.5599 21.3042C50.5786 18.2104 50.2663 15.3794 50.2663 13.8165V5Z" fill="#D2F1FF" stroke="white" stroke-width="5"/>
<path d="M42.7808 10H36V184H53.8766C58.315 184 61.4793 174.192 62.5067 169.289C63.3286 154.239 64 127 62.5067 121.604C61.5633 118.194 56.9588 102.834 60.6574 101.819C64.356 100.805 64.356 87.6152 64.9725 71.3819C65.5889 55.1487 55.7259 37.3936 48.3287 33.3353C42.4109 30.0886 42.1644 16.4257 42.7808 10Z" fill="#AFE6FF"/>
<path d="M5 57H36.5H68V91H36.5H5V57Z" fill="white" fill-opacity="0.6"/>
</svg>
