<svg width="236" height="276" viewBox="0 0 236 276" fill="none" xmlns="http://www.w3.org/2000/svg">
<path fill-rule="evenodd" clip-rule="evenodd" d="M20.5454 240.779C20.5454 235.916 24.4876 231.974 29.3506 231.974C34.2136 231.974 38.1558 235.916 38.1558 240.779V247.383H197.383V240.779C197.383 235.916 201.325 231.974 206.188 231.974C211.051 231.974 214.993 235.916 214.993 240.779V266.461C214.993 271.324 211.051 275.266 206.188 275.266C201.325 275.266 197.383 271.324 197.383 266.461V259.857H38.1558V266.461C38.1558 271.324 34.2136 275.266 29.3506 275.266C24.4876 275.266 20.5454 271.324 20.5454 266.461V240.779Z" fill="#454545"/>
<path d="M21.6346 37.5977C21.2904 31.8501 25.8588 27 31.6167 27H204.383C210.141 27 214.71 31.8501 214.365 37.5977L202.091 242.598C201.775 247.879 197.399 252 192.109 252H43.8914C38.6006 252 34.2255 247.879 33.9092 242.598L21.6346 37.5977Z" fill="#49C57B"/>
<path d="M8 27H229L213.653 60H23.3472L8 27Z" fill="#2B8750"/>
<rect width="236" height="52" rx="20" fill="#49C57B"/>
<path d="M128.441 98.81C128.441 97.928 128.861 97.508 129.743 97.508H132.809C133.691 97.508 134.111 97.928 134.111 98.81V122.498C134.111 123.38 133.691 123.8 132.809 123.8H129.743C128.861 123.8 128.441 123.38 128.441 122.498V113.3H126.929C126.005 113.3 125.291 113.972 125.291 114.896V122.498C125.291 123.38 124.871 123.8 123.989 123.8H120.923C120.041 123.8 119.621 123.38 119.621 122.498V99.23C119.621 98.348 120.041 97.928 120.923 97.928H123.989C124.871 97.928 125.291 98.348 125.291 99.23V108.386C125.627 107.924 126.215 107.63 126.929 107.63H128.441V98.81ZM109.667 117.206C109.961 116.24 110.213 115.022 110.423 113.678C107.399 113.846 104.459 114.014 102.023 114.182C101.183 114.266 100.721 113.72 100.721 112.88V109.814C100.721 108.974 101.183 108.596 102.023 108.512C104.459 108.302 107.609 108.092 111.137 107.966C111.179 107.504 111.179 107.084 111.179 106.748C111.179 104.816 110.507 104.144 108.575 104.144C107.021 104.144 104.879 104.396 101.603 104.9C100.805 105.026 100.301 104.48 100.301 103.598V100.532C100.301 99.776 100.637 99.44 101.603 99.23C103.955 98.726 106.685 98.474 109.079 98.474C114.581 98.474 116.891 100.658 116.891 105.824C116.891 108.428 116.093 114.56 115.337 117.416C115.127 118.214 114.707 118.508 113.867 118.508H110.759C109.835 118.508 109.415 118.046 109.667 117.206ZM115.463 135.77C109.037 135.77 105.383 132.746 105.383 127.454C105.383 125.354 105.509 124.388 105.635 123.38C105.761 122.498 106.139 121.994 107.021 121.994H110.339C111.221 121.994 111.851 122.498 111.725 123.38C111.557 124.682 111.473 125.396 111.473 126.53C111.473 128.924 113.027 130.1 116.219 130.1C122.309 130.1 129.197 129.764 133.649 129.344C134.489 129.26 134.909 129.806 134.951 130.646L135.161 133.712C135.203 134.552 134.699 134.93 133.859 135.014C129.659 135.476 123.275 135.77 115.463 135.77Z" fill="white"/>
</svg>
