<svg width="236" height="276" viewBox="0 0 236 276" fill="none" xmlns="http://www.w3.org/2000/svg">
<path fill-rule="evenodd" clip-rule="evenodd" d="M20.2727 241.513C20.2727 236.65 24.2149 232.708 29.0779 232.708C33.9409 232.708 37.8831 236.65 37.8831 241.513V248.116H197.11V241.513C197.11 236.65 201.053 232.708 205.916 232.708C210.779 232.708 214.721 236.65 214.721 241.513V267.195C214.721 272.058 210.779 276 205.916 276C201.053 276 197.11 272.058 197.11 267.195V260.59H37.8831V267.195C37.8831 272.058 33.9409 276 29.0779 276C24.2149 276 20.2727 272.058 20.2727 267.195V241.513Z" fill="#454545"/>
<path d="M20.638 37.6008C20.292 31.8521 24.8609 27 30.6199 27H204.38C210.139 27 214.708 31.8521 214.362 37.6008L202.024 242.601C201.706 247.881 197.332 252 192.042 252H42.9579C37.6684 252 33.2937 247.881 32.976 242.601L20.638 37.6008Z" fill="#FF4848"/>
<path d="M7 27H228L212.653 60H22.3472L7 27Z" fill="#BC2626"/>
<rect width="236" height="52" rx="20" fill="#FF4848"/>
<path d="M86.1376 128.504C86.1376 123.296 90.2956 121.196 100.502 121.196C110.708 121.196 114.866 123.296 114.866 128.504C114.866 133.712 110.708 135.812 100.502 135.812C90.2956 135.812 86.1376 133.712 86.1376 128.504ZM88.7416 98.432H111.968C112.85 98.432 113.312 98.894 113.312 99.776V102.338C113.312 103.22 112.85 103.682 111.968 103.682H103.778C104.702 105.656 107.726 107 112.556 107C113.48 107 113.942 107.42 113.942 108.218V110.948C113.942 111.746 113.48 112.208 112.556 112.25C107.054 112.502 102.14 110.108 100.376 106.832C98.5696 110.108 93.6556 112.502 88.1536 112.25C87.2296 112.208 86.7676 111.746 86.7676 110.948V108.218C86.7676 107.42 87.2296 107 88.1536 107C92.9836 107 96.0496 105.656 97.0156 103.682H88.7416C87.8596 103.682 87.3976 103.22 87.3976 102.338V99.776C87.3976 98.894 87.8596 98.432 88.7416 98.432ZM98.0656 114.77C97.4776 114.518 97.1416 113.972 97.1416 113.3V112.25C97.1416 111.368 97.6456 110.864 98.5276 110.864H101.888C102.77 110.864 103.232 111.368 103.232 112.25V113.426C103.232 114.224 103.736 114.686 104.744 114.728C106.802 114.812 111.968 114.644 115.244 114.392C116.126 114.308 116.672 114.77 116.672 115.652V118.13C116.672 118.886 116.252 119.39 115.286 119.474C112.682 119.726 106.718 119.81 100.166 119.81C94.2856 119.81 88.7416 119.768 85.0876 119.474C84.1216 119.39 83.7016 118.928 83.7016 118.13V115.652C83.7016 114.77 84.2056 114.308 85.0876 114.392C88.2376 114.644 93.5296 114.728 98.0656 114.77ZM92.2276 128.504C92.2276 130.31 93.8656 130.772 100.502 130.772C107.138 130.772 108.776 130.31 108.776 128.504C108.776 126.698 107.138 126.236 100.502 126.236C93.8656 126.236 92.2276 126.698 92.2276 128.504ZM130.391 99.734C137.237 99.734 140.261 104.354 140.261 114.98C140.261 125.606 137.195 130.268 130.391 130.268C123.587 130.268 120.563 125.606 120.563 114.98C120.563 104.354 123.587 99.734 130.391 99.734ZM126.569 114.98C126.569 121.91 127.661 124.598 130.391 124.598C133.163 124.598 134.255 121.952 134.255 114.98C134.255 108.05 133.163 105.404 130.391 105.404C127.661 105.404 126.569 108.05 126.569 114.98ZM145.049 98.894C145.049 98.012 145.553 97.508 146.435 97.508H149.753C150.635 97.508 151.139 98.012 151.139 98.894V133.754C151.139 134.636 150.635 135.14 149.753 135.14H146.435C145.553 135.14 145.049 134.636 145.049 133.754V98.894Z" fill="white"/>
</svg>
