<svg width="236" height="276" viewBox="0 0 236 276" fill="none" xmlns="http://www.w3.org/2000/svg">
<path fill-rule="evenodd" clip-rule="evenodd" d="M20.8376 240.779C20.8376 235.916 24.7799 231.974 29.6428 231.974C34.5058 231.974 38.448 235.916 38.448 240.779V247.383H197.675V240.779C197.675 235.916 201.618 231.974 206.48 231.974C211.343 231.974 215.286 235.916 215.286 240.779V266.461C215.286 271.324 211.343 275.266 206.48 275.266C201.618 275.266 197.675 271.324 197.675 266.461V259.857H38.448V266.461C38.448 271.324 34.5058 275.266 29.6428 275.266C24.7799 275.266 20.8376 271.324 20.8376 266.461V240.779Z" fill="#454545"/>
<path d="M21.6346 37.5977C21.2904 31.8501 25.8588 27 31.6167 27H204.383C210.141 27 214.71 31.8501 214.365 37.5977L202.091 242.598C201.775 247.879 197.399 252 192.109 252H43.8914C38.6006 252 34.2255 247.879 33.9092 242.598L21.6346 37.5977Z" fill="#FFB930"/>
<path d="M9 27H228L212.792 60H24.2083L9 27Z" fill="#EDA10E"/>
<rect width="236" height="52" rx="20" fill="#FFB930"/>
<path d="M76.4424 129.344C73.3764 129.344 71.2344 129.218 63.5484 129.218C57.3744 129.218 56.2824 129.47 56.2824 130.352C56.2824 131.276 57.5844 131.36 65.8584 131.36C69.3024 131.36 74.5524 131.108 77.3244 130.604C77.9964 130.478 78.4584 130.814 78.5004 131.486L78.7104 133.922C78.7524 134.51 78.3744 134.93 77.7444 135.014C74.7204 135.434 69.3444 135.77 65.9004 135.77C53.7624 135.77 50.1924 134.72 50.1924 130.268C50.1924 125.858 54.3084 124.808 63.4644 124.808C65.7744 124.808 68.4204 124.766 70.2684 124.766C71.3604 124.766 71.8224 124.514 71.8224 123.926C71.8224 123.296 71.4024 123.044 70.3524 123.044C66.3624 123.044 57.0804 123.338 52.1244 123.758C51.4524 123.8 51.0324 123.422 51.0324 122.75V120.314C51.0324 119.684 51.3684 119.348 52.1244 119.306C58.4664 118.844 67.1604 118.592 73.6704 118.802C76.3584 118.886 77.8704 119.852 77.8704 121.868C77.8704 123.506 76.9464 124.682 75.4344 125.186H76.4424C77.0724 125.186 77.5344 125.564 77.5344 126.152V128.336C77.5344 128.924 77.1144 129.344 76.4424 129.344ZM51.7464 103.052C50.9484 103.052 50.6124 102.674 50.6124 101.876V99.608C50.6124 98.726 50.9904 98.432 51.7464 98.432H76.1064C76.8624 98.432 77.2404 98.726 77.2404 99.608V101.876C77.2404 102.674 76.9044 103.052 76.1064 103.052H73.4604L72.8724 106.328C74.4684 106.244 75.8124 106.16 76.6944 106.076C77.4504 105.992 77.8704 106.328 77.8704 107.042V109.604C77.8704 110.318 77.6184 110.612 76.8204 110.696C74.5944 110.99 69.5544 111.2 63.9264 111.2C58.2984 111.2 53.4264 110.948 51.0324 110.696C50.2344 110.612 49.9824 110.318 49.9824 109.604V107.042C49.9824 106.328 50.4024 105.992 51.1584 106.076C52.0404 106.16 53.3844 106.286 54.9804 106.328L54.3924 103.052H51.7464ZM63.7584 112.628C70.3104 112.628 76.3584 112.544 78.9624 112.292C79.8444 112.208 80.3064 112.586 80.3064 113.468V115.694C80.3064 116.45 79.9704 116.87 79.0044 116.954C76.4004 117.206 70.3524 117.29 63.8004 117.29C57.9204 117.29 52.2924 117.248 48.6384 116.954C47.6724 116.87 47.3364 116.492 47.3364 115.694V113.468C47.3364 112.586 47.7564 112.208 48.6384 112.292C52.2504 112.586 57.8784 112.628 63.7584 112.628ZM61.0704 106.538C61.9944 106.538 62.9604 106.538 63.9264 106.538C64.8924 106.538 65.8584 106.538 66.7824 106.496L67.4124 103.052H60.4404L61.0704 106.538ZM96.2096 100.154C101.25 100.154 103.938 102.38 103.938 106.496C103.938 108.932 103.014 110.906 101.334 112.208H102.384C103.224 112.208 103.602 112.586 103.602 113.426V116.24C103.602 117.08 103.224 117.458 102.384 117.458C100.158 117.458 98.4356 117.416 96.8816 117.416C92.0936 117.416 90.6236 118.214 90.6236 120.818C90.6236 123.212 92.0516 124.178 95.6636 124.178C97.8476 124.178 100.494 123.674 102.846 122.75C103.014 122.666 103.182 122.624 103.35 122.624C103.812 122.624 104.106 123.002 104.316 123.716L105.156 126.656C105.408 127.496 105.072 127.958 104.106 128.294C101.124 129.344 97.8056 129.848 94.6976 129.848C88.0196 129.848 84.5336 126.74 84.5336 120.818C84.5336 114.896 87.9776 111.746 94.5296 111.746C96.8396 111.746 97.8476 110.864 97.8476 108.848C97.8476 106.748 96.7976 105.866 94.2776 105.866C92.0516 105.866 89.9936 106.034 87.0956 106.454C86.2556 106.58 85.7936 106.202 85.7936 105.362V102.002C85.7936 101.204 86.1296 100.826 87.0116 100.7C89.8676 100.28 92.0936 100.154 96.2096 100.154ZM113.934 133.754C113.934 134.636 113.43 135.14 112.548 135.14H109.23C108.348 135.14 107.844 134.636 107.844 133.754V98.894C107.844 98.012 108.348 97.508 109.23 97.508H112.548C113.43 97.508 113.934 98.012 113.934 98.894V112.964C114.396 112.25 115.362 111.788 116.538 111.788H117.882C118.722 111.788 119.184 112.25 119.184 113.09V116.366C119.184 117.206 118.722 117.668 117.882 117.668H116.37C114.942 117.668 113.934 118.634 113.934 119.978V133.754ZM138.741 114.014C137.103 117.794 132.861 120.608 127.233 120.608C126.267 120.608 125.133 120.608 125.133 119.306V116.156C125.133 115.358 125.595 114.938 126.519 114.938C132.483 114.938 135.717 111.578 135.717 106.916V101.078C135.717 100.196 136.221 99.692 137.103 99.692H140.421C141.303 99.692 141.807 100.196 141.807 101.078V106.916C141.807 111.578 144.999 114.938 150.921 114.938C151.845 114.938 152.307 115.358 152.307 116.156V119.306C152.307 120.608 151.173 120.608 150.207 120.608C144.579 120.608 140.337 117.794 138.741 114.014ZM123.453 125.858C127.107 126.32 132.651 126.572 138.531 126.572C145.083 126.572 151.047 126.278 153.651 125.858C154.533 125.69 155.037 126.236 155.037 127.118V130.226C155.037 130.982 154.617 131.402 153.651 131.57C151.047 132.032 145.083 132.284 138.531 132.284C132.651 132.284 127.107 132.074 123.453 131.57C122.487 131.444 122.067 131.024 122.067 130.226V127.118C122.067 126.236 122.571 125.732 123.453 125.858ZM183.414 98.894C183.414 98.012 183.918 97.508 184.8 97.508H188.118C189 97.508 189.504 98.012 189.504 98.894V117.374C189.504 118.256 189 118.76 188.118 118.76H184.8C183.918 118.76 183.414 118.256 183.414 117.374V98.894ZM171.99 110.024C166.614 110.024 165.354 110.36 165.354 111.872C165.354 113.384 166.74 113.888 171.024 113.888C172.83 113.888 175.308 113.678 177.66 113.006C177.912 112.922 178.122 112.922 178.29 112.922C178.794 112.922 179.088 113.174 179.256 113.804L179.844 116.03C180.096 116.912 179.76 117.416 178.878 117.71C176.526 118.466 173.46 118.928 170.436 118.928C162.372 118.928 159.264 116.996 159.264 111.998C159.264 106.706 162.246 104.984 171.318 104.984C173.292 104.984 175.266 105.11 176.82 105.362C177.66 105.488 177.996 105.908 177.996 106.832V109.142C177.996 110.024 177.492 110.444 176.61 110.318C175.014 110.108 173.334 110.024 171.99 110.024ZM177.366 98.474C178.248 98.474 178.752 98.978 178.752 99.86V102.002C178.752 102.884 178.248 103.388 177.366 103.388H161.112C160.23 103.388 159.726 102.884 159.726 102.002V99.86C159.726 98.978 160.23 98.474 161.112 98.474H177.366ZM163.422 122.288C167.622 121.826 172.704 121.532 180.978 121.532C186.732 121.532 189.378 123.926 189.378 128.966C189.378 131.57 189.252 133.04 189.126 134.048C189 134.93 188.622 135.35 187.74 135.35H184.338C183.456 135.35 182.91 134.846 183.036 133.964C183.204 132.662 183.288 131.654 183.288 130.268C183.288 128.126 182.364 127.202 180.054 127.202C173.376 127.202 168.126 127.622 163.422 127.958C162.582 128 162.12 127.496 162.12 126.656V123.59C162.12 122.75 162.582 122.372 163.422 122.288Z" fill="white"/>
</svg>
