<svg width="654" height="164" viewBox="0 0 654 164" fill="none" xmlns="http://www.w3.org/2000/svg">
<rect y="54" width="654" height="110" rx="20" fill="#8F7561"/>
<rect y="47" width="654" height="109" rx="20" fill="#F8E5BF"/>
<path fill-rule="evenodd" clip-rule="evenodd" d="M654 101V136C654 147.046 645.046 156 634 156H20C8.95432 156 0 147.046 0 136V101H654Z" fill="#E9D8B7"/>
<circle cx="528.5" cy="66.5" r="6.5" fill="white"/>
<circle cx="120.5" cy="66.5" r="6.5" fill="white"/>
<rect x="117" width="6" height="63" rx="3" fill="#8F7561"/>
<rect x="526" width="5" height="63" rx="2.5" fill="#8F7561"/>
<path d="M33.7258 127.04C32.9898 126.944 32.6698 126.624 32.6698 126.016V123.648C32.6698 122.976 33.0538 122.592 33.7258 122.688C35.4218 122.912 37.3418 123.104 39.6778 123.168C39.1338 122.912 38.8458 122.304 38.8458 121.504V119.616C35.5818 119.04 34.0458 117.184 34.0458 114.24C34.0458 110.656 36.3177 108.736 41.3418 108.736C46.3338 108.736 48.6698 110.688 48.6698 114.24C48.6698 117.28 47.0378 119.168 43.4858 119.68V121.76C43.4858 122.624 43.9338 123.104 44.8618 123.104C46.0778 123.104 47.2938 122.976 48.8618 122.688C49.5338 122.56 49.9498 122.976 49.9498 123.648V126.016C49.9498 126.592 49.6298 126.88 48.8938 127.04C47.5498 127.328 44.2858 127.52 41.2138 127.52C37.6938 127.52 35.8698 127.36 33.7258 127.04ZM56.0618 128.384C56.0618 129.056 55.6778 129.44 55.0058 129.44H52.4778C51.8058 129.44 51.4218 129.056 51.4218 128.384V101.824C51.4218 101.152 51.8058 100.768 52.4778 100.768H55.0058C55.6778 100.768 56.0618 101.152 56.0618 101.824V112.544C56.4138 112 57.1498 111.648 58.0458 111.648H59.0698C59.7098 111.648 60.0618 112 60.0618 112.64V115.136C60.0618 115.776 59.7098 116.128 59.0698 116.128H57.9178C56.8298 116.128 56.0618 116.864 56.0618 117.888V128.384ZM39.0698 101.28C39.0698 100.608 39.3898 100.288 40.0618 100.288H42.7178C43.3898 100.288 43.7098 100.608 43.7098 101.28V102.4C43.7098 102.816 43.9978 103.104 44.5738 103.104H48.6378C49.2778 103.104 49.6298 103.456 49.6298 104.096V106.208C49.6298 106.848 49.2778 107.2 48.6378 107.2H34.0138C33.3738 107.2 33.0218 106.848 33.0218 106.208V104.096C33.0218 103.456 33.3738 103.104 34.0138 103.104H39.5498C39.2298 102.912 39.0698 102.624 39.0698 102.176V101.28ZM41.3418 112.576C39.3898 112.576 38.6218 113.28 38.6218 114.24C38.6218 115.264 39.3898 115.968 41.3418 115.968C43.3258 115.968 44.0938 115.264 44.0938 114.24C44.0938 113.248 43.3578 112.576 41.3418 112.576ZM63.9865 123.712C63.9865 119.52 67.4745 117.472 74.6105 117.472C81.7465 117.472 85.2345 119.52 85.2345 123.712C85.2345 127.904 81.7465 129.952 74.6105 129.952C67.4745 129.952 63.9865 127.904 63.9865 123.712ZM76.0825 101.504C76.7545 101.504 77.1385 101.888 77.1385 102.56V104.768C77.1385 105.44 76.7545 105.824 76.0825 105.824H71.8585V106.336C71.8585 109.408 73.7145 111.168 76.3065 111.168C76.9785 111.168 77.2985 111.488 77.2985 112.096V114.496C77.2985 115.136 76.9785 115.488 76.3065 115.488C73.1705 115.488 70.4505 114.048 69.5865 111.36C68.6905 114.048 65.9705 115.488 62.7705 115.488C62.0665 115.488 61.7145 115.104 61.7145 114.496V112.096C61.7145 111.488 62.0665 111.168 62.7705 111.168C65.3625 111.168 67.2185 109.408 67.2185 106.336V105.824H62.9305C62.2585 105.824 61.8745 105.44 61.8745 104.768V102.56C61.8745 101.888 62.2585 101.504 62.9305 101.504H76.0825ZM84.5305 115.264C84.5305 115.936 84.1465 116.32 83.4745 116.32H80.9465C80.2745 116.32 79.8905 115.936 79.8905 115.264V101.824C79.8905 101.152 80.2745 100.768 80.9465 100.768H83.4745C84.1465 100.768 84.5305 101.152 84.5305 101.824V106.784C84.8825 106.24 85.6185 105.888 86.5145 105.888H87.5385C88.1785 105.888 88.5305 106.24 88.5305 106.88V109.216C88.5305 109.856 88.1785 110.208 87.5385 110.208H86.3865C85.2985 110.208 84.5305 110.944 84.5305 111.968V115.264ZM74.6105 125.792C79.1545 125.792 80.5945 125.248 80.5945 123.712C80.5945 122.176 79.1545 121.632 74.6105 121.632C70.0665 121.632 68.6265 122.176 68.6265 123.712C68.6265 125.248 70.0665 125.792 74.6105 125.792ZM102.951 124.64C98.2473 124.64 97.4153 124.832 97.4153 125.504C97.4153 126.208 98.4073 126.336 104.711 126.336C107.335 126.336 111.335 126.144 113.447 125.76C113.959 125.664 114.311 125.92 114.343 126.432L114.503 128.512C114.535 128.96 114.247 129.28 113.767 129.344C111.463 129.664 107.367 129.92 104.743 129.92C95.4953 129.92 92.7753 128.832 92.7753 125.44C92.7753 122.08 95.9113 121.056 102.887 121.056C104.647 121.056 106.663 121.024 108.071 121.024C108.903 121.024 109.255 120.8 109.255 120.352C109.255 119.872 108.935 119.648 108.135 119.648C105.095 119.648 98.0233 119.872 94.2473 120.192C93.7352 120.224 93.4153 119.936 93.4153 119.424V117.344C93.4153 116.864 93.6713 116.608 94.2473 116.576C99.0793 116.224 105.703 116.032 110.663 116.192C112.711 116.256 113.863 117.152 113.863 118.688C113.863 119.936 113.159 120.928 112.007 121.344H112.775C113.255 121.344 113.607 121.632 113.607 122.08V123.968C113.607 124.416 113.287 124.736 112.775 124.736C110.439 124.736 108.807 124.64 102.951 124.64ZM98.0553 110.24C97.1593 112.64 94.4393 114.528 91.2393 114.528C90.5353 114.528 90.1833 114.144 90.1833 113.536V111.136C90.1833 110.528 90.5353 110.208 91.2393 110.208C93.8313 110.208 95.6873 108.512 95.6873 105.76V102.656C95.6873 101.92 96.0713 101.504 96.7433 101.504H99.3033C99.9433 101.504 100.327 101.92 100.327 102.656V105.76C100.327 108.512 102.183 110.208 104.775 110.208C105.447 110.208 105.767 110.528 105.767 111.136V113.536C105.767 114.176 105.447 114.528 104.775 114.528C101.639 114.528 98.9193 112.608 98.0553 110.24ZM108.999 101.824C108.999 101.152 109.383 100.768 110.055 100.768H112.583C113.255 100.768 113.639 101.152 113.639 101.824V113.664C113.639 114.336 113.255 114.72 112.583 114.72H110.055C109.383 114.72 108.999 114.336 108.999 113.664V101.824ZM124.891 106.208C124.891 107.36 126.235 107.712 130.715 107.712C135.195 107.712 136.539 107.36 136.539 106.208C136.539 105.024 135.259 104.672 130.715 104.672C126.171 104.672 124.891 105.024 124.891 106.208ZM140.091 125.024C137.755 125.024 136.123 124.928 130.267 124.928C125.563 124.928 124.731 125.12 124.731 125.792C124.731 126.496 125.723 126.56 132.027 126.56C134.651 126.56 138.651 126.368 140.763 125.984C141.275 125.888 141.627 126.144 141.659 126.656L141.819 128.512C141.851 128.96 141.563 129.28 141.083 129.344C138.779 129.664 134.683 129.92 132.059 129.92C122.811 129.92 120.091 129.12 120.091 125.728C120.091 122.368 123.227 121.568 130.203 121.568C131.963 121.568 133.979 121.536 135.387 121.536C136.219 121.536 136.571 121.344 136.571 120.896C136.571 120.416 136.251 120.224 135.451 120.224C132.411 120.224 125.339 120.448 121.563 120.768C121.051 120.8 120.731 120.512 120.731 120V118.144C120.731 117.664 120.987 117.408 121.563 117.376C126.395 117.024 133.019 116.832 137.979 116.992C140.027 117.056 141.179 117.792 141.179 119.328C141.179 120.576 140.475 121.472 139.323 121.856H140.091C140.571 121.856 140.923 122.144 140.923 122.592V124.256C140.923 124.704 140.603 125.024 140.091 125.024ZM130.427 112.288C135.419 112.288 140.027 112.224 142.011 112.032C142.683 111.968 143.035 112.256 143.035 112.928V114.624C143.035 115.2 142.779 115.52 142.043 115.584C140.059 115.776 135.451 115.84 130.459 115.84C125.979 115.84 121.691 115.808 118.907 115.584C118.171 115.52 117.915 115.232 117.915 114.624V112.928C117.915 112.256 118.235 111.968 118.907 112.032C121.659 112.256 125.947 112.288 130.427 112.288ZM130.715 101.152C138.203 101.152 141.179 102.592 141.179 106.208C141.179 109.792 138.203 111.232 130.715 111.232C123.227 111.232 120.251 109.792 120.251 106.208C120.251 102.592 123.227 101.152 130.715 101.152ZM155.992 103.712C156.056 103.04 156.376 102.784 157.08 102.784H159.576C160.312 102.784 160.696 103.2 160.632 103.84C160.152 108.512 159.928 111.68 159.928 116.32C159.928 119.744 161.24 121.088 163.928 121.088C165.016 121.088 166.904 120.64 168.536 120C168.664 119.936 168.792 119.904 168.92 119.904C169.272 119.904 169.496 120.192 169.656 120.736L170.296 122.976C170.488 123.616 170.232 123.936 169.496 124.224C167.576 124.96 165.272 125.408 163.8 125.408C158.136 125.408 155.288 122.656 155.288 116.544C155.288 111.68 155.512 108.64 155.992 103.712ZM172.984 128.384V101.824C172.984 101.152 173.368 100.768 174.04 100.768H176.568C177.24 100.768 177.624 101.152 177.624 101.824V112.544C177.976 112 178.712 111.648 179.608 111.648H180.632C181.272 111.648 181.624 112 181.624 112.64V115.136C181.624 115.776 181.272 116.128 180.632 116.128H179.48C178.392 116.128 177.624 116.864 177.624 117.888V128.384C177.624 129.056 177.24 129.44 176.568 129.44H174.04C173.368 129.44 172.984 129.056 172.984 128.384ZM192.653 124.032C193.453 118.784 193.805 114.72 193.805 110.368C193.805 107.968 193.165 107.104 191.341 107.104C188.525 107.104 186.861 107.456 184.749 107.68C184.141 107.744 183.757 107.36 183.757 106.688V104.352C183.757 103.744 184.045 103.456 184.749 103.36C187.981 102.912 189.773 102.784 192.045 102.784C196.589 102.784 198.477 104.832 198.477 109.824C198.477 114.944 198.157 119.36 197.293 124.16C197.165 124.864 196.877 125.088 196.205 125.088H193.645C192.941 125.088 192.557 124.672 192.653 124.032ZM206.093 128.384C206.093 129.056 205.709 129.44 205.037 129.44H202.509C201.837 129.44 201.453 129.056 201.453 128.384V101.824C201.453 101.152 201.837 100.768 202.509 100.768H205.037C205.709 100.768 206.093 101.152 206.093 101.824V112.544C206.445 112 207.181 111.648 208.077 111.648H209.101C209.741 111.648 210.093 112 210.093 112.64V115.136C210.093 115.776 209.741 116.128 209.101 116.128H207.949C206.861 116.128 206.093 116.864 206.093 117.888V128.384ZM221.122 124.032C221.922 118.784 222.274 114.72 222.274 110.368C222.274 107.968 221.634 107.104 219.81 107.104C216.994 107.104 215.33 107.456 213.218 107.68C212.61 107.744 212.226 107.36 212.226 106.688V104.352C212.226 103.744 212.514 103.456 213.218 103.36C216.45 102.912 218.242 102.784 220.514 102.784C225.058 102.784 226.946 104.832 226.946 109.824C226.946 114.944 226.626 119.36 225.762 124.16C225.634 124.864 225.346 125.088 224.674 125.088H222.114C221.41 125.088 221.026 124.672 221.122 124.032ZM230.562 101.824C230.562 101.152 230.946 100.768 231.618 100.768H234.146C234.818 100.768 235.202 101.152 235.202 101.824V128.384C235.202 129.056 234.818 129.44 234.146 129.44H231.618C230.946 129.44 230.562 129.056 230.562 128.384V101.824ZM261.95 101.504C262.622 101.504 263.006 101.888 263.006 102.56V104.768C263.006 105.44 262.622 105.824 261.95 105.824H257.886V107.616C257.886 110.688 259.678 112.448 262.174 112.448C262.846 112.448 263.166 112.768 263.166 113.376V115.776C263.166 116.416 262.846 116.768 262.174 116.768C259.134 116.768 256.478 115.328 255.614 112.64C254.718 115.328 252.062 116.768 248.958 116.768C248.254 116.768 247.902 116.384 247.902 115.776V113.376C247.902 112.768 248.254 112.448 248.958 112.448C251.454 112.448 253.246 110.688 253.246 107.616V105.824H249.118C248.446 105.824 248.062 105.44 248.062 104.768V102.56C248.062 101.888 248.446 101.504 249.118 101.504H261.95ZM258.494 129.92C253.598 129.92 250.814 127.616 250.814 123.584C250.814 121.984 250.91 121.248 251.006 120.48C251.102 119.808 251.39 119.424 252.062 119.424H254.59C255.262 119.424 255.742 119.808 255.646 120.48C255.518 121.472 255.454 122.016 255.454 122.88C255.454 124.704 256.638 125.6 259.07 125.6C263.39 125.6 267.678 125.344 271.07 125.024C271.71 124.96 272.03 125.376 272.062 126.016L272.222 128.352C272.254 128.992 271.87 129.28 271.23 129.344C268.03 129.696 264.126 129.92 258.494 129.92ZM266.718 110.304C266.398 110.848 265.758 111.168 264.894 111.168H263.518C262.878 111.168 262.526 110.816 262.526 110.176V107.84C262.526 107.2 262.878 106.848 263.518 106.848H265.022C266.11 106.848 266.718 106.272 266.718 105.248V101.824C266.718 101.152 267.102 100.768 267.774 100.768H270.302C270.974 100.768 271.358 101.152 271.358 101.824V119.104C271.358 119.776 270.974 120.16 270.302 120.16H267.774C267.102 120.16 266.718 119.776 266.718 119.104V110.304ZM305.978 101.76C305.978 101.088 306.298 100.768 306.97 100.768H309.306C309.978 100.768 310.298 101.088 310.298 101.76V128.448C310.298 129.12 309.978 129.44 309.306 129.44H306.97C306.298 129.44 305.978 129.12 305.978 128.448V116.128H304.666C303.962 116.128 303.418 116.64 303.418 117.344V128.448C303.418 129.12 303.098 129.44 302.426 129.44H300.09C299.418 129.44 299.098 129.12 299.098 128.448V102.08C299.098 101.408 299.418 101.088 300.09 101.088H302.426C303.098 101.088 303.418 101.408 303.418 102.08V112.256C303.706 111.872 304.218 111.648 304.762 111.648H305.978V101.76ZM290.394 109.536C294.746 109.536 296.57 112.416 296.57 117.312C296.57 122.208 294.746 125.088 290.394 125.088C286.042 125.088 284.218 122.208 284.218 117.312C284.218 112.416 286.042 109.536 290.394 109.536ZM292.506 102.72C292.506 103.136 292.794 103.424 293.37 103.424H296.506C297.178 103.424 297.562 103.808 297.562 104.48V106.688C297.562 107.36 297.178 107.744 296.506 107.744H284.314C283.642 107.744 283.258 107.36 283.258 106.688V104.48C283.258 103.808 283.642 103.424 284.314 103.424H288.826C288.506 103.232 288.346 102.944 288.346 102.496V100.992C288.346 100.32 288.666 100 289.338 100H291.514C292.186 100 292.506 100.32 292.506 100.992V102.72ZM290.394 120.832C291.802 120.832 292.314 119.552 292.314 117.312C292.314 115.072 291.802 113.792 290.394 113.792C288.986 113.792 288.474 115.072 288.474 117.312C288.474 119.552 288.986 120.832 290.394 120.832ZM321.613 106.784C319.533 106.784 318.701 108.8 318.701 114.08C318.701 119.36 319.533 121.408 321.613 121.408C323.725 121.408 324.557 119.392 324.557 114.08C324.557 108.8 323.725 106.784 321.613 106.784ZM329.133 114.08C329.133 122.176 326.797 125.728 321.613 125.728C316.429 125.728 314.125 122.176 314.125 114.08C314.125 105.984 316.429 102.464 321.613 102.464C326.829 102.464 329.133 105.984 329.133 114.08ZM336.781 118.272C337.101 117.728 337.741 117.408 338.573 117.408H339.789C340.429 117.408 340.781 117.76 340.781 118.4V120.896C340.781 121.536 340.429 121.888 339.789 121.888H338.413C337.325 121.888 336.781 122.56 336.781 123.584V128.384C336.781 129.056 336.397 129.44 335.725 129.44H333.197C332.525 129.44 332.141 129.056 332.141 128.384V101.824C332.141 101.152 332.525 100.768 333.197 100.768H335.725C336.397 100.768 336.781 101.152 336.781 101.824V106.752C337.101 106.208 337.741 105.888 338.573 105.888H339.789C340.429 105.888 340.781 106.24 340.781 106.88V109.376C340.781 110.016 340.429 110.368 339.789 110.368H338.413C337.325 110.368 336.781 111.04 336.781 112.064V118.272ZM350.209 120.832C351.937 120.832 352.929 119.552 352.929 117.312C352.929 115.072 351.937 113.792 350.209 113.792C348.481 113.792 347.489 115.072 347.489 117.312C347.489 119.552 348.481 120.832 350.209 120.832ZM350.209 109.536C354.817 109.536 357.505 112.416 357.505 117.312C357.505 122.208 354.817 125.088 350.209 125.088C345.601 125.088 342.913 122.208 342.913 117.312C342.913 112.416 345.601 109.536 350.209 109.536ZM365.249 128.384C365.249 129.056 364.865 129.44 364.193 129.44H361.665C360.993 129.44 360.609 129.056 360.609 128.384V101.824C360.609 101.152 360.993 100.768 361.665 100.768H364.193C364.865 100.768 365.249 101.152 365.249 101.824V112.544C365.601 112 366.337 111.648 367.233 111.648H368.257C368.897 111.648 369.249 112 369.249 112.64V115.136C369.249 115.776 368.897 116.128 368.257 116.128H367.105C366.017 116.128 365.249 116.864 365.249 117.888V128.384ZM352.577 102.72C352.577 103.136 352.865 103.424 353.441 103.424H357.441C358.113 103.424 358.497 103.808 358.497 104.48V106.688C358.497 107.36 358.113 107.744 357.441 107.744H343.009C342.337 107.744 341.953 107.36 341.953 106.688V104.48C341.953 103.808 342.337 103.424 343.009 103.424H348.417C348.097 103.232 347.937 102.944 347.937 102.496V100.992C347.937 100.32 348.257 100 348.929 100H351.585C352.257 100 352.577 100.32 352.577 100.992V102.72ZM372.502 115.072C375.254 115.296 379.478 115.328 383.958 115.328C388.95 115.328 393.494 115.264 395.478 115.072C396.15 115.008 396.566 115.36 396.566 116.032V117.92C396.566 118.496 396.246 118.88 395.51 118.944C393.526 119.136 388.982 119.2 383.99 119.2C379.51 119.2 375.286 119.168 372.502 118.944C371.766 118.88 371.446 118.528 371.446 117.92V116.032C371.446 115.36 371.83 115.008 372.502 115.072ZM393.91 112.832C390.39 113.248 386.486 113.408 380.822 113.408C376.438 113.408 374.102 111.424 374.102 107.584C374.102 106.08 374.198 103.712 374.294 102.464C374.358 101.792 374.806 101.472 375.51 101.472H378.038C378.71 101.472 378.998 101.856 378.934 102.528C378.806 103.68 378.742 105.696 378.742 106.592C378.742 108.224 379.766 109.088 381.526 109.088C385.974 109.088 389.878 108.928 393.59 108.512C394.262 108.448 394.614 108.8 394.678 109.44L394.87 111.808C394.934 112.448 394.55 112.768 393.91 112.832ZM394.39 129.344C390.358 129.728 385.174 129.92 380.15 129.92C375.958 129.92 373.622 127.808 373.622 124.032C373.622 122.944 373.718 122.368 373.814 121.76C373.942 121.024 374.262 120.704 374.87 120.704H377.398C378.134 120.704 378.55 121.12 378.454 121.76C378.39 122.208 378.262 122.912 378.262 123.456C378.262 124.896 379.126 125.6 380.694 125.6C385.526 125.6 390.678 125.376 394.102 125.024C394.71 124.96 395.158 125.344 395.19 126.016L395.35 128.288C395.382 128.896 395.062 129.28 394.39 129.344ZM421.716 115.296C421.524 115.872 421.204 116.128 420.468 116.128H417.908C417.172 116.128 416.884 115.744 417.076 115.136C417.78 112.928 418.228 109.952 418.228 108.128C418.228 106.368 417.716 105.824 416.084 105.824C413.748 105.824 411.604 106.112 409.492 106.4C408.884 106.496 408.5 106.08 408.5 105.408V103.072C408.5 102.464 408.788 102.176 409.492 102.08C412.34 101.664 414.612 101.504 416.788 101.504C421.076 101.504 422.9 103.328 422.9 107.584C422.9 110.336 422.196 113.856 421.716 115.296ZM427.156 109.664C426.836 110.208 426.196 110.528 425.332 110.528H424.756C424.116 110.528 423.764 110.176 423.764 109.536V107.2C423.764 106.56 424.116 106.208 424.756 106.208H425.46C426.548 106.208 427.156 105.632 427.156 104.608V101.824C427.156 101.152 427.54 100.768 428.212 100.768H430.74C431.412 100.768 431.796 101.152 431.796 101.824V117.504C431.796 118.176 431.412 118.56 430.74 118.56H428.212C427.54 118.56 427.156 118.176 427.156 117.504V109.664ZM421.46 124.576C420.148 127.2 416.628 129.632 412.18 129.632C411.444 129.632 410.612 129.632 410.612 128.64V126.24C410.612 125.632 410.964 125.312 411.668 125.312C415.668 125.312 419.156 122.944 419.156 120.032V119.488C419.156 118.816 419.54 118.432 420.212 118.432H422.74C423.412 118.432 423.796 118.816 423.796 119.488V120.032C423.796 122.944 427.22 125.312 431.22 125.312C431.924 125.312 432.276 125.632 432.276 126.24V128.64C432.276 129.632 431.444 129.632 430.708 129.632C426.26 129.632 422.74 127.2 421.46 124.576ZM437.127 115.072C439.879 115.296 444.103 115.328 448.583 115.328C453.575 115.328 458.119 115.264 460.103 115.072C460.775 115.008 461.191 115.36 461.191 116.032V117.92C461.191 118.496 460.871 118.88 460.135 118.944C458.151 119.136 453.607 119.2 448.615 119.2C444.135 119.2 439.911 119.168 437.127 118.944C436.391 118.88 436.071 118.528 436.071 117.92V116.032C436.071 115.36 436.455 115.008 437.127 115.072ZM438.407 107.36C438.407 103.04 441.607 101.152 448.871 101.152C456.135 101.152 459.335 103.04 459.335 107.36C459.335 111.68 456.135 113.568 448.871 113.568C441.607 113.568 438.407 111.68 438.407 107.36ZM448.871 109.728C453.191 109.728 454.695 109.12 454.695 107.36C454.695 105.6 453.191 104.992 448.871 104.992C444.615 104.992 443.047 105.632 443.047 107.36C443.047 109.088 444.615 109.728 448.871 109.728ZM459.015 129.344C454.983 129.728 449.799 129.92 444.775 129.92C440.583 129.92 438.247 127.808 438.247 124.032C438.247 122.944 438.343 122.368 438.439 121.76C438.567 121.024 438.887 120.704 439.495 120.704H442.023C442.759 120.704 443.175 121.12 443.079 121.76C443.015 122.208 442.887 122.912 442.887 123.456C442.887 124.896 443.751 125.6 445.319 125.6C450.151 125.6 455.303 125.376 458.727 125.024C459.335 124.96 459.783 125.344 459.815 126.016L459.975 128.288C460.007 128.896 459.687 129.28 459.015 129.344ZM480.805 109.728C480.805 110.464 481.317 110.912 482.213 110.912H488.677C490.373 110.912 491.653 109.824 491.653 107.744C491.653 106.4 490.949 105.824 489.605 105.824H481.733C481.093 105.824 480.805 106.112 480.805 106.752V109.728ZM489.765 122.112C488.837 122.112 488.389 122.592 488.389 123.456V127.264C488.389 127.936 488.037 128.32 487.365 128.32H484.805C484.133 128.32 483.749 127.936 483.749 127.264V123.68C483.749 123.008 484.133 122.4 484.709 122.144C480.741 122.112 477.061 121.952 474.565 121.6C473.829 121.504 473.509 121.184 473.509 120.576V118.208C473.509 117.536 473.893 117.152 474.565 117.248C477.317 117.6 481.541 117.792 486.021 117.792C491.013 117.792 495.557 117.568 497.541 117.248C498.213 117.12 498.629 117.536 498.629 118.208V120.576C498.629 121.152 498.309 121.472 497.573 121.6C496.037 121.856 493.029 122.112 489.765 122.112ZM480.133 115.232C477.509 115.232 476.165 114.048 476.165 111.776V103.36C476.165 102.144 476.773 101.504 477.989 101.504H491.493C494.693 101.504 496.293 102.912 496.293 105.696C496.293 108 495.109 110.048 493.381 111.072H495.749C496.421 111.072 496.741 111.392 496.741 112.064V114.24C496.741 114.88 496.421 115.232 495.749 115.232H480.133ZM506.169 108.8C506.169 111.104 507.097 112.288 508.921 112.288C510.745 112.288 511.705 111.072 511.705 108.8C511.705 106.56 510.745 105.344 508.921 105.344C507.097 105.344 506.169 106.528 506.169 108.8ZM508.921 101.184C513.561 101.184 516.281 104.032 516.281 108.8C516.281 113.568 513.529 116.448 508.921 116.448C504.345 116.448 501.593 113.568 501.593 108.8C501.593 104.032 504.313 101.184 508.921 101.184ZM520.249 109.664C519.929 110.208 519.289 110.528 518.425 110.528H517.849C517.209 110.528 516.857 110.176 516.857 109.536V107.2C516.857 106.56 517.209 106.208 517.849 106.208H518.553C519.641 106.208 520.249 105.632 520.249 104.608V101.824C520.249 101.152 520.633 100.768 521.305 100.768H523.833C524.505 100.768 524.889 101.152 524.889 101.824V117.504C524.889 118.176 524.505 118.56 523.833 118.56H521.305C520.633 118.56 520.249 118.176 520.249 117.504V109.664ZM514.553 124.576C513.241 127.2 509.721 129.632 505.273 129.632C504.537 129.632 503.705 129.632 503.705 128.64V126.24C503.705 125.632 504.057 125.312 504.761 125.312C508.761 125.312 512.249 122.944 512.249 120.032V119.488C512.249 118.816 512.633 118.432 513.305 118.432H515.833C516.505 118.432 516.889 118.816 516.889 119.488V120.032C516.889 122.944 520.313 125.312 524.313 125.312C525.017 125.312 525.369 125.632 525.369 126.24V128.64C525.369 129.632 524.537 129.632 523.801 129.632C519.353 129.632 515.833 127.2 514.553 124.576ZM533.357 108C533.357 109.696 534.509 110.848 536.269 110.848C538.029 110.848 539.213 109.696 539.213 108C539.213 106.304 538.029 105.184 536.269 105.184C534.509 105.184 533.357 106.304 533.357 108ZM541.389 124.64C536.685 124.64 535.853 124.832 535.853 125.504C535.853 126.208 536.845 126.336 543.149 126.336C545.773 126.336 549.773 126.144 551.885 125.76C552.397 125.664 552.749 125.92 552.781 126.432L552.941 128.512C552.973 128.96 552.685 129.28 552.205 129.344C549.901 129.664 545.805 129.92 543.181 129.92C533.933 129.92 531.213 128.832 531.213 125.44C531.213 122.08 534.349 121.056 541.325 121.056C543.085 121.056 545.101 121.024 546.509 121.024C547.341 121.024 547.693 120.8 547.693 120.352C547.693 119.872 547.373 119.648 546.573 119.648C543.533 119.648 536.461 119.872 532.685 120.192C532.173 120.224 531.853 119.936 531.853 119.424V117.344C531.853 116.864 532.109 116.608 532.685 116.576C537.517 116.224 544.141 116.032 549.101 116.192C551.149 116.256 552.301 117.152 552.301 118.688C552.301 119.936 551.597 120.928 550.445 121.344H551.213C551.693 121.344 552.045 121.632 552.045 122.08V123.968C552.045 124.416 551.725 124.736 551.213 124.736C548.877 124.736 547.245 124.64 541.389 124.64ZM536.269 101.184C540.877 101.184 543.789 103.808 543.789 108C543.789 112.192 540.845 114.848 536.269 114.848C531.725 114.848 528.781 112.16 528.781 108C528.781 103.808 531.693 101.184 536.269 101.184ZM547.437 101.824C547.437 101.152 547.821 100.768 548.493 100.768H551.021C551.693 100.768 552.077 101.152 552.077 101.824V113.664C552.077 114.336 551.693 114.72 551.021 114.72H548.493C547.821 114.72 547.437 114.336 547.437 113.664V101.824ZM563.424 124.16C563.296 124.864 563.008 125.088 562.336 125.088H560.16C559.456 125.088 559.008 124.672 559.104 124.032C559.808 119.232 560.256 113.888 560.256 109.056C560.256 107.744 559.68 107.104 558.496 107.104C558.016 107.104 557.6 107.264 556.672 107.648C556.544 107.712 556.384 107.744 556.288 107.744C555.904 107.744 555.648 107.456 555.648 106.976V104.48C555.648 103.872 555.904 103.552 556.608 103.36C557.824 103.008 558.752 102.784 559.872 102.784C561.472 102.784 562.688 103.296 563.488 104.224C563.552 103.712 563.872 103.36 564.448 103.2C565.472 102.912 566.752 102.784 568.032 102.784C571.072 102.784 572.768 104.64 572.768 107.936C572.768 114.24 572.288 119.936 571.584 124.16C571.456 124.864 571.168 125.088 570.496 125.088H568.32C567.616 125.088 567.168 124.672 567.264 124.032C567.968 119.232 568.416 113.888 568.416 109.056C568.416 107.744 567.84 107.104 566.656 107.104C566.016 107.104 565.216 107.232 564.608 107.456C564.608 113.024 564.352 118.656 563.424 124.16ZM578.944 128.448C578.944 129.088 578.592 129.44 577.952 129.44H575.616C574.976 129.44 574.624 129.088 574.624 128.448V101.76C574.624 101.12 574.976 100.768 575.616 100.768H577.952C578.592 100.768 578.944 101.12 578.944 101.76V112.512C579.264 111.968 579.904 111.648 580.768 111.648H581.632C582.272 111.648 582.624 112 582.624 112.64V115.136C582.624 115.776 582.272 116.128 581.632 116.128H580.64C579.552 116.128 578.944 116.864 578.944 117.888V128.448ZM605.877 122.336C606.869 122.336 607.893 122.176 608.853 122.048C609.525 121.952 609.941 122.336 609.941 123.008V125.376C609.941 125.952 609.621 126.272 608.885 126.4C606.901 126.752 602.357 126.944 597.365 126.944C592.885 126.944 588.661 126.784 585.877 126.4C585.141 126.304 584.821 125.984 584.821 125.376V123.008C584.821 122.336 585.205 121.984 585.877 122.048C587.285 122.176 588.853 122.304 590.901 122.4C590.421 122.112 590.101 121.504 590.101 120.8V117.28C590.101 117.152 590.101 117.024 590.133 116.928C588.149 115.52 587.157 113.344 587.157 110.432C587.157 104.96 590.709 102.144 597.621 102.144C604.533 102.144 608.085 104.96 608.085 110.432C608.085 113.536 606.933 115.84 604.661 117.216V120.992C604.661 121.856 605.109 122.336 605.877 122.336ZM597.621 118.784C596.597 118.784 595.637 118.72 594.741 118.592V121.248C594.741 122.112 595.189 122.56 596.117 122.592C597.205 122.624 599.413 122.592 601.109 122.56C600.469 122.304 600.021 121.664 600.021 120.832V118.656C599.285 118.752 598.485 118.784 597.621 118.784ZM597.621 106.464C593.429 106.464 591.797 107.68 591.797 110.464C591.797 113.248 593.429 114.464 597.621 114.464C601.813 114.464 603.445 113.248 603.445 110.464C603.445 107.68 601.813 106.464 597.621 106.464ZM619.594 126.368C619.594 125.696 619.978 125.312 620.65 125.312H623.178C623.85 125.312 624.234 125.696 624.234 126.368V129.024C624.234 129.696 623.85 130.08 623.178 130.08H620.65C619.978 130.08 619.594 129.696 619.594 129.024V126.368ZM617.834 109.12C617.834 109.792 617.45 110.176 616.778 110.176H614.25C613.578 110.176 613.194 109.792 613.194 109.12V108.512C613.194 103.232 616.522 100.128 622.218 100.128C628.17 100.128 631.306 102.944 631.306 108.224C631.306 114.496 624.234 116.576 624.234 121.728V122.656C624.234 123.328 623.85 123.712 623.178 123.712H620.65C619.978 123.712 619.594 123.328 619.594 122.656V121.056C619.594 115.456 626.666 112.512 626.666 108.224C626.666 105.824 625.194 104.608 622.25 104.608C619.306 104.608 617.834 105.888 617.834 108.512V109.12Z" fill="#422205"/>
<path d="M248.526 87.097C247.139 87.287 244.84 87.42 243.396 87.42C237.867 87.42 236.575 86.964 236.575 85.007C236.575 83.183 237.791 82.67 242.294 82.67C243.32 82.67 244.422 82.708 245.41 82.67C246.113 82.651 246.36 82.518 246.36 82.119C246.36 81.701 246.132 81.53 245.467 81.53C243.548 81.53 239.482 81.663 237.373 81.796C237.088 81.815 236.955 81.663 236.955 81.359V80.504C236.955 80.219 237.069 80.086 237.373 80.067C238.57 79.991 239.957 79.934 241.363 79.877V79.364C241.363 79.155 241.439 78.984 241.591 78.889C239.691 78.889 237.164 78.832 235.72 78.699C235.435 78.68 235.283 78.528 235.283 78.243V77.312C235.283 77.008 235.454 76.875 235.758 76.894C236.955 76.989 238.95 77.065 242.427 77.084C245.087 77.103 247.785 77.065 249.153 76.913C249.457 76.875 249.628 77.027 249.628 77.331V78.243C249.628 78.547 249.495 78.68 249.191 78.718C247.804 78.851 245.505 78.889 244.023 78.889C243.7 78.889 243.548 79.06 243.548 79.364V79.839C244.745 79.82 245.885 79.82 246.778 79.839C248.051 79.877 248.526 80.295 248.526 81.226C248.526 81.986 248.051 82.594 247.291 82.841H247.975C248.26 82.841 248.374 82.974 248.374 83.259V84.038C248.374 84.342 248.241 84.475 247.975 84.456C246.797 84.399 244.916 84.38 242.332 84.38C239.159 84.38 238.76 84.475 238.76 85.045C238.76 85.71 239.52 85.71 243.377 85.71C244.783 85.71 246.968 85.577 248.393 85.387C248.678 85.349 248.83 85.482 248.849 85.767L248.906 86.622C248.925 86.926 248.811 87.059 248.526 87.097ZM246.911 74.481H248.07C248.374 74.481 248.507 74.614 248.507 74.918V75.849C248.507 76.134 248.374 76.286 248.07 76.286H238.608C237.506 76.286 236.86 75.754 236.86 74.804V71.498C236.86 70.985 237.107 70.719 237.62 70.719H246.398C247.538 70.719 248.241 71.346 248.241 72.353C248.241 73.246 247.671 74.044 246.911 74.481ZM244.783 74.519C245.505 74.519 246.056 73.968 246.056 73.246C246.056 72.752 245.752 72.486 245.201 72.486H239.444C239.178 72.486 239.045 72.619 239.045 72.885V74.006C239.045 74.348 239.273 74.519 239.691 74.519H244.783ZM260.118 78.11C260.118 82.803 258.788 84.931 255.843 84.931C252.917 84.931 251.587 82.803 251.587 78.11C251.587 73.398 252.898 71.308 255.843 71.308C258.807 71.308 260.118 73.398 260.118 78.11ZM255.843 73.398C254.399 73.398 253.772 74.766 253.772 78.11C253.772 81.454 254.399 82.841 255.843 82.841C257.306 82.841 257.933 81.473 257.933 78.11C257.933 74.766 257.306 73.398 255.843 73.398ZM262.664 70.814C262.664 70.491 262.854 70.301 263.158 70.301H264.355C264.659 70.301 264.849 70.491 264.849 70.814V86.622C264.849 86.945 264.659 87.135 264.355 87.135H263.158C262.854 87.135 262.664 86.945 262.664 86.622V70.814ZM279.201 84.095C279.144 84.437 279.011 84.551 278.688 84.551H277.548C277.225 84.551 277.035 84.399 277.092 84.076C277.567 81.321 277.814 78.186 277.814 75.412C277.814 73.987 277.491 73.607 276.256 73.607C275.059 73.607 273.862 73.778 272.988 73.949C272.684 74.006 272.494 73.778 272.494 73.455V72.353C272.494 72.049 272.646 71.897 272.969 71.84C274.052 71.631 275.382 71.498 276.56 71.498C278.555 71.498 279.524 72.144 279.809 73.835H281.709C282.013 73.835 282.184 73.683 282.184 73.379V70.966C282.184 70.643 282.336 70.491 282.659 70.491H283.799C284.122 70.491 284.274 70.643 284.274 70.966V86.66C284.274 86.983 284.122 87.135 283.799 87.135H282.659C282.336 87.135 282.184 86.983 282.184 86.66V80.998C282.07 81.15 281.899 81.245 281.671 81.245H279.6C279.486 82.214 279.353 83.164 279.201 84.095ZM287.599 70.776V86.66C287.599 86.983 287.447 87.135 287.124 87.135H285.984C285.661 87.135 285.509 86.983 285.509 86.66V70.776C285.509 70.453 285.661 70.301 285.984 70.301H287.124C287.447 70.301 287.599 70.453 287.599 70.776ZM282.184 78.699V75.678C282.07 75.83 281.899 75.925 281.671 75.925H279.904C279.885 77.008 279.847 78.091 279.771 79.155H281.709C282.013 79.155 282.184 79.003 282.184 78.699ZM290.773 80.561C290.45 80.523 290.298 80.371 290.298 80.048V79.022C290.298 78.699 290.488 78.547 290.811 78.566C292.255 78.661 294.763 78.737 296.663 78.756C296.492 78.661 296.378 78.49 296.378 78.243V77.141C296.378 76.818 296.568 76.628 296.872 76.628H298.069C298.373 76.628 298.563 76.818 298.563 77.141V78.262C298.563 78.566 298.715 78.718 299.038 78.737C300.52 78.794 302.743 78.718 304.13 78.585C304.453 78.547 304.643 78.718 304.643 79.041V80.067C304.643 80.39 304.51 80.542 304.168 80.58C302.8 80.732 300.102 80.77 297.442 80.751C293.965 80.732 291.913 80.694 290.773 80.561ZM297.556 74.538C296.72 76.21 294.478 77.35 292.16 77.236C291.818 77.217 291.685 77.084 291.685 76.761V75.678C291.685 75.374 291.818 75.241 292.16 75.241C294.706 75.241 296.454 73.93 296.454 72.011V71.232C296.454 70.909 296.644 70.719 296.948 70.719H298.145C298.449 70.719 298.639 70.909 298.639 71.232V72.011C298.639 73.93 300.387 75.241 302.933 75.241C303.275 75.241 303.408 75.374 303.408 75.678V76.761C303.408 77.084 303.275 77.217 302.933 77.236C300.615 77.35 298.373 76.21 297.556 74.538ZM303.427 86.736C303.389 87.059 303.199 87.23 302.876 87.23H301.755C301.432 87.23 301.223 87.021 301.261 86.717C301.337 86.166 301.356 85.615 301.356 85.102C301.356 83.886 300.9 83.544 299.76 83.544C297.271 83.544 294.687 83.658 292.065 83.886C291.742 83.905 291.59 83.753 291.59 83.43V82.385C291.59 82.081 291.723 81.929 292.065 81.891C294.63 81.663 296.701 81.549 299.912 81.549C302.591 81.549 303.541 82.328 303.541 84.551C303.541 85.615 303.503 86.147 303.427 86.736ZM320.287 84C319.014 84.513 317.836 84.76 316.81 84.76C313.732 84.76 312.117 82.879 312.117 79.269C312.117 76.343 312.231 74.291 312.535 71.935C312.573 71.631 312.744 71.498 313.067 71.498H314.226C314.587 71.498 314.777 71.707 314.739 72.03C314.435 74.595 314.302 76.856 314.302 79.459C314.302 81.758 315.043 82.651 316.943 82.651C317.779 82.651 318.748 82.423 319.831 81.948C319.888 81.929 319.964 81.91 320.002 81.91C320.173 81.91 320.268 82.043 320.363 82.309L320.686 83.392C320.781 83.677 320.667 83.848 320.287 84ZM324.809 86.622C324.809 86.945 324.619 87.135 324.315 87.135H323.118C322.814 87.135 322.624 86.945 322.624 86.622V70.814C322.624 70.491 322.814 70.301 323.118 70.301H324.315C324.619 70.301 324.809 70.491 324.809 70.814V77.331C324.942 77.084 325.208 76.951 325.588 76.951H326.709C327.032 76.951 327.184 77.103 327.184 77.426V78.566C327.184 78.889 327.032 79.041 326.709 79.041H325.474C325.018 79.041 324.809 79.231 324.809 79.649V86.622ZM329.162 85.311C328.82 85.254 328.687 85.102 328.687 84.798V83.753C328.687 83.43 328.877 83.259 329.2 83.297C330.568 83.449 333.133 83.62 335.242 83.658C334.957 83.525 334.767 83.221 334.767 82.841V80.713C331.765 80.371 330.074 78.68 330.074 75.944C330.074 72.866 332.24 71.099 336.002 71.099C339.764 71.099 341.93 72.866 341.93 75.944C341.93 78.756 340.125 80.466 336.952 80.751V83.012C336.952 83.43 337.161 83.601 337.617 83.601C339.251 83.601 341.227 83.487 342.519 83.316C342.842 83.278 343.032 83.449 343.032 83.772V84.817C343.032 85.14 342.899 85.273 342.557 85.33C341.265 85.539 338.738 85.653 335.831 85.653C332.81 85.653 330.587 85.539 329.162 85.311ZM336.002 78.756C338.434 78.756 339.745 77.73 339.745 75.944C339.745 74.12 338.491 73.132 336.002 73.132C333.513 73.132 332.259 74.12 332.259 75.944C332.259 77.73 333.57 78.756 336.002 78.756ZM345.695 85.311C345.353 85.254 345.22 85.102 345.22 84.798V83.753C345.22 83.43 345.41 83.259 345.733 83.297C347.329 83.487 349.248 83.62 350.825 83.658C350.54 83.525 350.35 83.221 350.35 82.841V78.661C350.35 78.338 350.54 78.148 350.844 78.148H352.041C352.345 78.148 352.535 78.338 352.535 78.661V83.012C352.535 83.43 352.744 83.601 353.2 83.601C355.271 83.601 357.836 83.449 359.052 83.316C359.375 83.278 359.565 83.449 359.565 83.772V84.817C359.565 85.14 359.432 85.273 359.09 85.33C357.836 85.539 355.347 85.653 352.364 85.653C349.343 85.653 347.12 85.539 345.695 85.311ZM347.272 73.721C346.968 73.759 346.797 73.607 346.797 73.265V72.106C346.797 71.802 346.93 71.65 347.272 71.612C349.381 71.384 351.11 71.289 353.713 71.289C356.601 71.289 358.197 72.923 358.197 75.887C358.197 77.749 358.102 78.927 357.836 80.257C357.779 80.542 357.646 80.618 357.323 80.58L356.012 80.39C355.708 80.352 355.613 80.219 355.67 79.915C355.879 78.889 355.993 77.654 355.993 76.286C355.993 74.177 355.252 73.379 353.257 73.379C351.072 73.379 349.191 73.474 347.272 73.721ZM373.195 74.88C373.195 73.436 372.378 72.543 371.105 72.543C369.832 72.543 369.034 73.436 369.034 74.88C369.034 76.324 369.851 77.236 371.105 77.236C372.378 77.236 373.195 76.324 373.195 74.88ZM374.259 87.249C372.948 87.249 371.846 86.413 371.39 85.254C370.858 86.394 369.604 87.249 368.179 87.249C367.818 87.249 367.533 87.23 367.533 86.774V85.691C367.533 85.387 367.666 85.254 368.008 85.254C369.395 85.254 370.326 84.171 370.326 82.803V81.017C370.326 80.694 370.516 80.504 370.82 80.504H372.017C372.321 80.504 372.511 80.694 372.511 81.017V83.221C372.511 84.418 373.138 85.254 374.259 85.254C375.38 85.254 376.007 84.418 376.007 83.221V81.017C376.007 80.694 376.197 80.504 376.501 80.504H377.698C378.002 80.504 378.192 80.694 378.192 81.017V82.803C378.192 84.171 379.123 85.254 380.51 85.254C380.852 85.254 380.985 85.387 380.985 85.691V86.774C380.985 87.23 380.7 87.249 380.339 87.249C378.914 87.249 377.66 86.394 377.128 85.254C376.672 86.413 375.57 87.249 374.259 87.249ZM375.38 74.88C375.38 77.521 373.708 79.231 371.105 79.231C368.521 79.231 366.849 77.521 366.849 74.88C366.849 72.239 368.502 70.548 371.105 70.548C373.708 70.548 375.38 72.239 375.38 74.88ZM377.926 70.814C377.926 70.491 378.116 70.301 378.42 70.301H379.617C379.921 70.301 380.111 70.491 380.111 70.814V78.642C380.111 78.965 379.921 79.155 379.617 79.155H378.42C378.116 79.155 377.926 78.965 377.926 78.642V70.814ZM386.782 73.398C385.376 73.398 384.806 74.766 384.806 78.11C384.806 81.454 385.376 82.841 386.782 82.841C388.188 82.841 388.777 81.473 388.777 78.11C388.777 74.766 388.188 73.398 386.782 73.398ZM390.962 78.11C390.962 82.803 389.67 84.931 386.782 84.931C383.894 84.931 382.621 82.803 382.621 78.11C382.621 73.398 383.875 71.308 386.782 71.308C389.689 71.308 390.962 73.398 390.962 78.11ZM393.698 70.814C393.698 70.491 393.888 70.301 394.192 70.301H395.389C395.693 70.301 395.883 70.491 395.883 70.814V86.622C395.883 86.945 395.693 87.135 395.389 87.135H394.192C393.888 87.135 393.698 86.945 393.698 86.622V78.585C393.565 78.832 393.299 78.965 392.919 78.965H392.064C391.741 78.965 391.589 78.813 391.589 78.49V77.35C391.589 77.027 391.741 76.875 392.064 76.875H393.033C393.489 76.875 393.698 76.685 393.698 76.267V70.814ZM407.74 80.637C407.189 80.732 406.581 80.789 405.935 80.789C405.175 80.789 404.472 80.713 403.845 80.58V83.012C403.845 83.43 404.054 83.601 404.51 83.601C405.441 83.62 407.113 83.601 408.253 83.582C407.949 83.468 407.74 83.145 407.74 82.746V80.637ZM405.935 78.756C408.367 78.756 409.678 77.73 409.678 75.944C409.678 74.12 408.424 73.132 405.935 73.132C403.446 73.132 402.192 74.12 402.192 75.944C402.192 77.73 403.503 78.756 405.935 78.756ZM400.007 75.944C400.007 72.866 402.173 71.099 405.935 71.099C409.697 71.099 411.863 72.866 411.863 75.944C411.863 77.673 411.179 78.984 409.925 79.82V82.898C409.925 83.316 410.134 83.487 410.59 83.487C411.141 83.487 412.11 83.373 412.452 83.316C412.775 83.278 412.965 83.449 412.965 83.772V84.817C412.965 85.14 412.832 85.273 412.49 85.33C411.198 85.539 408.671 85.653 405.764 85.653C402.743 85.653 400.52 85.539 399.095 85.311C398.753 85.254 398.62 85.102 398.62 84.798V83.753C398.62 83.43 398.81 83.259 399.133 83.297C400.178 83.449 401.128 83.582 402.097 83.639C401.831 83.487 401.66 83.202 401.66 82.841V79.82C401.66 79.744 401.66 79.687 401.679 79.63C400.596 78.813 400.007 77.559 400.007 75.944ZM415.19 86.223C415.19 85.387 415.779 84.836 416.615 84.836C417.47 84.836 418.059 85.387 418.059 86.223C418.059 87.021 417.47 87.572 416.615 87.572C415.779 87.572 415.19 87.021 415.19 86.223Z" fill="#422205"/>
</svg>
