<svg width="1192" height="803" viewBox="0 0 1192 803" fill="none" xmlns="http://www.w3.org/2000/svg">
<rect x="6" y="6" width="1180" height="791" rx="46" fill="#FFFDCF"/>
<rect x="6" y="6" width="1180" height="791" rx="46" fill="#FFD6EA"/>
<rect x="6" y="6" width="1180" height="791" rx="46" stroke="white" stroke-width="12"/>
<rect x="56" y="44" width="100" height="100" rx="5" fill="#FFFDCF"/>
<rect x="56" y="44" width="100" height="100" rx="5" fill="#FDFFE7"/>
<rect x="56" y="44" width="100" height="100" rx="5" fill="#FDFFE7"/>
<rect x="56" y="44" width="100" height="100" rx="5" fill="#FFDEF2"/>
<rect x="166" y="44" width="100" height="100" rx="5" fill="#FFFDCF"/>
<rect x="166" y="44" width="100" height="100" rx="5" fill="#FDFFE7"/>
<rect x="166" y="44" width="100" height="100" rx="5" fill="#FDFFE7"/>
<rect x="166" y="44" width="100" height="100" rx="5" fill="#FFDEF2"/>
<rect x="56" y="154" width="100" height="100" rx="5" fill="#FFFDCF"/>
<rect x="56" y="154" width="100" height="100" rx="5" fill="#FDFFE7"/>
<rect x="56" y="154" width="100" height="100" rx="5" fill="#FDFFE7"/>
<rect x="56" y="154" width="100" height="100" rx="5" fill="#FFDEF2"/>
<rect x="166" y="154" width="100" height="100" rx="5" fill="#FFFDCF"/>
<rect x="166" y="154" width="100" height="100" rx="5" fill="#FDFFE7"/>
<rect x="166" y="154" width="100" height="100" rx="5" fill="#FDFFE7"/>
<rect x="166" y="154" width="100" height="100" rx="5" fill="#FFDEF2"/>
<rect x="56" y="264" width="100" height="100" rx="5" fill="#FFFDCF"/>
<rect x="56" y="264" width="100" height="100" rx="5" fill="#FDFFE7"/>
<rect x="56" y="264" width="100" height="100" rx="5" fill="#FDFFE7"/>
<rect x="56" y="264" width="100" height="100" rx="5" fill="#FFDEF2"/>
<rect x="166" y="264" width="100" height="100" rx="5" fill="#FFFDCF"/>
<rect x="166" y="264" width="100" height="100" rx="5" fill="#FDFFE7"/>
<rect x="166" y="264" width="100" height="100" rx="5" fill="#FDFFE7"/>
<rect x="166" y="264" width="100" height="100" rx="5" fill="#FFDEF2"/>
<rect x="56" y="374" width="100" height="100" rx="5" fill="#FFFDCF"/>
<rect x="56" y="374" width="100" height="100" rx="5" fill="#FDFFE7"/>
<rect x="56" y="374" width="100" height="100" rx="5" fill="#FDFFE7"/>
<rect x="56" y="374" width="100" height="100" rx="5" fill="#FFDEF2"/>
<rect x="166" y="374" width="100" height="100" rx="5" fill="#FFFDCF"/>
<rect x="166" y="374" width="100" height="100" rx="5" fill="#FDFFE7"/>
<rect x="166" y="374" width="100" height="100" rx="5" fill="#FDFFE7"/>
<rect x="166" y="374" width="100" height="100" rx="5" fill="#FFDEF2"/>
<rect x="276" y="44" width="100" height="100" rx="5" fill="#FFFDCF"/>
<rect x="276" y="44" width="100" height="100" rx="5" fill="#FDFFE7"/>
<rect x="276" y="44" width="100" height="100" rx="5" fill="#FDFFE7"/>
<rect x="276" y="44" width="100" height="100" rx="5" fill="#FFDEF2"/>
<rect x="386" y="44" width="100" height="100" rx="5" fill="#FFFDCF"/>
<rect x="386" y="44" width="100" height="100" rx="5" fill="#FDFFE7"/>
<rect x="386" y="44" width="100" height="100" rx="5" fill="#FDFFE7"/>
<rect x="386" y="44" width="100" height="100" rx="5" fill="#FFDEF2"/>
<rect x="276" y="154" width="100" height="100" rx="5" fill="#FFFDCF"/>
<rect x="276" y="154" width="100" height="100" rx="5" fill="#FDFFE7"/>
<rect x="276" y="154" width="100" height="100" rx="5" fill="#FDFFE7"/>
<rect x="276" y="154" width="100" height="100" rx="5" fill="#FFDEF2"/>
<rect x="386" y="154" width="100" height="100" rx="5" fill="#FFFDCF"/>
<rect x="386" y="154" width="100" height="100" rx="5" fill="#FDFFE7"/>
<rect x="386" y="154" width="100" height="100" rx="5" fill="#FDFFE7"/>
<rect x="386" y="154" width="100" height="100" rx="5" fill="#FFDEF2"/>
<rect x="276" y="264" width="100" height="100" rx="5" fill="#FFFDCF"/>
<rect x="276" y="264" width="100" height="100" rx="5" fill="#FDFFE7"/>
<rect x="276" y="264" width="100" height="100" rx="5" fill="#FDFFE7"/>
<rect x="276" y="264" width="100" height="100" rx="5" fill="#FFDEF2"/>
<rect x="386" y="264" width="100" height="100" rx="5" fill="#FFFDCF"/>
<rect x="386" y="264" width="100" height="100" rx="5" fill="#FDFFE7"/>
<rect x="386" y="264" width="100" height="100" rx="5" fill="#FDFFE7"/>
<rect x="386" y="264" width="100" height="100" rx="5" fill="#FFDEF2"/>
<rect x="276" y="374" width="100" height="100" rx="5" fill="#FFFDCF"/>
<rect x="276" y="374" width="100" height="100" rx="5" fill="#FDFFE7"/>
<rect x="276" y="374" width="100" height="100" rx="5" fill="#FDFFE7"/>
<rect x="276" y="374" width="100" height="100" rx="5" fill="#FFDEF2"/>
<rect x="386" y="374" width="100" height="100" rx="5" fill="#FFFDCF"/>
<rect x="386" y="374" width="100" height="100" rx="5" fill="#FDFFE7"/>
<rect x="386" y="374" width="100" height="100" rx="5" fill="#FDFFE7"/>
<rect x="386" y="374" width="100" height="100" rx="5" fill="#FFDEF2"/>
<rect x="496" y="44" width="100" height="100" rx="5" fill="#FFFDCF"/>
<rect x="496" y="44" width="100" height="100" rx="5" fill="#FDFFE7"/>
<rect x="496" y="44" width="100" height="100" rx="5" fill="#FDFFE7"/>
<rect x="496" y="44" width="100" height="100" rx="5" fill="#FFDEF2"/>
<rect x="606" y="44" width="100" height="100" rx="5" fill="#FFFDCF"/>
<rect x="606" y="44" width="100" height="100" rx="5" fill="#FDFFE7"/>
<rect x="606" y="44" width="100" height="100" rx="5" fill="#FDFFE7"/>
<rect x="606" y="44" width="100" height="100" rx="5" fill="#FFDEF2"/>
<rect x="496" y="154" width="100" height="100" rx="5" fill="#FFFDCF"/>
<rect x="496" y="154" width="100" height="100" rx="5" fill="#FDFFE7"/>
<rect x="496" y="154" width="100" height="100" rx="5" fill="#FDFFE7"/>
<rect x="496" y="154" width="100" height="100" rx="5" fill="#FFDEF2"/>
<rect x="606" y="154" width="100" height="100" rx="5" fill="#FFFDCF"/>
<rect x="606" y="154" width="100" height="100" rx="5" fill="#FDFFE7"/>
<rect x="606" y="154" width="100" height="100" rx="5" fill="#FDFFE7"/>
<rect x="606" y="154" width="100" height="100" rx="5" fill="#FFDEF2"/>
<rect x="496" y="264" width="100" height="100" rx="5" fill="#FFFDCF"/>
<rect x="496" y="264" width="100" height="100" rx="5" fill="#FDFFE7"/>
<rect x="496" y="264" width="100" height="100" rx="5" fill="#FDFFE7"/>
<rect x="496" y="264" width="100" height="100" rx="5" fill="#FFDEF2"/>
<rect x="606" y="264" width="100" height="100" rx="5" fill="#FFFDCF"/>
<rect x="606" y="264" width="100" height="100" rx="5" fill="#FDFFE7"/>
<rect x="606" y="264" width="100" height="100" rx="5" fill="#FDFFE7"/>
<rect x="606" y="264" width="100" height="100" rx="5" fill="#FFDEF2"/>
<rect x="496" y="374" width="100" height="100" rx="5" fill="#FFFDCF"/>
<rect x="496" y="374" width="100" height="100" rx="5" fill="#FDFFE7"/>
<rect x="496" y="374" width="100" height="100" rx="5" fill="#FDFFE7"/>
<rect x="496" y="374" width="100" height="100" rx="5" fill="#FFDEF2"/>
<rect x="606" y="374" width="100" height="100" rx="5" fill="#FFFDCF"/>
<rect x="606" y="374" width="100" height="100" rx="5" fill="#FDFFE7"/>
<rect x="606" y="374" width="100" height="100" rx="5" fill="#FDFFE7"/>
<rect x="606" y="374" width="100" height="100" rx="5" fill="#FFDEF2"/>
<rect x="716" y="44" width="100" height="100" rx="5" fill="#FFFDCF"/>
<rect x="716" y="44" width="100" height="100" rx="5" fill="#FDFFE7"/>
<rect x="716" y="44" width="100" height="100" rx="5" fill="#FDFFE7"/>
<rect x="716" y="44" width="100" height="100" rx="5" fill="#FFDEF2"/>
<rect x="826" y="44" width="100" height="100" rx="5" fill="#FFFDCF"/>
<rect x="826" y="44" width="100" height="100" rx="5" fill="#FDFFE7"/>
<rect x="826" y="44" width="100" height="100" rx="5" fill="#FDFFE7"/>
<rect x="826" y="44" width="100" height="100" rx="5" fill="#FFDEF2"/>
<rect x="716" y="154" width="100" height="100" rx="5" fill="#FFFDCF"/>
<rect x="716" y="154" width="100" height="100" rx="5" fill="#FDFFE7"/>
<rect x="716" y="154" width="100" height="100" rx="5" fill="#FDFFE7"/>
<rect x="716" y="154" width="100" height="100" rx="5" fill="#FFDEF2"/>
<rect x="826" y="154" width="100" height="100" rx="5" fill="#FFFDCF"/>
<rect x="826" y="154" width="100" height="100" rx="5" fill="#FDFFE7"/>
<rect x="826" y="154" width="100" height="100" rx="5" fill="#FDFFE7"/>
<rect x="826" y="154" width="100" height="100" rx="5" fill="#FFDEF2"/>
<rect x="716" y="264" width="100" height="100" rx="5" fill="#FFFDCF"/>
<rect x="716" y="264" width="100" height="100" rx="5" fill="#FDFFE7"/>
<rect x="716" y="264" width="100" height="100" rx="5" fill="#FDFFE7"/>
<rect x="716" y="264" width="100" height="100" rx="5" fill="#FFDEF2"/>
<rect x="826" y="264" width="100" height="100" rx="5" fill="#FFFDCF"/>
<rect x="826" y="264" width="100" height="100" rx="5" fill="#FDFFE7"/>
<rect x="826" y="264" width="100" height="100" rx="5" fill="#FDFFE7"/>
<rect x="826" y="264" width="100" height="100" rx="5" fill="#FFDEF2"/>
<rect x="716" y="374" width="100" height="100" rx="5" fill="#FFFDCF"/>
<rect x="716" y="374" width="100" height="100" rx="5" fill="#FDFFE7"/>
<rect x="716" y="374" width="100" height="100" rx="5" fill="#FDFFE7"/>
<rect x="716" y="374" width="100" height="100" rx="5" fill="#FFDEF2"/>
<rect x="826" y="374" width="100" height="100" rx="5" fill="#FFFDCF"/>
<rect x="826" y="374" width="100" height="100" rx="5" fill="#FDFFE7"/>
<rect x="826" y="374" width="100" height="100" rx="5" fill="#FDFFE7"/>
<rect x="826" y="374" width="100" height="100" rx="5" fill="#FFDEF2"/>
<rect x="936" y="44" width="100" height="100" rx="5" fill="#FFFDCF"/>
<rect x="936" y="44" width="100" height="100" rx="5" fill="#FDFFE7"/>
<rect x="936" y="44" width="100" height="100" rx="5" fill="#FDFFE7"/>
<rect x="936" y="44" width="100" height="100" rx="5" fill="#FFDEF2"/>
<rect x="1046" y="44" width="100" height="100" rx="5" fill="#FFFDCF"/>
<rect x="1046" y="44" width="100" height="100" rx="5" fill="#FDFFE7"/>
<rect x="1046" y="44" width="100" height="100" rx="5" fill="#FDFFE7"/>
<rect x="1046" y="44" width="100" height="100" rx="5" fill="#FFDEF2"/>
<rect x="936" y="154" width="100" height="100" rx="5" fill="#FFFDCF"/>
<rect x="936" y="154" width="100" height="100" rx="5" fill="#FDFFE7"/>
<rect x="936" y="154" width="100" height="100" rx="5" fill="#FDFFE7"/>
<rect x="936" y="154" width="100" height="100" rx="5" fill="#FFDEF2"/>
<rect x="1046" y="154" width="100" height="100" rx="5" fill="#FFFDCF"/>
<rect x="1046" y="154" width="100" height="100" rx="5" fill="#FDFFE7"/>
<rect x="1046" y="154" width="100" height="100" rx="5" fill="#FDFFE7"/>
<rect x="1046" y="154" width="100" height="100" rx="5" fill="#FFDEF2"/>
<rect x="936" y="264" width="100" height="100" rx="5" fill="#FFFDCF"/>
<rect x="936" y="264" width="100" height="100" rx="5" fill="#FDFFE7"/>
<rect x="936" y="264" width="100" height="100" rx="5" fill="#FDFFE7"/>
<rect x="936" y="264" width="100" height="100" rx="5" fill="#FFDEF2"/>
<rect x="1046" y="264" width="100" height="100" rx="5" fill="#FFFDCF"/>
<rect x="1046" y="264" width="100" height="100" rx="5" fill="#FDFFE7"/>
<rect x="1046" y="264" width="100" height="100" rx="5" fill="#FDFFE7"/>
<rect x="1046" y="264" width="100" height="100" rx="5" fill="#FFDEF2"/>
<rect x="936" y="374" width="100" height="100" rx="5" fill="#FFFDCF"/>
<rect x="936" y="374" width="100" height="100" rx="5" fill="#FDFFE7"/>
<rect x="936" y="374" width="100" height="100" rx="5" fill="#FDFFE7"/>
<rect x="936" y="374" width="100" height="100" rx="5" fill="#FFDEF2"/>
<rect x="1046" y="374" width="100" height="100" rx="5" fill="#FFFDCF"/>
<rect x="1046" y="374" width="100" height="100" rx="5" fill="#FDFFE7"/>
<rect x="1046" y="374" width="100" height="100" rx="5" fill="#FDFFE7"/>
<rect x="1046" y="374" width="100" height="100" rx="5" fill="#FFDEF2"/>
<rect x="56" y="484" width="100" height="100" rx="5" fill="#FFFDCF"/>
<rect x="56" y="484" width="100" height="100" rx="5" fill="#FDFFE7"/>
<rect x="56" y="484" width="100" height="100" rx="5" fill="#FDFFE7"/>
<rect x="56" y="484" width="100" height="100" rx="5" fill="#FFDEF2"/>
<rect x="166" y="484" width="100" height="100" rx="5" fill="#FFFDCF"/>
<rect x="166" y="484" width="100" height="100" rx="5" fill="#FDFFE7"/>
<rect x="166" y="484" width="100" height="100" rx="5" fill="#FDFFE7"/>
<rect x="166" y="484" width="100" height="100" rx="5" fill="#FFDEF2"/>
<rect x="56" y="594" width="100" height="100" rx="5" fill="#FFFDCF"/>
<rect x="56" y="594" width="100" height="100" rx="5" fill="#FDFFE7"/>
<rect x="56" y="594" width="100" height="100" rx="5" fill="#FDFFE7"/>
<rect x="56" y="594" width="100" height="100" rx="5" fill="#FFDEF2"/>
<rect x="166" y="594" width="100" height="100" rx="5" fill="#FFFDCF"/>
<rect x="166" y="594" width="100" height="100" rx="5" fill="#FDFFE7"/>
<rect x="166" y="594" width="100" height="100" rx="5" fill="#FDFFE7"/>
<rect x="166" y="594" width="100" height="100" rx="5" fill="#FFDEF2"/>
<rect x="276" y="484" width="100" height="100" rx="5" fill="#FFFDCF"/>
<rect x="276" y="484" width="100" height="100" rx="5" fill="#FDFFE7"/>
<rect x="276" y="484" width="100" height="100" rx="5" fill="#FDFFE7"/>
<rect x="276" y="484" width="100" height="100" rx="5" fill="#FFDEF2"/>
<rect x="386" y="484" width="100" height="100" rx="5" fill="#FFFDCF"/>
<rect x="386" y="484" width="100" height="100" rx="5" fill="#FDFFE7"/>
<rect x="386" y="484" width="100" height="100" rx="5" fill="#FDFFE7"/>
<rect x="386" y="484" width="100" height="100" rx="5" fill="#FFDEF2"/>
<rect x="276" y="594" width="100" height="100" rx="5" fill="#FFFDCF"/>
<rect x="276" y="594" width="100" height="100" rx="5" fill="#FDFFE7"/>
<rect x="276" y="594" width="100" height="100" rx="5" fill="#FDFFE7"/>
<rect x="276" y="594" width="100" height="100" rx="5" fill="#FFDEF2"/>
<rect x="386" y="594" width="100" height="100" rx="5" fill="#FFFDCF"/>
<rect x="386" y="594" width="100" height="100" rx="5" fill="#FDFFE7"/>
<rect x="386" y="594" width="100" height="100" rx="5" fill="#FDFFE7"/>
<rect x="386" y="594" width="100" height="100" rx="5" fill="#FFDEF2"/>
<rect x="496" y="484" width="100" height="100" rx="5" fill="#FFFDCF"/>
<rect x="496" y="484" width="100" height="100" rx="5" fill="#FDFFE7"/>
<rect x="496" y="484" width="100" height="100" rx="5" fill="#FDFFE7"/>
<rect x="496" y="484" width="100" height="100" rx="5" fill="#FFDEF2"/>
<rect x="606" y="484" width="100" height="100" rx="5" fill="#FFFDCF"/>
<rect x="606" y="484" width="100" height="100" rx="5" fill="#FDFFE7"/>
<rect x="606" y="484" width="100" height="100" rx="5" fill="#FDFFE7"/>
<rect x="606" y="484" width="100" height="100" rx="5" fill="#FFDEF2"/>
<rect x="496" y="594" width="100" height="100" rx="5" fill="#FFFDCF"/>
<rect x="496" y="594" width="100" height="100" rx="5" fill="#FDFFE7"/>
<rect x="496" y="594" width="100" height="100" rx="5" fill="#FDFFE7"/>
<rect x="496" y="594" width="100" height="100" rx="5" fill="#FFDEF2"/>
<rect x="606" y="594" width="100" height="100" rx="5" fill="#FFFDCF"/>
<rect x="606" y="594" width="100" height="100" rx="5" fill="#FDFFE7"/>
<rect x="606" y="594" width="100" height="100" rx="5" fill="#FDFFE7"/>
<rect x="606" y="594" width="100" height="100" rx="5" fill="#FFDEF2"/>
<rect x="716" y="484" width="100" height="100" rx="5" fill="#FFFDCF"/>
<rect x="716" y="484" width="100" height="100" rx="5" fill="#FDFFE7"/>
<rect x="716" y="484" width="100" height="100" rx="5" fill="#FDFFE7"/>
<rect x="716" y="484" width="100" height="100" rx="5" fill="#FFDEF2"/>
<rect x="826" y="484" width="100" height="100" rx="5" fill="#FFFDCF"/>
<rect x="826" y="484" width="100" height="100" rx="5" fill="#FDFFE7"/>
<rect x="826" y="484" width="100" height="100" rx="5" fill="#FDFFE7"/>
<rect x="826" y="484" width="100" height="100" rx="5" fill="#FFDEF2"/>
<rect x="716" y="594" width="100" height="100" rx="5" fill="#FFFDCF"/>
<rect x="716" y="594" width="100" height="100" rx="5" fill="#FDFFE7"/>
<rect x="716" y="594" width="100" height="100" rx="5" fill="#FDFFE7"/>
<rect x="716" y="594" width="100" height="100" rx="5" fill="#FFDEF2"/>
<rect x="826" y="594" width="100" height="100" rx="5" fill="#FFFDCF"/>
<rect x="826" y="594" width="100" height="100" rx="5" fill="#FDFFE7"/>
<rect x="826" y="594" width="100" height="100" rx="5" fill="#FDFFE7"/>
<rect x="826" y="594" width="100" height="100" rx="5" fill="#FFDEF2"/>
<rect x="936" y="484" width="100" height="100" rx="5" fill="#FFFDCF"/>
<rect x="936" y="484" width="100" height="100" rx="5" fill="#FDFFE7"/>
<rect x="936" y="484" width="100" height="100" rx="5" fill="#FDFFE7"/>
<rect x="936" y="484" width="100" height="100" rx="5" fill="#FFDEF2"/>
<rect x="1046" y="484" width="100" height="100" rx="5" fill="#FFFDCF"/>
<rect x="1046" y="484" width="100" height="100" rx="5" fill="#FDFFE7"/>
<rect x="1046" y="484" width="100" height="100" rx="5" fill="#FDFFE7"/>
<rect x="1046" y="484" width="100" height="100" rx="5" fill="#FFDEF2"/>
<rect x="936" y="594" width="100" height="100" rx="5" fill="#FFFDCF"/>
<rect x="936" y="594" width="100" height="100" rx="5" fill="#FDFFE7"/>
<rect x="936" y="594" width="100" height="100" rx="5" fill="#FDFFE7"/>
<rect x="936" y="594" width="100" height="100" rx="5" fill="#FFDEF2"/>
<rect x="1046" y="594" width="100" height="100" rx="5" fill="#FFFDCF"/>
<rect x="1046" y="594" width="100" height="100" rx="5" fill="#FDFFE7"/>
<rect x="1046" y="594" width="100" height="100" rx="5" fill="#FDFFE7"/>
<rect x="1046" y="594" width="100" height="100" rx="5" fill="#FFDEF2"/>
</svg>
