<svg width="75" height="53" viewBox="0 0 75 53" fill="none" xmlns="http://www.w3.org/2000/svg">
<path d="M75 41.4586C75 52.325 58.2107 51.999 37.5 51.999C16.7893 51.999 0 52.325 0 41.4586C0 30.5923 16.7893 0 37.5 0C58.2107 0 75 30.5923 75 41.4586Z" fill="white"/>
<path d="M37.7517 42C26.8792 42 8.05369 43.0476 0 43.5714C0 47.7619 6.04027 53 37.7517 53C63.1208 53 73.9933 49.8571 75 43.5714C67.2819 42.3492 48.6242 42 37.7517 42Z" fill="#F0F0F0"/>
<ellipse cx="14" cy="46.5" rx="3" ry="1.5" fill="#D9D9D9"/>
<ellipse cx="25" cy="49.5" rx="3" ry="1.5" fill="#D9D9D9"/>
<ellipse cx="36" cy="46.5" rx="3" ry="1.5" fill="#D9D9D9"/>
<ellipse cx="45" cy="49.5" rx="3" ry="1.5" fill="#D9D9D9"/>
<ellipse cx="55" cy="46.5" rx="3" ry="1.5" fill="#D9D9D9"/>
</svg>
