<svg width="232" height="122" viewBox="0 0 232 122" fill="none" xmlns="http://www.w3.org/2000/svg">
<path d="M224 85C224 86.452 223.07 89.2418 218.067 93.0147C213.198 96.6869 205.645 100.335 195.593 103.541C175.582 109.924 147.441 114 116 114C84.5593 114 56.4176 109.924 36.4067 103.541C26.3553 100.335 18.8022 96.6869 13.9327 93.0147C8.92954 89.2418 8 86.452 8 85C8 83.548 8.92954 80.7582 13.9327 76.9853C18.8022 73.3131 26.3553 69.6648 36.4067 66.4587C56.4176 60.0759 84.5593 56 116 56C147.441 56 175.582 60.0759 195.593 66.4587C205.645 69.6648 213.198 73.3131 218.067 76.9853C223.07 80.7582 224 83.548 224 85Z" stroke="white" stroke-width="16"/>
<rect x="101" width="24" height="58" rx="10" fill="#C1DCDC"/>
<rect x="74" y="35" width="10" height="25" rx="5" fill="#C1DCDC"/>
<rect x="142" y="35" width="10" height="25" rx="5" fill="#C1DCDC"/>
</svg>
