<svg width="232" height="204" viewBox="0 0 232 204" fill="none" xmlns="http://www.w3.org/2000/svg">
<path d="M80.2472 46.7837C81.3762 36.6584 89.9359 29 100.124 29H130.876C141.064 29 149.624 36.6584 150.753 46.7837L165.262 176.911C166.283 186.061 160.924 194.733 152.074 197.273C140.546 200.583 124.504 204.335 112 203.976C101.609 203.677 88.5455 200.392 78.6712 197.412C69.9452 194.779 64.7054 186.168 65.7155 177.109L80.2472 46.7837Z" fill="#BDDCDE"/>
<path fill-rule="evenodd" clip-rule="evenodd" d="M0 0C3.01206 44.5505 53.795 80.0003 116 80.0003C178.205 80.0003 228.987 44.5508 232 0.000493526C219.526 19.0547 172.324 33.2279 116 33.2279C59.6754 33.2279 12.4731 19.0545 0 0Z" fill="#DAF2F2"/>
</svg>
