<svg width="651" height="481" viewBox="0 0 651 481" fill="none" xmlns="http://www.w3.org/2000/svg">
<path d="M584.231 463.452C602.36 446.992 616.964 342.293 622 292C374.786 345.767 122.994 314.403 28 292C34.6381 340.464 52.4467 442.603 70.5757 463.452C93.237 489.512 561.57 484.026 584.231 463.452Z" fill="#DAF2F2"/>
<path fill-rule="evenodd" clip-rule="evenodd" d="M341.937 219H341.825C286.739 219 203.914 221.363 134.497 228.488C99.8669 232.042 68.0944 236.826 44.6711 243.247C33.0314 246.438 22.8 250.203 15.2015 254.799C8.01996 259.143 0.485352 265.917 0.0227661 275.942C-0.440796 285.991 6.24353 293.108 13.053 297.678C20.0483 302.373 29.5756 306.114 40.3212 309.22C61.9785 315.481 91.6187 319.997 123.964 323.249C188.836 329.772 266.757 331.406 318.709 330.92L318.719 330.92L318.729 330.92C372.341 330.313 452.91 327.367 520.35 320.472C553.998 317.032 584.81 312.568 607.464 306.796C618.713 303.931 628.582 300.59 635.898 296.558C642.471 292.935 650.632 286.729 650.988 276.775C651.34 266.909 644.012 260.353 637.757 256.458C630.996 252.248 621.811 248.77 611.416 245.79C590.458 239.781 561.787 235.028 530.464 231.282C467.659 223.772 392.287 220.095 342.05 219.002L341.937 219ZM341.712 239.488C391.581 240.575 466.159 244.228 528.005 251.624C559.031 255.334 586.38 259.934 605.709 265.476C615.458 268.271 622.483 271.12 626.824 273.823C628.34 274.766 629.251 275.507 629.79 276.027C629.14 276.616 627.971 277.503 625.912 278.638C620.882 281.41 613.004 284.236 602.352 286.95C581.207 292.337 551.611 296.68 518.243 300.092C451.657 306.899 371.772 309.83 318.506 310.433C266.966 310.915 189.872 309.284 126.036 302.865C94.0251 299.647 65.8865 295.275 46.0714 289.547C36.0809 286.659 28.9487 283.63 24.5774 280.696C22.4279 279.253 21.3641 278.108 20.8915 277.411C20.7205 277.159 20.6476 276.996 20.6191 276.921C20.7614 276.565 21.5948 274.912 25.9073 272.303C31.1019 269.161 39.2007 265.998 50.1454 262.998C71.891 257.037 102.304 252.388 136.612 248.867C205.024 241.846 287.019 239.491 341.712 239.488ZM630.522 276.915C630.524 276.915 630.517 276.897 630.497 276.861C630.511 276.897 630.521 276.915 630.522 276.915Z" fill="white" fill-opacity="0.99"/>
<rect width="22" height="279" rx="11" transform="matrix(-1 0 0 1 22 0)" fill="white" fill-opacity="0.99"/>
<rect width="22" height="58" rx="11" transform="matrix(-1 0 0 1 80 0)" fill="white" fill-opacity="0.99"/>
<rect width="22" height="58" transform="matrix(4.37114e-08 1 1 -4.37114e-08 11 0)" fill="white" fill-opacity="0.99"/>
</svg>
