<svg width="654" height="164" viewBox="0 0 654 164" fill="none" xmlns="http://www.w3.org/2000/svg">
<rect y="54" width="654" height="110" rx="20" fill="#8F7561"/>
<rect y="47" width="654" height="109" rx="20" fill="#F8E5BF"/>
<path fill-rule="evenodd" clip-rule="evenodd" d="M654 101V136C654 147.046 645.046 156 634 156H20C8.95432 156 0 147.046 0 136V101H654Z" fill="#E9D8B7"/>
<circle cx="528.5" cy="66.5" r="6.5" fill="white"/>
<circle cx="120.5" cy="66.5" r="6.5" fill="white"/>
<rect x="117" width="6" height="63" rx="3" fill="#8F7561"/>
<rect x="526" width="5" height="63" rx="2.5" fill="#8F7561"/>
<path d="M101.445 103.712C101.509 103.04 101.829 102.784 102.533 102.784H105.029C105.765 102.784 106.149 103.2 106.085 103.84C105.605 108.512 105.381 111.68 105.381 116.32C105.381 119.744 106.693 121.088 109.381 121.088C110.469 121.088 112.357 120.64 113.989 120C114.117 119.936 114.245 119.904 114.373 119.904C114.725 119.904 114.949 120.192 115.109 120.736L115.749 122.976C115.941 123.616 115.685 123.936 114.949 124.224C113.029 124.96 110.725 125.408 109.253 125.408C103.589 125.408 100.741 122.656 100.741 116.544C100.741 111.68 100.965 108.64 101.445 103.712ZM118.437 128.384V101.824C118.437 101.152 118.821 100.768 119.493 100.768H122.021C122.693 100.768 123.077 101.152 123.077 101.824V112.544C123.429 112 124.165 111.648 125.061 111.648H126.085C126.725 111.648 127.077 112 127.077 112.64V115.136C127.077 115.776 126.725 116.128 126.085 116.128H124.933C123.845 116.128 123.077 116.864 123.077 117.888V128.384C123.077 129.056 122.693 129.44 122.021 129.44H119.493C118.821 129.44 118.437 129.056 118.437 128.384ZM136.57 109.728C136.57 110.464 137.082 110.912 137.978 110.912H144.442C146.138 110.912 147.418 109.824 147.418 107.744C147.418 106.4 146.714 105.824 145.37 105.824H137.498C136.858 105.824 136.57 106.112 136.57 106.752V109.728ZM145.53 122.112C144.602 122.112 144.154 122.592 144.154 123.456V127.264C144.154 127.936 143.802 128.32 143.13 128.32H140.57C139.898 128.32 139.514 127.936 139.514 127.264V123.68C139.514 123.008 139.898 122.4 140.474 122.144C136.506 122.112 132.826 121.952 130.33 121.6C129.594 121.504 129.274 121.184 129.274 120.576V118.208C129.274 117.536 129.658 117.152 130.33 117.248C133.082 117.6 137.306 117.792 141.786 117.792C146.778 117.792 151.322 117.568 153.306 117.248C153.978 117.12 154.394 117.536 154.394 118.208V120.576C154.394 121.152 154.074 121.472 153.338 121.6C151.802 121.856 148.794 122.112 145.53 122.112ZM135.898 115.232C133.274 115.232 131.93 114.048 131.93 111.776V103.36C131.93 102.144 132.538 101.504 133.754 101.504H147.258C150.458 101.504 152.058 102.912 152.058 105.696C152.058 108 150.874 110.048 149.146 111.072H151.514C152.186 111.072 152.506 111.392 152.506 112.064V114.24C152.506 114.88 152.186 115.232 151.514 115.232H135.898ZM181.935 116.704C179.919 116.896 175.247 116.96 170.255 116.96C165.775 116.96 161.391 116.928 158.639 116.704C157.935 116.64 157.743 116.352 157.743 115.808V114.208C157.743 113.568 158.031 113.344 158.639 113.376C161.391 113.6 165.775 113.632 170.255 113.632C175.247 113.632 179.919 113.568 181.903 113.376C182.543 113.312 182.863 113.568 182.863 114.208V115.808C182.863 116.352 182.639 116.64 181.935 116.704ZM170.095 125.28C165.071 125.28 164.559 125.472 164.559 126.112C164.559 126.752 165.231 126.816 171.855 126.816C174.479 126.816 178.479 126.624 180.591 126.304C181.103 126.208 181.455 126.432 181.487 126.912L181.647 128.64C181.679 129.056 181.391 129.344 180.911 129.408C178.607 129.696 174.511 129.92 171.887 129.92C162.319 129.92 159.919 129.184 159.919 126.048C159.919 122.912 162.735 122.176 170.031 122.176C171.791 122.176 173.807 122.144 175.215 122.144C176.047 122.144 176.399 121.984 176.399 121.568C176.399 121.12 176.079 120.96 175.279 120.96C172.239 120.96 165.103 121.152 161.327 121.44C160.815 121.472 160.559 121.216 160.559 120.736V119.008C160.559 118.592 160.751 118.368 161.327 118.336C166.159 117.984 172.847 117.824 177.807 117.952C180.015 118.016 181.007 118.688 181.007 120.096C181.007 121.312 180.271 122.112 179.087 122.464H179.983C180.463 122.464 180.751 122.72 180.751 123.136V124.672C180.751 125.088 180.495 125.376 179.983 125.376C177.647 125.376 175.951 125.28 170.095 125.28ZM179.631 108.352C177.231 108.352 175.631 108.256 170.095 108.256C165.871 108.256 165.039 108.352 165.039 108.896C165.039 109.44 165.839 109.472 170.319 109.472C173.583 109.472 176.879 109.376 180.111 108.864C180.623 108.8 180.847 108.96 180.911 109.44L181.167 111.104C181.231 111.584 181.007 111.808 180.527 111.904C178.287 112.288 174.671 112.48 171.887 112.48C162.831 112.48 160.399 112 160.399 108.864C160.399 105.952 162.927 105.28 170.031 105.28C171.791 105.28 173.327 105.248 174.735 105.248C175.599 105.248 175.919 105.152 175.919 104.832C175.919 104.48 175.631 104.384 174.799 104.384C171.087 104.384 165.103 104.544 161.743 104.736C161.263 104.768 161.039 104.576 161.039 104.128V102.4C161.039 101.952 161.263 101.728 161.743 101.696C165.423 101.472 169.039 101.376 172.431 101.376C174.255 101.376 176.015 101.408 177.711 101.472C179.631 101.536 180.527 102.08 180.527 103.424C180.527 104.512 179.855 105.216 178.703 105.568H179.631C180.079 105.568 180.271 105.792 180.271 106.24V107.712C180.271 108.16 180.111 108.352 179.631 108.352ZM204.012 124.032C204.812 118.784 205.164 114.72 205.164 110.368C205.164 107.968 204.524 107.104 202.7 107.104C199.884 107.104 198.22 107.456 196.108 107.68C195.5 107.744 195.116 107.36 195.116 106.688V104.352C195.116 103.744 195.404 103.456 196.108 103.36C199.34 102.912 201.132 102.784 203.404 102.784C207.948 102.784 209.836 104.832 209.836 109.824C209.836 114.944 209.516 119.36 208.652 124.16C208.524 124.864 208.236 125.088 207.564 125.088H205.004C204.3 125.088 203.916 124.672 204.012 124.032ZM213.452 101.824C213.452 101.152 213.836 100.768 214.508 100.768H217.036C217.708 100.768 218.092 101.152 218.092 101.824V128.384C218.092 129.056 217.708 129.44 217.036 129.44H214.508C213.836 129.44 213.452 129.056 213.452 128.384V101.824ZM234.72 112.448C230.016 112.448 229.664 112.736 229.664 113.6C229.664 114.464 230.176 114.624 236.48 114.624C239.104 114.624 242.464 114.4 244.576 113.984C245.088 113.888 245.44 114.144 245.536 114.784L245.952 117.152C246.048 117.696 245.696 118.08 245.216 118.176C243.008 118.56 239.136 118.912 236.512 118.912C227.264 118.912 225.024 117.76 225.024 113.504C225.024 109.312 227.68 108.192 234.656 108.192H239.36C240.192 108.192 240.544 107.872 240.544 107.296C240.544 106.688 240.224 106.464 239.424 106.464C236.384 106.464 230.272 106.624 226.496 107.008C225.984 107.072 225.664 106.688 225.664 106.048V103.68C225.664 103.104 225.92 102.784 226.496 102.72C230.208 102.4 234.4 102.176 238.4 102.176C239.616 102.176 240.8 102.208 241.952 102.24C244 102.336 245.152 103.424 245.152 105.344C245.152 106.912 244.448 108.064 243.264 108.576H244.064C244.544 108.576 244.896 108.928 244.896 109.472V111.584C244.896 112.16 244.576 112.544 244.064 112.544C241.728 112.544 240.576 112.448 234.72 112.448ZM234.912 122.912C239.904 122.912 244.448 122.688 246.432 122.368C247.104 122.24 247.488 122.656 247.488 123.328V125.696C247.488 126.272 247.168 126.592 246.432 126.72C244.448 127.072 239.904 127.264 234.912 127.264C230.432 127.264 226.208 127.104 223.424 126.72C222.688 126.624 222.368 126.304 222.368 125.696V123.328C222.368 122.656 222.752 122.272 223.424 122.368C226.208 122.72 230.432 122.912 234.912 122.912ZM269.205 118.08C268.565 117.984 268.341 117.76 268.469 117.12C268.885 115.008 269.013 112.48 269.013 110.592C269.013 108.128 267.701 106.784 265.269 106.784C262.261 106.784 258.805 107.104 254.517 107.328C253.909 107.36 253.493 107.008 253.493 106.432V103.936C253.493 103.424 253.877 103.04 254.517 102.976C258.997 102.528 262.997 102.432 266.325 102.432C271.061 102.432 273.621 104.96 273.621 109.664C273.621 112.576 273.429 115.392 272.949 117.76C272.821 118.4 272.501 118.56 271.861 118.464L269.205 118.08ZM251.893 126.4C251.157 126.304 250.837 125.984 250.837 125.376V123.008C250.837 122.336 251.221 121.984 251.893 122.048C254.229 122.272 257.397 122.528 260.277 122.592C259.701 122.336 259.317 121.728 259.317 120.928V115.04C259.317 114.368 259.701 113.984 260.373 113.984H262.933C263.605 113.984 263.957 114.368 263.957 115.04V121.184C263.957 122.048 264.405 122.496 265.333 122.528C267.541 122.592 272.373 122.368 274.869 122.048C275.541 121.952 275.957 122.336 275.957 123.008V125.376C275.957 125.952 275.637 126.272 274.901 126.4C272.917 126.752 268.373 126.944 263.381 126.944C258.901 126.944 254.677 126.784 251.893 126.4ZM310.482 102.816V104.768C310.482 105.408 310.098 105.792 309.49 105.76C306.514 105.6 303.762 105.408 301.17 105.408C296.274 105.408 294.93 105.696 294.93 106.816C294.93 107.936 295.954 108.224 300.338 108.224C302.45 108.224 306.162 108.032 309.746 107.648C310.354 107.584 310.674 107.904 310.738 108.64L310.898 110.592C310.962 111.2 310.642 111.52 309.906 111.584C307.666 111.776 305.266 112 303.154 112.096V112.896C303.154 113.504 303.538 113.856 304.306 113.888C305.874 113.952 309.81 113.824 312.306 113.632C312.978 113.568 313.394 113.92 313.394 114.592V116.48C313.394 117.056 313.074 117.44 312.338 117.504C310.354 117.696 305.81 117.76 300.818 117.76C296.338 117.76 292.114 117.728 289.33 117.504C288.594 117.44 288.274 117.088 288.274 116.48V114.592C288.274 113.92 288.658 113.568 289.33 113.632C291.73 113.824 295.762 113.888 299.218 113.92C298.77 113.728 298.514 113.312 298.514 112.8V112.096C292.53 111.84 290.29 110.336 290.29 106.816C290.29 102.88 293.234 101.472 301.266 101.472C303.602 101.472 306.002 101.504 309.49 101.824C310.194 101.888 310.482 102.176 310.482 102.816ZM301.074 118.816C308.85 118.816 312.018 120.416 312.018 124.384C312.018 128.352 308.85 129.952 301.074 129.952C293.298 129.952 290.13 128.352 290.13 124.384C290.13 120.416 293.298 118.816 301.074 118.816ZM294.77 124.384C294.77 125.76 296.018 126.112 301.074 126.112C306.13 126.112 307.378 125.76 307.378 124.384C307.378 123.008 306.13 122.656 301.074 122.656C296.018 122.656 294.77 123.008 294.77 124.384ZM329.095 124.928C324.391 124.928 323.559 125.12 323.559 125.792C323.559 126.496 324.551 126.56 330.855 126.56C333.479 126.56 337.479 126.368 339.591 125.984C340.103 125.888 340.455 126.144 340.487 126.656L340.647 128.512C340.679 128.96 340.391 129.28 339.911 129.344C337.607 129.664 333.511 129.92 330.887 129.92C321.639 129.92 318.919 129.12 318.919 125.728C318.919 122.368 322.055 121.568 329.031 121.568C330.791 121.568 332.807 121.536 334.215 121.536C335.047 121.536 335.399 121.344 335.399 120.896C335.399 120.416 335.079 120.224 334.279 120.224C331.239 120.224 324.167 120.448 320.391 120.768C319.879 120.8 319.559 120.512 319.559 120V118.144C319.559 117.664 319.815 117.408 320.391 117.376C322.375 117.248 324.647 117.12 326.983 117.024V116.608C326.983 116.192 327.175 115.84 327.559 115.648C323.783 115.68 320.327 115.616 317.735 115.424C316.999 115.36 316.743 115.072 316.743 114.464V112.768C316.743 112.096 317.063 111.808 317.735 111.872C320.487 112.096 324.775 112.128 329.255 112.128C334.247 112.128 338.855 112.064 340.839 111.872C341.511 111.808 341.863 112.096 341.863 112.768V114.464C341.863 115.04 341.607 115.36 340.871 115.424C339.303 115.584 335.559 115.68 332.615 115.68C331.911 115.68 331.623 115.968 331.623 116.512V116.928C333.447 116.928 335.207 116.928 336.807 116.992C338.855 117.056 340.007 117.792 340.007 119.328C340.007 120.576 339.303 121.472 338.151 121.856H338.919C339.399 121.856 339.751 122.144 339.751 122.592V124.256C339.751 124.704 339.431 125.024 338.919 125.024C336.583 125.024 334.951 124.928 329.095 124.928ZM337.159 107.648H339.111C339.687 107.648 339.975 107.936 339.975 108.512V110.144C339.975 110.688 339.687 111.008 339.111 111.008H322.983C320.615 111.008 319.399 109.952 319.399 107.904V103.104C319.399 102.016 319.943 101.472 320.999 101.472H336.231C338.471 101.472 339.591 102.4 339.591 104.32C339.591 105.76 338.663 107.008 337.159 107.648ZM333.159 107.488C334.119 107.488 334.887 106.848 334.887 106.016C334.887 105.344 334.535 104.992 333.767 104.992H324.807C324.263 104.992 324.039 105.216 324.039 105.76V106.464C324.039 107.136 324.455 107.488 325.255 107.488H333.159ZM367.388 125.024C365.052 125.024 363.42 124.928 357.564 124.928C352.86 124.928 352.028 125.12 352.028 125.792C352.028 126.496 353.02 126.56 359.324 126.56C361.948 126.56 365.948 126.368 368.06 125.984C368.572 125.888 368.924 126.144 368.956 126.656L369.116 128.512C369.148 128.96 368.86 129.28 368.38 129.344C366.076 129.664 361.98 129.92 359.356 129.92C350.108 129.92 347.388 129.12 347.388 125.728C347.388 122.368 350.524 121.568 357.5 121.568C359.26 121.568 361.276 121.536 362.684 121.536C363.516 121.536 363.868 121.344 363.868 120.896C363.868 120.416 363.548 120.224 362.748 120.224C359.708 120.224 352.636 120.448 348.86 120.768C348.348 120.8 348.028 120.512 348.028 120V118.144C348.028 117.664 348.284 117.408 348.86 117.376C353.692 117.024 360.316 116.832 365.276 116.992C367.324 117.056 368.476 117.792 368.476 119.328C368.476 120.576 367.772 121.472 366.62 121.856H367.388C367.868 121.856 368.22 122.144 368.22 122.592V124.256C368.22 124.704 367.9 125.024 367.388 125.024ZM357.724 112.288C362.716 112.288 367.324 112.224 369.308 112.032C369.98 111.968 370.332 112.256 370.332 112.928V114.624C370.332 115.2 370.076 115.52 369.34 115.584C367.356 115.776 362.748 115.84 357.756 115.84C353.276 115.84 348.988 115.808 346.204 115.584C345.468 115.52 345.212 115.232 345.212 114.624V112.928C345.212 112.256 345.532 111.968 346.204 112.032C348.956 112.256 353.244 112.288 357.724 112.288ZM366.492 101.824C367.196 101.888 367.42 102.144 367.42 102.784V104.544C367.42 105.184 367.1 105.472 366.492 105.44C363.516 105.28 360.7 105.088 358.108 105.088C353.212 105.088 351.868 105.216 351.868 106.336C351.868 107.456 352.892 107.584 357.276 107.584C359.388 107.584 363.164 107.392 366.748 107.008C367.356 106.944 367.612 107.168 367.676 107.904L367.836 109.664C367.9 110.272 367.644 110.56 366.908 110.624C363.772 110.912 360.284 111.2 357.756 111.2C350.012 111.2 347.228 110.112 347.228 106.336C347.228 102.56 350.172 101.472 358.204 101.472C360.54 101.472 363.004 101.504 366.492 101.824ZM380.656 106.208C380.656 107.36 382 107.712 386.48 107.712C390.96 107.712 392.304 107.36 392.304 106.208C392.304 105.024 391.024 104.672 386.48 104.672C381.936 104.672 380.656 105.024 380.656 106.208ZM395.856 125.024C393.52 125.024 391.888 124.928 386.032 124.928C381.328 124.928 380.496 125.12 380.496 125.792C380.496 126.496 381.488 126.56 387.792 126.56C390.416 126.56 394.416 126.368 396.528 125.984C397.04 125.888 397.392 126.144 397.424 126.656L397.584 128.512C397.616 128.96 397.328 129.28 396.848 129.344C394.544 129.664 390.448 129.92 387.824 129.92C378.576 129.92 375.856 129.12 375.856 125.728C375.856 122.368 378.992 121.568 385.968 121.568C387.728 121.568 389.744 121.536 391.152 121.536C391.984 121.536 392.336 121.344 392.336 120.896C392.336 120.416 392.016 120.224 391.216 120.224C388.176 120.224 381.104 120.448 377.328 120.768C376.816 120.8 376.496 120.512 376.496 120V118.144C376.496 117.664 376.752 117.408 377.328 117.376C382.16 117.024 388.784 116.832 393.744 116.992C395.792 117.056 396.944 117.792 396.944 119.328C396.944 120.576 396.24 121.472 395.088 121.856H395.856C396.336 121.856 396.688 122.144 396.688 122.592V124.256C396.688 124.704 396.368 125.024 395.856 125.024ZM386.192 112.288C391.184 112.288 395.792 112.224 397.776 112.032C398.448 111.968 398.8 112.256 398.8 112.928V114.624C398.8 115.2 398.544 115.52 397.808 115.584C395.824 115.776 391.216 115.84 386.224 115.84C381.744 115.84 377.456 115.808 374.672 115.584C373.936 115.52 373.68 115.232 373.68 114.624V112.928C373.68 112.256 374 111.968 374.672 112.032C377.424 112.256 381.712 112.288 386.192 112.288ZM386.48 101.152C393.968 101.152 396.944 102.592 396.944 106.208C396.944 109.792 393.968 111.232 386.48 111.232C378.992 111.232 376.016 109.792 376.016 106.208C376.016 102.592 378.992 101.152 386.48 101.152ZM414.382 117.792H432.334C433.006 117.792 433.39 118.176 433.39 118.848V121.056C433.39 121.728 433.006 122.112 432.334 122.112H425.71C425.934 123.968 428.59 125.312 432.814 125.312C433.518 125.312 433.87 125.632 433.87 126.24V128.64C433.87 129.248 433.518 129.6 432.814 129.632C428.654 129.792 424.622 128.512 423.342 125.376C422.094 128.512 418.062 129.792 413.902 129.632C413.198 129.6 412.846 129.248 412.846 128.64V126.24C412.846 125.632 413.198 125.312 413.902 125.312C418.158 125.312 420.814 123.936 421.038 122.112H414.382C413.71 122.112 413.326 121.728 413.326 121.056V118.848C413.326 118.176 413.71 117.792 414.382 117.792ZM420.718 100.352V101.6C420.718 102.016 421.006 102.304 421.582 102.304H424.942C425.614 102.304 425.998 102.688 425.998 103.36V105.568C425.998 106.24 425.614 106.624 424.942 106.624H420.718C420.782 109.632 422.606 111.328 425.166 111.328C425.838 111.328 426.158 111.648 426.158 112.256V114.656C426.158 115.296 425.838 115.648 425.166 115.648C422.03 115.648 419.31 114.208 418.446 111.52C417.55 114.208 414.83 115.648 411.63 115.648C410.926 115.648 410.574 115.264 410.574 114.656V112.256C410.574 111.648 410.926 111.328 411.63 111.328C414.19 111.328 416.014 109.632 416.078 106.624H411.79C411.118 106.624 410.734 106.24 410.734 105.568V103.36C410.734 102.688 411.118 102.304 411.79 102.304H416.558C416.238 102.112 416.078 101.824 416.078 101.376V100.352C416.078 99.68 416.398 99.36 417.07 99.36H419.726C420.398 99.36 420.718 99.68 420.718 100.352ZM433.39 114.624C433.39 115.296 433.006 115.68 432.334 115.68H429.806C429.134 115.68 428.75 115.296 428.75 114.624V101.824C428.75 101.152 429.134 100.768 429.806 100.768H432.334C433.006 100.768 433.39 101.152 433.39 101.824V106.464C433.742 105.92 434.478 105.568 435.374 105.568H436.398C437.038 105.568 437.39 105.92 437.39 106.56V108.896C437.39 109.536 437.038 109.888 436.398 109.888H435.246C434.158 109.888 433.39 110.624 433.39 111.648V114.624ZM446.691 106.784C444.611 106.784 443.779 108.8 443.779 114.08C443.779 119.36 444.611 121.408 446.691 121.408C448.803 121.408 449.635 119.392 449.635 114.08C449.635 108.8 448.803 106.784 446.691 106.784ZM454.211 114.08C454.211 122.176 451.875 125.728 446.691 125.728C441.507 125.728 439.203 122.176 439.203 114.08C439.203 105.984 441.507 102.464 446.691 102.464C451.907 102.464 454.211 105.984 454.211 114.08ZM461.859 128.384C461.859 129.056 461.475 129.44 460.803 129.44H458.275C457.603 129.44 457.219 129.056 457.219 128.384V101.824C457.219 101.152 457.603 100.768 458.275 100.768H460.803C461.475 100.768 461.859 101.152 461.859 101.824V112.544C462.211 112 462.947 111.648 463.843 111.648H464.867C465.507 111.648 465.859 112 465.859 112.64V115.136C465.859 115.776 465.507 116.128 464.867 116.128H463.715C462.627 116.128 461.859 116.864 461.859 117.888V128.384ZM469.111 126.4C468.375 126.304 468.055 125.984 468.055 125.376V123.008C468.055 122.336 468.439 121.984 469.111 122.048C471.511 122.272 475.703 122.528 479.287 122.624C478.679 122.336 478.295 121.728 478.295 120.928V118.432H475.063C472.439 118.432 470.871 117.024 470.775 114.656L470.295 103.488C470.263 102.848 470.679 102.464 471.351 102.464H473.879C474.615 102.464 474.935 102.72 474.967 103.392L475.063 106.144H486.135L486.231 103.392C486.263 102.752 486.583 102.464 487.319 102.464H489.847C490.551 102.464 490.935 102.848 490.903 103.488L490.423 114.656C490.327 117.024 488.759 118.432 486.135 118.432H482.935V121.184C482.935 122.528 483.927 122.528 484.951 122.528C486.711 122.528 489.879 122.336 492.087 122.048C492.759 121.952 493.175 122.336 493.175 123.008V125.376C493.175 125.952 492.855 126.272 492.119 126.4C490.135 126.752 485.591 126.944 480.599 126.944C476.119 126.944 471.895 126.784 469.111 126.4ZM475.255 110.464L475.351 113.056C475.383 113.792 475.735 114.112 476.535 114.112H484.663C485.463 114.112 485.815 113.792 485.847 113.056L485.943 110.464H475.255ZM502.764 120.384C502.028 123.008 499.692 124.768 496.716 125.088C496.044 125.152 495.66 124.832 495.66 124.192V121.792C495.66 121.184 496.012 120.864 496.716 120.768C499.02 120.448 500.556 118.368 500.556 115.36V103.776C500.556 103.104 500.876 102.784 501.548 102.784H503.916C504.62 102.784 504.908 103.136 504.908 103.936V115.36C504.908 118.496 506.284 120.448 508.46 120.768C509.132 120.864 509.452 121.184 509.452 121.792V124.192C509.452 124.832 509.132 125.152 508.46 125.088C505.644 124.768 503.436 123.008 502.764 120.384ZM511.82 113.92C511.596 114.208 511.212 114.4 510.764 114.4H508.14C507.5 114.4 507.148 114.048 507.148 113.408V110.912C507.148 110.272 507.5 109.92 508.14 109.92H510.828C511.468 109.92 511.82 109.6 511.82 108.992V102.08C511.82 101.408 512.14 101.088 512.812 101.088H515.148C515.82 101.088 516.14 101.408 516.14 102.08V128.448C516.14 129.12 515.82 129.44 515.148 129.44H512.812C512.14 129.44 511.82 129.12 511.82 128.448V113.92ZM517.9 101.76C517.9 101.088 518.22 100.768 518.892 100.768H521.228C521.9 100.768 522.22 101.088 522.22 101.76V128.448C522.22 129.12 521.9 129.44 521.228 129.44H518.892C518.22 129.44 517.9 129.12 517.9 128.448V101.76ZM548.455 122.336C549.447 122.336 550.471 122.176 551.431 122.048C552.103 121.952 552.519 122.336 552.519 123.008V125.376C552.519 125.952 552.199 126.272 551.463 126.4C549.479 126.752 544.935 126.944 539.943 126.944C535.463 126.944 531.239 126.784 528.455 126.4C527.719 126.304 527.399 125.984 527.399 125.376V123.008C527.399 122.336 527.783 121.984 528.455 122.048C529.863 122.176 531.431 122.304 533.479 122.4C532.999 122.112 532.679 121.504 532.679 120.8V117.28C532.679 117.152 532.679 117.024 532.711 116.928C530.727 115.52 529.735 113.344 529.735 110.432C529.735 104.96 533.287 102.144 540.199 102.144C547.111 102.144 550.663 104.96 550.663 110.432C550.663 113.536 549.511 115.84 547.239 117.216V120.992C547.239 121.856 547.687 122.336 548.455 122.336ZM540.199 118.784C539.175 118.784 538.215 118.72 537.319 118.592V121.248C537.319 122.112 537.767 122.56 538.695 122.592C539.783 122.624 541.991 122.592 543.687 122.56C543.047 122.304 542.599 121.664 542.599 120.832V118.656C541.863 118.752 541.063 118.784 540.199 118.784ZM540.199 106.464C536.007 106.464 534.375 107.68 534.375 110.464C534.375 113.248 536.007 114.464 540.199 114.464C544.391 114.464 546.023 113.248 546.023 110.464C546.023 107.68 544.391 106.464 540.199 106.464ZM556.732 126.368C556.732 125.696 557.116 125.312 557.788 125.312H560.316C560.988 125.312 561.372 125.696 561.372 126.368V129.024C561.372 129.696 560.988 130.08 560.316 130.08H557.788C557.116 130.08 556.732 129.696 556.732 129.024V126.368ZM556.732 101.504C556.732 100.832 557.116 100.448 557.788 100.448H560.316C560.988 100.448 561.372 100.832 561.372 101.504V122.656C561.372 123.328 560.988 123.712 560.316 123.712H557.788C557.116 123.712 556.732 123.328 556.732 122.656V101.504Z" fill="#422205"/>
<path d="M219.19 73.398C217.746 73.398 217.119 74.766 217.119 78.11C217.119 81.454 217.746 82.841 219.19 82.841C220.653 82.841 221.28 81.473 221.28 78.11C221.28 74.766 220.653 73.398 219.19 73.398ZM223.465 78.11C223.465 82.803 222.135 84.931 219.19 84.931C216.264 84.931 214.934 82.803 214.934 78.11C214.934 73.398 216.245 71.308 219.19 71.308C222.154 71.308 223.465 73.398 223.465 78.11ZM227.816 86.622C227.816 86.945 227.626 87.135 227.322 87.135H226.125C225.821 87.135 225.631 86.945 225.631 86.622V70.814C225.631 70.491 225.821 70.301 226.125 70.301H227.322C227.626 70.301 227.816 70.491 227.816 70.814V77.331C227.949 77.084 228.215 76.951 228.595 76.951H229.716C230.039 76.951 230.191 77.103 230.191 77.426V78.566C230.191 78.889 230.039 79.041 229.716 79.041H228.481C228.025 79.041 227.816 79.231 227.816 79.649V86.622ZM231.941 72.733C231.618 72.733 231.466 72.581 231.466 72.258V71.213C231.466 70.89 231.618 70.738 231.941 70.738H239.731C240.054 70.738 240.206 70.89 240.206 71.213V72.258C240.206 72.581 240.054 72.733 239.731 72.733H236.919V73.512C236.919 75.621 238.135 77.236 239.807 77.236C240.13 77.236 240.282 77.388 240.282 77.711V78.756C240.282 79.079 240.13 79.231 239.807 79.231C237.831 79.231 236.349 77.92 235.836 76.419C235.304 77.92 233.841 79.231 231.846 79.231C231.523 79.231 231.371 79.079 231.371 78.756V77.711C231.371 77.388 231.523 77.236 231.846 77.236C233.518 77.236 234.734 75.621 234.734 73.512V72.733H231.941ZM244.576 86.736C244.538 87.059 244.348 87.23 244.025 87.23H242.885C242.562 87.23 242.353 87.021 242.391 86.717C242.467 86.071 242.486 85.026 242.486 84.285C242.486 83.069 242.087 82.708 240.738 82.708C238.021 82.708 235.722 82.822 233.385 83.031C233.062 83.069 232.91 82.898 232.91 82.575V81.53C232.91 81.226 233.043 81.074 233.385 81.036C235.399 80.827 237.926 80.713 240.966 80.713C243.588 80.713 244.671 81.587 244.671 83.734C244.671 85.007 244.652 86.071 244.576 86.736ZM242.543 70.814C242.543 70.491 242.733 70.301 243.037 70.301H244.234C244.538 70.301 244.728 70.491 244.728 70.814V78.832C244.728 79.155 244.538 79.345 244.234 79.345H243.037C242.733 79.345 242.543 79.155 242.543 78.832V70.814ZM266.033 87.097C264.646 87.287 262.347 87.42 260.903 87.42C255.374 87.42 254.082 86.964 254.082 85.007C254.082 83.183 255.298 82.67 259.801 82.67C260.827 82.67 261.929 82.708 262.917 82.67C263.62 82.651 263.867 82.518 263.867 82.119C263.867 81.701 263.639 81.53 262.974 81.53C261.055 81.53 256.989 81.663 254.88 81.796C254.595 81.815 254.462 81.663 254.462 81.359V80.504C254.462 80.219 254.576 80.086 254.88 80.067C257.749 79.877 261.834 79.782 264.285 79.839C265.558 79.877 266.033 80.295 266.033 81.226C266.033 81.986 265.558 82.594 264.798 82.841H265.482C265.767 82.841 265.881 82.974 265.881 83.259V84.038C265.881 84.342 265.748 84.475 265.482 84.456C264.304 84.399 262.423 84.38 259.839 84.38C256.666 84.38 256.267 84.475 256.267 85.045C256.267 85.71 257.027 85.71 260.884 85.71C262.29 85.71 264.475 85.577 265.9 85.387C266.185 85.349 266.337 85.482 266.356 85.767L266.413 86.622C266.432 86.926 266.318 87.059 266.033 87.097ZM266.66 77.027C266.964 76.989 267.135 77.141 267.135 77.445V78.357C267.135 78.661 267.002 78.794 266.698 78.832C265.33 78.984 262.594 79.022 259.934 79.003C256.457 78.984 254.367 78.946 253.227 78.813C252.942 78.775 252.79 78.642 252.79 78.357V77.426C252.79 77.122 252.961 76.989 253.265 77.008C255.051 77.103 257.711 77.198 259.934 77.198C263.031 77.198 265.216 77.179 266.66 77.027ZM264.95 72.695C262.537 72.562 261.492 72.524 260.542 72.524C257.122 72.524 256.172 72.752 256.172 73.531C256.172 74.367 256.951 74.595 260.048 74.595C261.568 74.595 263.411 74.462 265.102 74.253C265.406 74.215 265.558 74.329 265.577 74.652L265.653 75.602C265.672 75.887 265.558 76.001 265.235 76.039C263.126 76.286 261.549 76.4 260.333 76.4C255.583 76.4 253.987 75.678 253.987 73.531C253.987 71.403 255.602 70.719 260.599 70.719C261.644 70.719 262.575 70.776 264.969 70.909C265.292 70.928 265.406 71.061 265.406 71.365V72.277C265.406 72.581 265.273 72.714 264.95 72.695ZM269.285 72.733C268.962 72.733 268.81 72.581 268.81 72.258V71.213C268.81 70.89 268.962 70.738 269.285 70.738H277.74C278.063 70.738 278.215 70.89 278.215 71.213V72.258C278.215 72.581 278.063 72.733 277.74 72.733H276.771L276.543 77.692C277.075 77.654 277.569 77.616 277.987 77.578C278.31 77.54 278.462 77.73 278.462 78.053V79.098C278.462 79.421 278.31 79.535 277.987 79.573C277.189 79.687 275.289 79.801 273.503 79.801C271.717 79.801 270.026 79.687 269.038 79.573C268.715 79.535 268.563 79.421 268.563 79.098V78.053C268.563 77.73 268.715 77.54 269.038 77.578C269.456 77.616 269.95 77.654 270.482 77.692L270.254 72.733H269.285ZM270.843 81.777C270.9 81.454 271.071 81.283 271.394 81.283H272.534C272.857 81.283 273.066 81.492 273.028 81.796C272.971 82.252 272.914 82.936 272.914 83.677C272.914 84.817 273.655 85.425 274.814 85.425C277.987 85.425 279.678 85.311 281.92 85.102C282.224 85.064 282.395 85.216 282.414 85.558L282.49 86.603C282.509 86.888 282.357 87.04 282.034 87.078C280.153 87.268 277.854 87.42 274.909 87.42C272.268 87.42 270.729 86.09 270.729 83.886C270.729 83.088 270.767 82.252 270.843 81.777ZM281.977 81.492C281.977 81.815 281.787 82.005 281.483 82.005H280.286C279.982 82.005 279.792 81.815 279.792 81.492V70.814C279.792 70.491 279.982 70.301 280.286 70.301H281.483C281.787 70.301 281.977 70.491 281.977 70.814V75.241C282.11 74.994 282.376 74.861 282.756 74.861H283.877C284.2 74.861 284.352 75.013 284.352 75.336V76.381C284.352 76.704 284.2 76.856 283.877 76.856H282.642C282.186 76.856 281.977 77.046 281.977 77.464V81.492ZM272.61 77.787C272.914 77.806 273.218 77.806 273.503 77.806C273.807 77.806 274.111 77.806 274.415 77.787L274.643 72.733H272.382L272.61 77.787ZM292.999 78.965C292.847 83.069 291.612 84.931 289.218 84.931C286.691 84.931 285.437 82.803 285.437 78.11C285.437 73.398 286.672 71.308 289.218 71.308C291.555 71.308 292.771 73.037 292.98 76.875H294.557C294.994 76.875 295.127 76.742 295.127 76.362V70.966C295.127 70.643 295.279 70.491 295.602 70.491H296.742C297.065 70.491 297.217 70.643 297.217 70.966V86.66C297.217 86.983 297.065 87.135 296.742 87.135H295.602C295.279 87.135 295.127 86.983 295.127 86.66V78.623C295.013 78.832 294.747 78.965 294.481 78.965H292.999ZM300.542 70.776V86.66C300.542 86.983 300.39 87.135 300.067 87.135H298.927C298.604 87.135 298.452 86.983 298.452 86.66V70.776C298.452 70.453 298.604 70.301 298.927 70.301H300.067C300.39 70.301 300.542 70.453 300.542 70.776ZM289.218 73.398C288.04 73.398 287.527 74.785 287.527 78.11C287.527 81.435 288.04 82.841 289.218 82.841C290.415 82.841 290.928 81.454 290.928 78.11C290.928 74.766 290.415 73.398 289.218 73.398ZM312.594 73.398C311.15 73.398 310.523 74.766 310.523 78.11C310.523 81.454 311.15 82.841 312.594 82.841C314.057 82.841 314.684 81.473 314.684 78.11C314.684 74.766 314.057 73.398 312.594 73.398ZM316.869 78.11C316.869 82.803 315.539 84.931 312.594 84.931C309.668 84.931 308.338 82.803 308.338 78.11C308.338 73.398 309.649 71.308 312.594 71.308C315.558 71.308 316.869 73.398 316.869 78.11ZM321.22 86.622C321.22 86.945 321.03 87.135 320.726 87.135H319.529C319.225 87.135 319.035 86.945 319.035 86.622V70.814C319.035 70.491 319.225 70.301 319.529 70.301H320.726C321.03 70.301 321.22 70.491 321.22 70.814V77.331C321.353 77.084 321.619 76.951 321.999 76.951H323.12C323.443 76.951 323.595 77.103 323.595 77.426V78.566C323.595 78.889 323.443 79.041 323.12 79.041H321.885C321.429 79.041 321.22 79.231 321.22 79.649V86.622ZM333.933 76.704C335.111 76.704 335.871 75.716 335.871 74.196C335.871 73.094 335.491 72.733 334.313 72.733H329.316C329.031 72.733 328.86 72.885 328.86 73.189V76.096C328.86 76.476 329.145 76.704 329.601 76.704H333.933ZM334.028 82.499C333.572 82.499 333.363 82.67 333.363 83.088V85.957C333.363 86.28 333.173 86.47 332.869 86.47H331.672C331.368 86.47 331.178 86.28 331.178 85.957V83.335C331.178 82.955 331.368 82.632 331.672 82.518C329.563 82.499 326.96 82.366 325.573 82.195C325.231 82.157 325.098 81.967 325.098 81.663V80.618C325.098 80.295 325.288 80.143 325.611 80.181C327.416 80.39 329.601 80.504 332.242 80.504C334.959 80.504 337.448 80.39 338.93 80.2C339.253 80.162 339.443 80.314 339.443 80.637V81.682C339.443 82.005 339.31 82.157 338.968 82.214C337.676 82.385 335.662 82.499 334.028 82.499ZM336.289 76.704H337.847C338.17 76.704 338.322 76.856 338.322 77.179V78.224C338.322 78.547 338.17 78.699 337.847 78.699H328.632C327.416 78.699 326.675 78.072 326.675 77.027V71.631C326.675 71.061 326.979 70.738 327.549 70.738H335.282C337.22 70.738 338.056 71.498 338.056 73.227C338.056 74.804 337.391 76.096 336.289 76.704ZM351.972 78.718C352.352 77.445 352.694 75.298 352.694 74.31C352.694 73.265 352.2 72.847 351.231 72.847C349.179 72.847 348.476 73.018 347.222 73.189C346.918 73.227 346.728 73.018 346.728 72.695V71.593C346.728 71.289 346.88 71.118 347.203 71.08C348.666 70.871 349.825 70.738 351.326 70.738C353.872 70.738 354.898 71.821 354.898 74.348C354.898 75.393 354.518 77.483 354.195 78.775C354.119 79.098 353.986 79.231 353.663 79.231H352.447C352.105 79.231 351.877 79.003 351.972 78.718ZM357.805 70.814C357.805 70.491 357.995 70.301 358.299 70.301H359.496C359.8 70.301 359.99 70.491 359.99 70.814V80.162C359.99 80.485 359.8 80.675 359.496 80.675H358.299C357.995 80.675 357.805 80.485 357.805 80.162V75.336C357.672 75.583 357.406 75.716 357.026 75.716H356.171C355.848 75.716 355.696 75.564 355.696 75.241V74.196C355.696 73.873 355.848 73.721 356.171 73.721H357.14C357.596 73.721 357.805 73.531 357.805 73.113V70.814ZM348.457 87.249C348.115 87.23 347.982 87.097 347.982 86.774V85.691C347.982 85.387 348.115 85.254 348.457 85.254C350.965 85.254 353.055 83.753 353.055 81.929V81.207C353.055 80.884 353.245 80.694 353.549 80.694H354.746C355.05 80.694 355.24 80.884 355.24 81.207V81.929C355.24 83.753 357.292 85.254 359.8 85.254C360.142 85.254 360.275 85.387 360.275 85.691V86.774C360.275 87.097 360.142 87.23 359.8 87.249C357.577 87.363 355.031 86.223 354.119 84.418C353.207 86.242 350.68 87.382 348.457 87.249ZM363.202 85.311C362.86 85.254 362.727 85.102 362.727 84.798V83.753C362.727 83.43 362.917 83.259 363.24 83.297C364.608 83.449 367.173 83.62 369.282 83.658C368.997 83.525 368.807 83.221 368.807 82.841V80.618C365.178 80.295 363.829 78.623 363.829 75.963C363.829 72.999 365.539 71.289 370.441 71.289C371.486 71.289 372.379 71.346 374.773 71.479C375.096 71.498 375.248 71.669 375.248 71.973V73.094C375.248 73.398 375.077 73.569 374.754 73.55C372.512 73.417 371.391 73.379 370.384 73.379C367.002 73.379 366.014 74.139 366.014 75.963C366.014 77.787 366.831 78.585 369.89 78.585C371.41 78.585 373.234 78.452 374.925 78.243C375.229 78.205 375.4 78.357 375.419 78.699L375.495 79.839C375.514 80.124 375.362 80.276 375.039 80.314C373.367 80.504 372.075 80.618 370.992 80.656V83.012C370.992 83.43 371.201 83.601 371.657 83.601C373.291 83.601 375.267 83.487 376.559 83.316C376.882 83.278 377.072 83.449 377.072 83.772V84.817C377.072 85.14 376.939 85.273 376.597 85.33C375.305 85.539 372.778 85.653 369.871 85.653C366.85 85.653 364.627 85.539 363.202 85.311ZM390.512 74.69C390.512 73.379 389.733 72.543 388.517 72.543C387.301 72.543 386.541 73.379 386.541 74.69C386.541 76.001 387.32 76.856 388.517 76.856C389.733 76.856 390.512 76.001 390.512 74.69ZM387.624 83.392L387.7 84.95C387.719 85.159 387.833 85.273 388.042 85.273H389.353C389.562 85.273 389.676 85.159 389.695 84.95L389.771 83.392H387.624ZM387.453 80.39L387.51 81.435H389.885L389.942 80.39C389.961 80.086 390.132 79.934 390.436 79.934H391.481C391.785 79.934 391.994 80.124 391.975 80.428L391.671 86.014C391.633 86.774 391.082 87.23 390.227 87.23H387.168C386.313 87.23 385.762 86.774 385.724 86.014L385.42 80.428C385.401 80.124 385.61 79.934 385.914 79.934H386.959C387.263 79.934 387.434 80.086 387.453 80.39ZM399.271 86.774C399.271 87.23 398.986 87.249 398.625 87.249C397.314 87.249 396.288 86.451 395.851 85.197C395.395 86.451 394.369 87.249 393.058 87.249C392.697 87.249 392.412 87.23 392.412 86.774V85.691C392.412 85.387 392.545 85.254 392.887 85.254C393.989 85.254 394.749 84.323 394.749 83.202V80.447C394.749 80.124 394.939 79.934 395.243 79.934H396.44C396.744 79.934 396.934 80.124 396.934 80.447V83.202C396.934 84.323 397.694 85.254 398.796 85.254C399.138 85.254 399.271 85.387 399.271 85.691V86.774ZM392.697 74.69C392.697 77.198 391.063 78.851 388.517 78.851C385.99 78.851 384.356 77.198 384.356 74.69C384.356 72.182 385.971 70.548 388.517 70.548C391.063 70.548 392.697 72.182 392.697 74.69ZM395.433 70.814C395.433 70.491 395.623 70.301 395.927 70.301H397.124C397.428 70.301 397.618 70.491 397.618 70.814V78.262C397.618 78.585 397.428 78.775 397.124 78.775H395.927C395.623 78.775 395.433 78.585 395.433 78.262V75.051C395.3 75.298 395.034 75.431 394.654 75.431H393.799C393.476 75.431 393.324 75.279 393.324 74.956V73.911C393.324 73.588 393.476 73.436 393.799 73.436H394.768C395.224 73.436 395.433 73.246 395.433 72.828V70.814ZM407.348 84.095C406.246 84.551 405.372 84.76 404.479 84.76C401.572 84.76 400.128 83.183 400.128 79.953C400.128 76.97 400.28 73.968 400.546 71.916C400.584 71.612 400.774 71.498 401.097 71.498H402.199C402.56 71.498 402.693 71.688 402.655 72.011C402.37 74.158 402.218 76.856 402.218 80.143C402.218 81.986 402.826 82.651 404.517 82.651C405.296 82.651 406.075 82.442 406.892 82.043C406.949 82.024 407.006 82.005 407.063 82.005C407.215 82.005 407.329 82.138 407.424 82.404L407.747 83.487C407.823 83.753 407.709 83.943 407.348 84.095ZM406.379 75.735H409.058C409.495 75.735 409.628 75.602 409.628 75.222V70.966C409.628 70.643 409.78 70.491 410.103 70.491H411.243C411.566 70.491 411.718 70.643 411.718 70.966V86.66C411.718 86.983 411.566 87.135 411.243 87.135H410.103C409.78 87.135 409.628 86.983 409.628 86.66V77.483C409.514 77.692 409.248 77.825 408.982 77.825H406.379C406.056 77.825 405.904 77.673 405.904 77.35V76.21C405.904 75.887 406.056 75.735 406.379 75.735ZM415.043 70.776V86.66C415.043 86.983 414.891 87.135 414.568 87.135H413.428C413.105 87.135 412.953 86.983 412.953 86.66V70.776C412.953 70.453 413.105 70.301 413.428 70.301H414.568C414.891 70.301 415.043 70.453 415.043 70.776ZM426.862 80.637C426.311 80.732 425.703 80.789 425.057 80.789C424.297 80.789 423.594 80.713 422.967 80.58V83.012C422.967 83.43 423.176 83.601 423.632 83.601C424.563 83.62 426.235 83.601 427.375 83.582C427.071 83.468 426.862 83.145 426.862 82.746V80.637ZM425.057 78.756C427.489 78.756 428.8 77.73 428.8 75.944C428.8 74.12 427.546 73.132 425.057 73.132C422.568 73.132 421.314 74.12 421.314 75.944C421.314 77.73 422.625 78.756 425.057 78.756ZM419.129 75.944C419.129 72.866 421.295 71.099 425.057 71.099C428.819 71.099 430.985 72.866 430.985 75.944C430.985 77.673 430.301 78.984 429.047 79.82V82.898C429.047 83.316 429.256 83.487 429.712 83.487C430.263 83.487 431.232 83.373 431.574 83.316C431.897 83.278 432.087 83.449 432.087 83.772V84.817C432.087 85.14 431.954 85.273 431.612 85.33C430.32 85.539 427.793 85.653 424.886 85.653C421.865 85.653 419.642 85.539 418.217 85.311C417.875 85.254 417.742 85.102 417.742 84.798V83.753C417.742 83.43 417.932 83.259 418.255 83.297C419.3 83.449 420.25 83.582 421.219 83.639C420.953 83.487 420.782 83.202 420.782 82.841V79.82C420.782 79.744 420.782 79.687 420.801 79.63C419.718 78.813 419.129 77.559 419.129 75.944ZM434.312 86.223C434.312 85.387 434.901 84.836 435.737 84.836C436.592 84.836 437.181 85.387 437.181 86.223C437.181 87.021 436.592 87.572 435.737 87.572C434.901 87.572 434.312 87.021 434.312 86.223Z" fill="#422205"/>
</svg>
