<svg width="79" height="50" viewBox="0 0 79 50" fill="none" xmlns="http://www.w3.org/2000/svg">
<path fill-rule="evenodd" clip-rule="evenodd" d="M52.9319 26.6085C51.9006 27.0647 51.0588 27.8623 51.0588 28.832V42.176C51.0588 43.184 50.4827 43.76 49.4748 43.76H45.6828C44.6748 43.76 44.0988 43.184 44.0988 42.176V7.61598C44.0988 6.60798 44.6748 6.03198 45.6828 6.03198H49.4748C50.4827 6.03198 51.0588 6.60798 51.0588 7.61598V20.912C51.7788 20 53.6028 19.472 54.9948 19.472H66.8988V7.61598C66.8988 6.60798 67.4748 6.03198 68.4827 6.03198H72.2747C73.2828 6.03198 73.8587 6.60798 73.8587 7.61598V42.176C73.8587 43.184 73.2828 43.76 72.2747 43.76H68.4827C67.4748 43.76 66.8988 43.184 66.8988 42.176V26.192H54.8027C54.2011 26.192 53.5342 26.342 52.9319 26.6085ZM61.8988 31.192H56.0588V42.176C56.0588 43.6204 55.6294 45.4324 54.1803 46.8815C52.7312 48.3306 50.9192 48.76 49.4748 48.76H45.6828C44.2383 48.76 42.4263 48.3306 40.9772 46.8815C39.5281 45.4324 39.0988 43.6204 39.0988 42.176V7.61598C39.0988 6.17158 39.5281 4.35956 40.9772 2.91045C42.4263 1.46134 44.2383 1.03198 45.6828 1.03198H49.4748C50.9192 1.03198 52.7312 1.46134 54.1803 2.91045C55.6294 4.35956 56.0588 6.17158 56.0588 7.61598V14.472H61.8988V7.61598C61.8988 6.17158 62.3281 4.35956 63.7772 2.91045C65.2263 1.46134 67.0384 1.03198 68.4827 1.03198H72.2747C73.7191 1.03198 75.5312 1.46134 76.9803 2.91045C78.4294 4.35956 78.8587 6.17158 78.8587 7.61598V42.176C78.8587 43.6204 78.4294 45.4324 76.9803 46.8815C75.5312 48.3306 73.7192 48.76 72.2747 48.76H68.4827C67.0383 48.76 65.2263 48.3306 63.7772 46.8815C62.3281 45.4324 61.8988 43.6204 61.8988 42.176V31.192Z" fill="white"/>
<path fill-rule="evenodd" clip-rule="evenodd" d="M28.8047 34.4143C28.8318 34.3804 28.8586 34.3463 28.8851 34.3119C29.9078 32.9875 30.5463 31.2946 30.754 29.3119H23.554C22.594 29.3119 22.066 28.7839 22.066 27.8239V24.0799C22.066 23.1199 22.594 22.5919 23.554 22.5919H34.978C35.3043 22.5919 35.6109 22.6149 35.8974 22.6604C37.8024 22.963 38.818 24.2622 38.818 26.4319V41.3119C38.818 42.2719 38.29 42.7999 37.33 42.7999H33.826C32.866 42.7999 32.338 42.2719 32.338 41.3119V35.5039C31.9324 37.0663 31.301 38.5159 30.4102 39.7702C30.0164 40.3247 29.5719 40.8409 29.0738 41.3119C28.5842 41.7748 28.0429 42.194 27.447 42.5627C25.6381 43.6818 23.3263 44.3359 20.434 44.3359C10.738 44.3359 5.65 36.9919 5.65 24.8959C5.65 12.3679 11.362 5.50391 21.826 5.50391C30.37 5.50391 35.554 9.05591 36.994 15.9199C37.186 16.8319 36.85 17.2639 35.938 17.5039L32.002 18.4639C31.057 18.7002 30.5306 18.4248 30.2397 17.5919C30.235 17.5787 30.2305 17.5654 30.226 17.5519C28.93 13.9039 26.386 12.2719 22.018 12.2719C15.634 12.2719 12.61 16.3039 12.61 24.8959C12.61 33.2479 15.154 37.5199 21.586 37.5199C23.6086 37.5199 25.3406 37.0634 26.7402 36.2212C26.9467 36.0969 27.1461 35.9642 27.338 35.8233C27.4773 35.7211 27.6126 35.6146 27.7441 35.5039C28.0858 35.2161 28.4009 34.8997 28.6885 34.5564C28.7277 34.5096 28.7665 34.4622 28.8047 34.4143ZM18.0182 20.575C18.2585 20.1832 18.5538 19.801 18.9145 19.4404C20.3721 17.9827 22.1823 17.5919 23.554 17.5919H24.2586C23.873 17.4357 23.1935 17.2719 22.018 17.2719C19.9662 17.2719 19.3029 17.849 18.9269 18.3527C18.6159 18.7694 18.2752 19.4657 18.0182 20.575ZM41.8875 14.8933C42.1141 15.972 42.2746 17.8941 41.0438 19.7323C41.1541 19.8309 41.2627 19.9335 41.3695 20.0404C43.2376 21.9084 43.818 24.3192 43.818 26.4319V41.3119C43.818 42.6836 43.4272 44.4938 41.9695 45.9514C40.5119 47.4091 38.7017 47.7999 37.33 47.7999H33.826C32.7511 47.7999 31.4071 47.56 30.1744 46.7548C27.4558 48.4659 24.1655 49.3359 20.434 49.3359C14.1658 49.3359 8.91058 46.8756 5.39051 42.1311C2.03242 37.605 0.650002 31.5414 0.650002 24.8959C0.650002 17.9608 2.22123 11.8013 5.97347 7.30029C9.84795 2.65262 15.4324 0.503906 21.826 0.503906C26.7412 0.503906 31.2681 1.52047 34.9033 4.01543C38.6427 6.58186 40.938 10.3711 41.8867 14.8899" fill="white"/>
</svg>
